<?xml version="1.0" encoding="UTF-8" standalone="no"?>
<!--
  This source file is part of the Swift.org open source project

  Copyright (c) 2021 Apple Inc. and the Swift project authors
  Licensed under Apache License v2.0 with Runtime Library Exception

  See https://swift.org/LICENSE.txt for license information
  See https://swift.org/CONTRIBUTORS.txt for Swift project authors
-->

<svg
   viewBox="0 0 25 25"
   version="1.1"
   id="svg1"
   sodipodi:docname="favicon.svg"
   inkscape:version="1.4.4 (dcaf3e7d9e, 2026-05-05)"
   xmlns:inkscape="http://www.inkscape.org/namespaces/inkscape"
   xmlns:sodipodi="http://sodipodi.sourceforge.net/DTD/sodipodi-0.dtd"
   xmlns="http://www.w3.org/2000/svg"
   xmlns:svg="http://www.w3.org/2000/svg">
  <defs
     id="defs1" />
  <sodipodi:namedview
     id="namedview1"
     pagecolor="#ffffff"
     bordercolor="#000000"
     borderopacity="0.25"
     inkscape:showpageshadow="2"
     inkscape:pageopacity="0.0"
     inkscape:pagecheckerboard="0"
     inkscape:deskcolor="#d1d1d1"
     inkscape:zoom="7.9387599"
     inkscape:cx="13.541158"
     inkscape:cy="-3.2120886"
     inkscape:window-width="1728"
     inkscape:window-height="1048"
     inkscape:window-x="0"
     inkscape:window-y="0"
     inkscape:window-maximized="1"
     inkscape:current-layer="svg1" />
  <path
     d="m 11.231071,0.62773671 c 0.02046,2.185e-5 0.04092,4.951e-5 0.06199,7.572e-5 0.02341,-2.621e-5 0.04682,-7.572e-5 0.07093,-1.0484e-4 0.03881,1.3106e-4 0.03881,1.3106e-4 0.07842,2.0241e-4 0.02709,-4.36e-6 0.05418,-5.83e-6 0.0821,-1.165e-5 0.09003,1.748e-5 0.18006,2.0095e-4 0.27009,4.0337e-4 0.06224,5.243e-5 0.124477,7.864e-5 0.186703,1.0485e-4 0.164166,1.063e-4 0.328332,4.0482e-4 0.492496,6.0724e-4 0.167374,2.0095e-4 0.334746,4.0336e-4 0.502119,4.0336e-4 0.328676,2.0241e-4 0.657351,6.0724e-4 0.986025,0.001214 2.9e-5,0.0319345 8.1e-5,0.0638692 1.08e-4,0.0967793 9.1e-4,0.75914423 0.0025,1.51828573 0.0045,2.27742853 2.61e-4,0.093561 5.05e-4,0.1871209 7.67e-4,0.2806807 5.2e-5,0.01861 1.05e-4,0.03725 1.58e-4,0.056442 8.49e-4,0.301063 0.0013,0.6021232 0.0015,0.9031862 3.44e-4,0.3092193 0.0011,0.6184299 0.0021,0.9276463 5.85e-4,0.1735577 9.89e-4,0.3471097 9.89e-4,0.520666 -1.9e-5,0.1635259 4.85e-4,0.3270403 0.0013,0.4905619 2.02e-4,0.059851 2.82e-4,0.1197145 1.32e-4,0.1795616 -6.66e-4,0.3078535 0.0027,0.5763717 0.120472,0.8651459 0.01788,0.052278 0.03559,0.1046281 0.05291,0.1570969 0.01745,0 0.03492,0 0.05291,0 0.02771,0.035066 0.05391,0.07131 0.07937,0.108007 0.142927,0.1871485 0.325847,0.2857628 0.555504,0.3371041 0.08721,0.00772 0.1737,0.00845 0.261216,0.00815 0.02239,4.047e-4 0.04481,8.488e-4 0.06789,0.00121 0.339657,2.025e-4 0.636555,-0.1544058 0.892668,-0.366716 0.04796,-0.035488 0.04796,-0.035488 0.100843,-0.035488 0.009,-0.021042 0.009,-0.021042 0.01819,-0.042536 0.05429,-0.097231 0.12998,-0.1770147 0.203145,-0.2606024 0.06045,-0.070101 0.112563,-0.1352815 0.149003,-0.2205102 0.01747,0 0.03492,0 0.05291,0 0.0076,-0.023765 0.01528,-0.047516 0.02314,-0.071994 0.02354,-0.06735 0.04866,-0.1273452 0.08266,-0.1898265 0.01747,0 0.03492,0 0.05291,0 0.0037,-0.015378 0.0073,-0.030784 0.01118,-0.046642 0.02973,-0.1129576 0.07349,-0.2220639 0.122759,-0.3280072 0.09832,-0.2154571 0.159436,-0.4380992 0.220893,-0.6661744 0.04907,-0.1805869 0.106661,-0.3555178 0.174238,-0.5301605 0.01747,0 0.03492,0 0.05291,0 0.0039,-0.022323 0.0039,-0.022323 0.008,-0.045099 0.06457,-0.2081601 0.272137,-0.3740349 0.453309,-0.4834644 0.243909,-0.1228309 0.511165,-0.1429119 0.773736,-0.06218 0.161912,0.065427 0.289103,0.1745116 0.405054,0.3027406 0.0087,0.02592 0.01743,0.051841 0.02645,0.078547 0.01749,0 0.03492,0 0.05291,0 0.539471,0.7131662 0.610942,1.711431 0.497432,2.5658228 -0.08143,0.5335491 -0.258886,1.0398016 -0.444528,1.5448934 -0.01253,0.03444 -0.01253,0.03444 -0.02529,0.069562 -0.06978,0.1918055 -0.145314,0.3794201 -0.232117,0.5643522 -0.211297,0.459473 -0.405517,0.960439 -0.483274,1.460721 -0.0027,0.01771 -0.0056,0.03543 -0.0084,0.05369 -0.04414,0.291503 -0.05118,0.569894 -0.01801,0.862721 0.0024,0.01975 0.0044,0.03948 0.0067,0.05982 0.0736,0.613642 0.306534,1.193094 0.576269,1.74661 0.02763,0.05713 0.05467,0.11449 0.08163,0.171917 0.107197,0.227514 0.218005,0.451903 0.340408,0.67184 0.05579,0.101475 0.100653,0.202269 0.140072,0.310969 0.02853,0.07564 0.06426,0.147432 0.09982,0.22007 0.204004,0.425777 0.380888,0.863023 0.531865,1.309823 0.02261,0.06654 0.04571,0.132923 0.06889,0.199272 0.175122,0.504771 0.317377,1.013844 0.402778,1.541213 0.0039,0.02395 0.008,0.0479 0.01209,0.07256 0.106745,0.662408 0.135078,1.389786 -0.01209,2.048252 -0.0039,0.01874 -0.0079,0.03744 -0.01194,0.0567 -0.07668,0.356801 -0.21691,0.668354 -0.393454,0.986615 -0.04578,0.07996 -0.04578,0.07996 -0.07068,0.161087 -0.01749,0 -0.03492,0 -0.05291,0 -0.0024,0.01325 -0.005,0.02659 -0.0074,0.0403 -0.0268,0.09083 -0.06892,0.173232 -0.111599,0.257535 -0.01384,0.02739 -0.01384,0.02739 -0.02802,0.05533 -0.06744,0.130476 -0.140524,0.256302 -0.219976,0.379957 -0.01,0.01585 -0.02017,0.03168 -0.03054,0.04801 -0.02466,0.03739 -0.05143,0.07341 -0.07857,0.109088 -0.01743,0 -0.03491,0 -0.05291,0 -0.0063,0.01471 -0.01253,0.02941 -0.01902,0.04456 -0.04164,0.07393 -0.09253,0.125 -0.152929,0.184943 -0.02345,0.02328 -0.04692,0.04657 -0.07109,0.07057 -0.03682,0.03614 -0.03682,0.03614 -0.07439,0.07303 -0.02457,0.02451 -0.0491,0.04902 -0.07439,0.07425 -0.02344,0.02315 -0.04692,0.04631 -0.07109,0.07016 -0.02157,0.02127 -0.04311,0.04253 -0.06529,0.06446 -0.05373,0.04641 -0.05373,0.04641 -0.106637,0.04641 0,0.01727 0,0.03455 0,0.05236 -0.14316,0.104734 -0.14316,0.104734 -0.211618,0.104734 0,0.01728 0,0.03455 0,0.05236 -0.815061,0.62513 -1.834729,0.819826 -2.830413,0.942586 -0.02335,0.0029 -0.04672,0.0058 -0.07077,0.0087 -0.695184,0.08445 -1.39133,0.104127 -2.090759,0.102973 -0.107994,-1.31e-4 -0.215992,-9e-6 -0.323987,7.8e-5 -0.18111,1.06e-4 -0.362217,-2.3e-5 -0.543325,-2e-4 -0.206879,-2.03e-4 -0.413754,-1.85e-4 -0.620632,1.03e-4 -0.180287,2.03e-4 -0.360573,2.03e-4 -0.54086,1.33e-4 -0.106507,-7.9e-5 -0.213015,-1.05e-4 -0.319524,7.7e-5 -0.702789,9.9e-4 -1.4015734,-0.02451 -2.0999404,-0.1086 -0.019,-0.0021 -0.03799,-0.0044 -0.05758,-0.0069 -0.6978804,-0.08201 -1.3895762,-0.17854 -2.0353899,-0.467699 -0.016819,-0.0074 -0.033624,-0.01496 -0.050953,-0.02267 -0.2864253,-0.129166 -0.5419456,-0.290988 -0.7955218,-0.474811 -0.026226,-0.0189 -0.052438,-0.0378 -0.079465,-0.05727 -0.1181418,-0.08784 -0.1181418,-0.08784 -0.1586112,-0.126006 0,-0.01728 0,-0.03455 0,-0.05236 -0.01746,0 -0.034919,0 -0.052904,0 0,-0.01727 0,-0.03455 0,-0.05236 -0.01746,0 -0.034919,0 -0.052904,0 0,-0.01728 0,-0.03455 0,-0.05236 -0.014125,-0.0054 -0.028367,-0.01083 -0.042987,-0.01636 -0.087154,-0.04995 -0.1578848,-0.115811 -0.2215384,-0.193097 0,-0.01728 0,-0.03458 0,-0.05236 -0.01746,0 -0.034919,0 -0.052904,0 0,-0.01728 0,-0.03455 0,-0.05236 -0.01746,0 -0.034919,0 -0.052904,0 0,-0.01728 0,-0.03455 0,-0.05236 -0.01746,0 -0.034919,0 -0.052904,0 -0.039885,-0.04397 -0.039885,-0.04397 -0.082669,-0.101451 -0.014271,-0.01882 -0.028512,-0.03767 -0.04319,-0.05707 -0.032867,-0.05093 -0.032867,-0.05093 -0.032867,-0.103307 -0.01746,0 -0.034919,0 -0.052904,0 -0.047734,-0.06296 -0.092047,-0.125742 -0.1355725,-0.19146 -0.012378,-0.01807 -0.024755,-0.03614 -0.037512,-0.05476 -0.017548,-0.0262 -0.017548,-0.0262 -0.035444,-0.05293 -0.010779,-0.01605 -0.021494,-0.03208 -0.032561,-0.04861 -0.023445,-0.04497 -0.023445,-0.04497 -0.023445,-0.123516 -0.01746,0 -0.034919,0 -0.052904,0 C 4.599274,21.047272 4.3735812,20.270857 4.3807734,19.40934 c 4.863e-4,-0.05971 5.461e-4,-0.119438 5.461e-4,-0.179158 8.285e-4,-0.364007 0.016208,-0.725095 0.075999,-1.084903 0.00451,-0.02766 0.00917,-0.05532 0.013834,-0.08383 0.089979,-0.521374 0.2330073,-1.051289 0.4441513,-1.537874 0.031017,-0.08413 0.060068,-0.168894 0.08928,-0.253649 0.069301,-0.198089 0.1437857,-0.391875 0.2281523,-0.584206 0.016673,-0.03939 0.033304,-0.07881 0.049904,-0.118225 0.1825893,-0.431157 0.3882476,-0.850653 0.5970396,-1.269875 0.4306363,-0.864917 0.4306363,-0.864917 0.7285787,-1.780027 0.00801,-0.03125 0.016033,-0.0625 0.024275,-0.09472 C 6.8342718,11.550971 6.6465118,10.668921 6.2725626,9.8700892 6.2090138,9.731488 6.1518287,9.5902784 6.09408,9.4492274 6.0812654,9.4180355 6.0685237,9.3868582 6.0553595,9.3547198 5.8389908,8.8246641 5.6337488,8.2892046 5.5236947,7.7260596 5.5190349,7.7025856 5.5142294,7.6791116 5.509424,7.6549532 5.4629273,7.3958011 5.4603207,7.1391188 5.4608741,6.8767616 c -5.9e-6,-0.034687 -5.9e-6,-0.034687 -1.02e-5,-0.070073 7.077e-4,-0.3567717 0.020096,-0.6984453 0.1157393,-1.0443421 0.0083,-0.030711 0.016498,-0.061422 0.025003,-0.093066 0.057695,-0.1885755 0.1462452,-0.3617503 0.2395194,-0.5353197 0.01746,0 0.034919,0 0.052904,0 0.00757,-0.019964 0.015275,-0.039958 0.02314,-0.060549 0.029765,-0.070363 0.029765,-0.070363 0.082669,-0.1489159 0.01746,0 0.034919,0 0.052904,0 0,-0.017285 0,-0.034555 0,-0.052365 0.01746,0 0.034919,0 0.052904,0 0.00626,-0.015203 0.012669,-0.030377 0.019119,-0.046016 0.1765867,-0.306815 0.6408904,-0.4615062 0.9635518,-0.5538325 0.9244616,-0.221049 1.9294212,0.063928 2.7471292,0.4951243 0.02547,0.013251 0.05093,0.026386 0.07719,0.039988 0.1065784,0.056253 0.2108824,0.1149243 0.3132964,0.1782715 0.01745,0.010779 0.03492,0.021406 0.05291,0.032429 0.03413,0.021028 0.06809,0.042332 0.101843,0.063956 0.132834,0.081868 0.252503,0.1206612 0.410367,0.08628 0.149857,-0.067714 0.227808,-0.1438295 0.287671,-0.296195 0.06084,-0.2159291 0.06086,-0.4314896 0.06091,-0.654069 2.02e-4,-0.038954 4.46e-4,-0.077892 6.67e-4,-0.1168457 4.85e-4,-0.083339 7.64e-4,-0.1666626 9.93e-4,-0.2499953 3.03e-4,-0.1316847 9.92e-4,-0.2633606 0.0018,-0.3950408 0.0011,-0.2080436 0.002,-0.4160872 0.0026,-0.6241323 0.0014,-0.3733025 0.0029,-0.7466034 0.005,-1.1199031 6.46e-4,-0.1310147 0.0011,-0.2620411 0.0015,-0.3930645 2.62e-4,-0.081184 6.48e-4,-0.1623727 0.0011,-0.2435606 1.65e-4,-0.037774 2.83e-4,-0.075562 3.64e-4,-0.1133359 1.01e-4,-0.051346 3.64e-4,-0.1026916 6.47e-4,-0.15403005 10e-5,-0.0287892 2.02e-4,-0.0575784 3.02e-4,-0.0872412 0.005,-0.0886975 0.005,-0.0886975 0.0766,-0.0936485 z"
     fill="#FEFEFE"
     id="path3"
     style="display:inline;fill:#f8f4e2;fill-opacity:1;stroke:#000000;stroke-width:0.5;stroke-linecap:round;stroke-linejoin:round;stroke-dasharray:none;stroke-opacity:1;enable-background:new"
     inkscape:label="Guitar" />
</svg>
