<?xml version="1.0" encoding="UTF-8" standalone="no"?>
<svg
   height="16px"
   viewBox="0 0 16 16"
   width="16px"
   version="1.1"
   id="svg1"
   sodipodi:docname="instrument-dark.svg"
   inkscape:version="1.4 (e7c3feb1, 2024-10-09)"
   xmlns:inkscape="http://www.inkscape.org/namespaces/inkscape"
   xmlns:sodipodi="http://sodipodi.sourceforge.net/DTD/sodipodi-0.dtd"
   xmlns="http://www.w3.org/2000/svg"
   xmlns:svg="http://www.w3.org/2000/svg">
  <defs
     id="defs1" />
  <sodipodi:namedview
     id="namedview1"
     pagecolor="#ffffff"
     bordercolor="#000000"
     borderopacity="0.25"
     inkscape:showpageshadow="2"
     inkscape:pageopacity="0.0"
     inkscape:pagecheckerboard="0"
     inkscape:deskcolor="#d1d1d1"
     inkscape:zoom="27.360707"
     inkscape:cx="7.8214353"
     inkscape:cy="10.197105"
     inkscape:window-width="1520"
     inkscape:window-height="875"
     inkscape:window-x="41"
     inkscape:window-y="38"
     inkscape:window-maximized="0"
     inkscape:current-layer="svg1"
     showgrid="true">
    <inkscape:grid
       id="grid1"
       units="px"
       originx="0"
       originy="0"
       spacingx="1"
       spacingy="1"
       empcolor="#0099e5"
       empopacity="0.30196078"
       color="#0099e5"
       opacity="0.14901961"
       empspacing="5"
       enabled="true"
       visible="true" />
  </sodipodi:namedview>
  <g
     id="g7"
     transform="matrix(0.02568681,0,0,0.02563693,1.4356129,1.4253505)"
     style="fill:#eeeeee;fill-opacity:1;stroke:none;stroke-width:23.107;stroke-dasharray:none;stroke-opacity:1"
     inkscape:label="Instrument">
    <path
       class="st0"
       d="m 207.882,304.111 c 18.384,18.392 48.197,18.392 66.589,0 18.384,-18.384 18.384,-48.196 0,-66.581 -18.392,-18.392 -48.206,-18.392 -66.589,0 -18.393,18.385 -18.393,48.198 0,66.581 z"
       id="path1-8"
       style="fill:#eeeeee;fill-opacity:1;stroke:none;stroke-width:23.107;stroke-dasharray:none;stroke-opacity:1" />
    <path
       class="st0"
       d="m 364.346,218.42 -18.136,19.034 7.674,7.665 c 8.708,8.708 13.002,20.001 13.011,31.404 -0.009,11.404 -4.312,22.696 -13.011,31.414 -6.802,6.954 -19.317,12.994 -30.139,16.801 -11.839,4.268 -22.652,10.471 -31.215,19.017 -7.324,7.297 -12.953,16.493 -15.382,27.093 -3.533,15.544 -5.056,32.825 -9.008,49.121 -3.91,16.331 -9.95,31.08 -21.232,42.346 -1.48,1.48 -3.055,2.908 -4.748,4.286 -9.384,7.648 -19.137,13.122 -29.42,16.219 -15.433,4.552 -32.388,4.192 -53.27,-4.14 -20.814,-8.35 -45.245,-25.082 -73.151,-53.005 -37.281,-37.23 -54.433,-68.181 -58.788,-92.81 -2.207,-12.371 -1.42,-23.294 1.652,-33.603 3.088,-10.291 8.572,-20.044 16.219,-29.428 1.386,-1.702 2.815,-3.276 4.303,-4.764 11.258,-11.275 25.989,-17.315 42.32,-21.224 16.305,-3.943 33.577,-5.466 49.121,-8.999 10.6,-2.438 19.805,-8.058 27.102,-15.373 8.538,-8.572 14.731,-19.368 19.008,-31.224 3.815,-10.831 9.83,-23.338 16.793,-30.147 8.708,-8.7 20.001,-13.003 31.412,-13.012 11.412,0.009 22.696,4.303 31.404,13.012 l 7.682,7.682 19.026,-18.136 -8.127,-8.127 c -27.615,-27.615 -72.364,-27.615 -99.978,0 -11.831,11.977 -18.392,27.434 -22.944,39.822 -3.216,8.974 -7.734,16.433 -12.866,21.54 -4.414,4.406 -9.119,7.118 -14.432,8.359 -12.789,2.993 -30.668,4.61 -49.318,9.051 -18.615,4.465 -38.598,12.01 -54.792,28.196 -2.105,2.104 -4.141,4.346 -6.091,6.75 -9.377,11.506 -16.776,24.304 -21.02,38.488 -6.441,21.266 -5.337,45.305 4.928,70.61 10.249,25.382 29.232,52.338 58.805,81.92 39.42,39.377 74.28,60.164 106.746,66.076 16.185,2.926 31.635,1.916 45.793,-2.344 14.175,-4.243 26.973,-11.635 38.496,-21.027 2.387,-1.933 4.62,-3.969 6.715,-6.066 16.186,-16.202 23.748,-36.178 28.206,-54.793 4.44,-18.658 6.065,-36.546 9.068,-49.352 1.24,-5.295 3.944,-9.983 8.35,-14.414 5.115,-5.132 12.575,-9.649 21.532,-12.874 12.413,-4.543 27.845,-11.121 39.822,-22.944 27.614,-27.623 27.614,-72.363 0,-99.978 z"
       id="path2"
       style="fill:#eeeeee;fill-opacity:1;stroke:none;stroke-width:23.107;stroke-dasharray:none;stroke-opacity:1" />
    <polygon
       class="st0"
       points="396.923,85.437 268.021,208.308 303.694,243.972 426.547,115.071 "
       id="polygon2"
       style="fill:#eeeeee;fill-opacity:1;stroke:none;stroke-width:23.107;stroke-linejoin:round;stroke-dasharray:none;stroke-opacity:1"
       transform="matrix(1,-0.06791069,0,1,0,23.584297)" />
    <polygon
       class="st0"
       points="445.547,108.261 496.652,57.155 454.838,15.349 403.732,66.446 "
       id="polygon3"
       style="fill:#eeeeee;fill-opacity:1;stroke:none;stroke-width:23.107;stroke-dasharray:none;stroke-opacity:1" />
    <polygon
       class="st0"
       points="420.114,16.64 430.312,26.838 446.959,10.199 436.753,0.002 "
       id="polygon4"
       style="fill:#eeeeee;fill-opacity:1;stroke:none;stroke-width:23.107;stroke-dasharray:none;stroke-opacity:1" />
    <polygon
       class="st0"
       points="388.393,48.361 398.591,58.558 415.238,41.92 405.032,31.722 "
       id="polygon5"
       style="fill:#eeeeee;fill-opacity:1;stroke:none;stroke-width:23.107;stroke-dasharray:none;stroke-opacity:1" />
    <polygon
       class="st0"
       points="495.352,91.879 512,75.24 501.794,65.043 485.155,81.682 "
       id="polygon6"
       style="fill:#eeeeee;fill-opacity:1;stroke:none;stroke-width:23.107;stroke-dasharray:none;stroke-opacity:1" />
    <rect
       x="459.642"
       y="98.416"
       transform="matrix(-0.7071,-0.7071,0.7071,-0.7071,719.0573,518.2056)"
       class="st0"
       width="14.422"
       height="23.531"
       id="rect6"
       style="fill:#eeeeee;fill-opacity:1;stroke:none;stroke-width:23.1072;stroke-dasharray:none;stroke-opacity:1" />
    <polygon
       class="st0"
       points="182.089,382.558 129.444,329.904 115.5,343.84 168.154,396.493 "
       id="polygon7"
       style="fill:#eeeeee;fill-opacity:1;stroke:none;stroke-width:23.107;stroke-linejoin:round;stroke-dasharray:none;stroke-opacity:1" />
  </g>
</svg>
