<?xml version="1.0" encoding="UTF-8" standalone="no"?>
<svg
   height="128px"
   viewBox="0 0 128 128"
   width="128px"
   version="1.1"
   id="svg2"
   sodipodi:docname="nl.desbeers.chordprovider-mime.svg"
   inkscape:version="1.4.3 (0d15f75042, 2025-12-25)"
   xmlns:inkscape="http://www.inkscape.org/namespaces/inkscape"
   xmlns:sodipodi="http://sodipodi.sourceforge.net/DTD/sodipodi-0.dtd"
   xmlns="http://www.w3.org/2000/svg"
   xmlns:svg="http://www.w3.org/2000/svg">
  <defs
     id="defs2" />
  <sodipodi:namedview
     id="namedview2"
     pagecolor="#ffffff"
     bordercolor="#000000"
     borderopacity="0.25"
     inkscape:showpageshadow="2"
     inkscape:pageopacity="0.0"
     inkscape:pagecheckerboard="0"
     inkscape:deskcolor="#d1d1d1"
     inkscape:zoom="6.3057138"
     inkscape:cx="59.866339"
     inkscape:cy="68.747174"
     inkscape:window-width="1728"
     inkscape:window-height="1048"
     inkscape:window-x="0"
     inkscape:window-y="0"
     inkscape:window-maximized="1"
     inkscape:current-layer="svg2" />
  <path
     d="m 28 8 h 50 l 30.042969 29.917969 v 74.058593 c 0 4.433594 -3.609375 8.023438 -8.042969 8.023438 h -72 c -4.433594 0 -8 -3.566406 -8 -8 v -96 c 0 -4.433594 3.566406 -8 8 -8 z m 0 0"
     fill="#f6f5f4"
     id="path1"
     style="fill:#7a847f;fill-opacity:1"
     inkscape:label="Background" />
  <path
     id="path1-6"
     style="display:inline;fill:#f8f4e2;fill-opacity:1;stroke:none;stroke-width:0.4;stroke-dasharray:none;stroke-opacity:1;enable-background:new"
     inkscape:label="Gitaar"
     d="m 60.188068,19.944048 v 20.021484 h 0.0332 c -7.3e-5,0.02099 4.4e-5,0.04151 0,0.0625 -7.11e-4,0.106621 5.03e-4,0.213695 0,0.320313 -0.0015,0.22914 -0.0032,0.45641 -0.0039,0.685547 -0.0013,0.369796 -0.0039,0.739584 -0.0059,1.109375 -0.0057,1.053585 -0.0095,2.108514 -0.01367,3.162109 -0.0019,0.58718 -0.0043,1.174545 -0.0078,1.761719 -0.002,0.371649 -0.0052,0.743579 -0.0059,1.115234 -0.0015,0.235197 -0.0025,0.469882 -0.0039,0.705078 -6e-4,0.109923 -0.0013,0.220151 -0.002,0.330078 -2.08e-4,0.628198 -0.0011,1.236275 -0.185547,1.845704 -0.181539,0.430029 -0.416635,0.644818 -0.871094,0.835937 -0.478737,0.09702 -0.843271,-0.01308 -1.246094,-0.244141 -0.102369,-0.06103 -0.205089,-0.120327 -0.308594,-0.179687 -0.05455,-0.03112 -0.107256,-0.06158 -0.160156,-0.0918 -0.310583,-0.178812 -0.626029,-0.345151 -0.949219,-0.503906 -0.0796,-0.03837 -0.157115,-0.07604 -0.234375,-0.113281 -2.479787,-1.21701 -5.528507,-2.020366 -8.332031,-1.396485 -0.978503,0.260577 -2.386357,0.696556 -2.921875,1.5625 -0.01973,0.04416 -0.03764,0.08796 -0.05664,0.13086 h -0.160052 v 0.146487 h -0.162109 c -0.160437,0.221696 -0.15975,0.223277 -0.25,0.421875 -0.02386,0.0581 -0.04713,0.113572 -0.07031,0.169922 h -0.160156 c -0.282863,0.489875 -0.551618,0.979491 -0.726562,1.511719 -0.02578,0.08931 -0.05115,0.175038 -0.07617,0.261718 -0.290051,0.976247 -0.34751,1.940329 -0.34961,2.947266 v 0.199219 c -0.0017,0.740468 0.0055,1.463888 0.146485,2.195312 0.01471,0.06822 0.02867,0.134932 0.04297,0.201172 0.333755,1.5894 0.957123,3.099699 1.613281,4.595703 0.03992,0.09071 0.07845,0.179568 0.117187,0.267578 0.175118,0.398096 0.348307,0.796301 0.541016,1.1875 1.134033,2.254592 1.703593,4.744379 1.091797,7.205078 -0.02504,0.09089 -0.05001,0.179379 -0.07422,0.267579 -0.903541,2.582769 -0.903033,2.582324 -2.208984,5.023437 -0.633184,1.183197 -1.256825,2.367106 -1.810547,3.583984 -0.05035,0.11128 -0.101774,0.222804 -0.152344,0.333985 -0.255866,0.542827 -0.481267,1.089356 -0.691406,1.648437 -0.08857,0.239211 -0.177435,0.479354 -0.271485,0.716797 -0.640316,1.373322 -1.072849,2.868348 -1.345703,4.339844 -0.01423,0.08044 -0.02914,0.158218 -0.04297,0.236328 -0.181324,1.015508 -0.227968,2.035136 -0.230468,3.0625 0,0.168561 -5.06e-4,0.337315 -0.002,0.505859 -0.02181,2.431508 0.664339,4.62143 1.863281,6.78125 h 0.160156 c 0,0.221681 -7.84e-4,0.22269 0.07031,0.34961 0.03358,0.0467 0.06702,0.09132 0.09961,0.136719 0.05427,0.07539 0.05421,0.07639 0.107422,0.15039 0.03867,0.05254 0.07574,0.103197 0.113281,0.154297 0.132007,0.18546 0.265409,0.361339 0.410156,0.539059 h 0.16211 c 0,0.14778 -4.2e-5,0.1492 0.09961,0.29297 0.04453,0.0547 0.08763,0.10696 0.13086,0.16016 0.12973,0.16224 0.129043,0.163 0.25,0.28711 h 0.160156 v 0.14648 h 0.160156 v 0.14844 h 0.160156 v 0.14844 c 0.193036,0.21812 0.407571,0.40398 0.671875,0.54492 0.04433,0.0158 0.08784,0.0296 0.13086,0.0449 v 0.14844 h 0.160156 v 0.14843 h 0.160156 v 0.14649 c 0.122709,0.1077 0.124127,0.10949 0.482422,0.35742 0.08194,0.055 0.160714,0.10686 0.240234,0.16016 0.768996,0.51881 1.543494,0.97529 2.41211,1.33984 0.05255,0.0218 0.103287,0.0431 0.154297,0.0644 1.95849,0.81609 4.057135,1.08853 6.173828,1.32031 0.05939,0.007 0.116228,0.0135 0.173828,0.0195 2.11787,0.23732 4.237862,0.30964 6.36914,0.30664 0.323,-5.2e-4 0.645754,-2.2e-4 0.96875,0 0.546741,2e-4 1.09389,5.7e-4 1.640626,0 0.62738,-8.1e-4 1.25348,-5.6e-4 1.880859,0 0.549228,5e-4 1.099209,3.1e-4 1.648437,0 0.32751,-2.3e-4 0.654919,-3.6e-4 0.982422,0 2.121095,0.003 4.231632,-0.0527 6.339844,-0.29101 0.07296,-0.008 0.144014,-0.0174 0.214844,-0.0254 3.019507,-0.34646 6.112231,-0.89582 8.583984,-2.66016 v -0.14648 c 0.207636,0 0.208455,-0.001 0.642578,-0.29687 v -0.14649 c 0.160444,0 0.159321,1.2e-4 0.322266,-0.13086 0.06734,-0.0619 0.133829,-0.12349 0.199219,-0.18359 0.07332,-0.0673 0.143743,-0.13197 0.214843,-0.19727 0.07671,-0.0713 0.152073,-0.13978 0.226563,-0.20898 0.113949,-0.10407 0.112933,-0.105 0.224609,-0.20703 0.07332,-0.0678 0.143734,-0.13352 0.214844,-0.19922 0.183158,-0.16918 0.338536,-0.31281 0.464844,-0.52148 0.01963,-0.0428 0.03762,-0.0834 0.05664,-0.125 h 0.16211 c 0.08231,-0.10071 0.163501,-0.20306 0.238281,-0.3086 0.03141,-0.0461 0.06128,-0.0901 0.0918,-0.13476 0.240933,-0.349003 0.463459,-0.705982 0.667969,-1.074222 0.04294,-0.07888 0.04196,-0.07895 0.08398,-0.15625 0.129449,-0.23793 0.256631,-0.470223 0.337891,-0.726563 0.0079,-0.03863 0.01624,-0.07568 0.02344,-0.113281 h 0.160156 c 0.07551,-0.22896 0.076,-0.229398 0.214844,-0.455078 0.535388,-0.89824 0.960814,-1.776183 1.193359,-2.783203 0.01241,-0.05439 0.02318,-0.107257 0.03516,-0.160156 0.446413,-1.858425 0.360809,-3.91169 0.03711,-5.78125 -0.01261,-0.06965 -0.02513,-0.137448 -0.03711,-0.205078 -0.258844,-1.488424 -0.689629,-2.924965 -1.220703,-4.34961 -0.07033,-0.187273 -0.140515,-0.374663 -0.208985,-0.5625 C 86.903994,82.577547 86.367241,81.343016 85.748576,80.141314 85.640745,79.936307 85.532352,79.733724 85.445842,79.52022 85.326279,79.213428 85.191187,78.92965 85.022014,78.643267 84.650813,78.022523 84.31386,77.388913 83.98881,76.746782 83.90705,76.5847 83.824534,76.421662 83.740764,76.260454 82.92277,74.698236 82.217876,73.064639 81.99467,71.33272 c -0.0067,-0.05741 -0.0143,-0.114202 -0.02148,-0.169922 -0.100586,-0.826465 -0.07918,-1.612816 0.05469,-2.435547 0.0085,-0.05151 0.01679,-0.100421 0.02539,-0.15039 0.235806,-1.411981 0.826022,-2.826249 1.466796,-4.123047 0.263246,-0.521945 0.491486,-1.050455 0.703125,-1.591797 0.03873,-0.09914 0.03821,-0.100076 0.07617,-0.197266 0.562972,-1.425551 1.102663,-2.853508 1.34961,-4.359375 0.344229,-2.411407 0.126232,-5.229374 -1.509766,-7.242187 h -0.160156 c -0.02729,-0.07538 -0.05369,-0.149517 -0.08008,-0.222657 -0.35163,-0.361909 -0.737502,-0.668869 -1.228516,-0.853515 -0.796264,-0.227856 -1.606021,-0.170893 -2.345703,0.175781 -0.549421,0.308849 -1.179192,0.775776 -1.375,1.363281 -0.0122,0.06427 -0.01341,0.06589 -0.02539,0.128906 h -0.160156 c -0.204943,0.492905 -0.37859,0.986412 -0.527344,1.496094 -0.186368,0.643712 -0.371739,1.270807 -0.669922,1.878906 -0.149393,0.299012 -0.282847,0.606961 -0.373047,0.925782 -0.01172,0.04477 -0.02197,0.0894 -0.0332,0.132812 h -0.160156 c -0.103112,0.176354 -0.180523,0.345098 -0.251953,0.535156 -0.02387,0.06908 -0.04716,0.136075 -0.07031,0.203126 h -0.160157 c -0.110483,0.240563 -0.267834,0.425188 -0.451172,0.623046 -0.221863,0.235916 -0.452547,0.459949 -0.617187,0.734375 -0.02783,0.06067 -0.02741,0.06169 -0.05469,0.121094 -0.160417,0 -0.159268,-5.66e-4 -0.304687,0.09961 -0.776692,0.599216 -1.676992,1.035726 -2.707031,1.035157 -0.06999,-0.0012 -0.139112,-0.0028 -0.207032,-0.0039 -0.265403,7.41e-4 -0.526529,-0.0017 -0.791015,-0.02344 -0.696453,-0.144905 -1.25212,-0.422973 -1.685547,-0.951172 -0.07718,-0.103591 -0.156205,-0.205717 -0.240234,-0.304687 h -0.160157 c -0.05252,-0.148088 -0.105936,-0.295799 -0.160156,-0.44336 -0.356731,-0.815023 -0.367234,-1.572535 -0.365234,-2.441406 2.83e-4,-0.168928 -0.0013,-0.338877 -0.002,-0.507812 -0.0028,-0.461518 -0.004,-0.921283 -0.0039,-1.382813 0,-0.489839 -0.0019,-0.980863 -0.0039,-1.470703 -0.0027,-0.87272 -0.0045,-1.744462 -0.0059,-2.617188 -6e-4,-0.849712 -0.0011,-1.701076 -0.0039,-2.550781 -1.58e-4,-0.05416 1.58e-4,-0.105673 0,-0.158203 -7e-4,-0.264061 -0.0032,-0.528908 -0.0039,-0.792969 -0.0059,-1.908689 -0.01088,-3.815916 -0.01367,-5.724609 h 0.0078 V 19.944048 h -0.119141 -3.859375 z" />
  <path
     d="m 78,8 v 22 c 0,4.433594 3.609375,7.921875 8.042969,7.921875 l 22.000001,-0.0039 z m 0,0"
     fill="#deddda"
     id="path2"
     style="display:inline;fill:#f8f4e2;fill-opacity:1"
     inkscape:label="Flap" />
</svg>
