<?xml version="1.0" encoding="UTF-8" standalone="no"?>
<svg
   height="128px"
   viewBox="0 0 128 128"
   width="128px"
   version="1.1"
   id="svg2"
   sodipodi:docname="nl.desbeers.chordprovider-mime.svg"
   inkscape:version="1.4 (e7c3feb1, 2024-10-09)"
   xmlns:inkscape="http://www.inkscape.org/namespaces/inkscape"
   xmlns:sodipodi="http://sodipodi.sourceforge.net/DTD/sodipodi-0.dtd"
   xmlns="http://www.w3.org/2000/svg"
   xmlns:svg="http://www.w3.org/2000/svg">
  <defs
     id="defs2" />
  <sodipodi:namedview
     id="namedview2"
     pagecolor="#ffffff"
     bordercolor="#000000"
     borderopacity="0.25"
     inkscape:showpageshadow="2"
     inkscape:pageopacity="0.0"
     inkscape:pagecheckerboard="0"
     inkscape:deskcolor="#d1d1d1"
     inkscape:zoom="2.3902047"
     inkscape:cx="46.857911"
     inkscape:cy="43.092543"
     inkscape:window-width="1720"
     inkscape:window-height="933"
     inkscape:window-x="0"
     inkscape:window-y="38"
     inkscape:window-maximized="0"
     inkscape:current-layer="svg2" />
  <path
     d="m 28 8 h 50 l 30.042969 29.917969 v 74.058593 c 0 4.433594 -3.609375 8.023438 -8.042969 8.023438 h -72 c -4.433594 0 -8 -3.566406 -8 -8 v -96 c 0 -4.433594 3.566406 -8 8 -8 z m 0 0"
     fill="#f6f5f4"
     id="path1"
     style="fill:#7a847f;fill-opacity:1" />
  <path
     d="m 60.269644,38.682219 c 0.06207,6.3e-5 0.124068,1.42e-4 0.187995,2.18e-4 0.07098,-7.6e-5 0.14196,-2.18e-4 0.215104,-2.98e-4 0.117717,3.71e-4 0.117717,3.71e-4 0.237804,5.7e-4 0.08215,-1.1e-5 0.164331,-1.6e-5 0.249006,-3.4e-5 0.273023,5.2e-5 0.546046,5.7e-4 0.819068,0.0011 0.188725,1.49e-4 0.377465,2.23e-4 0.566203,2.97e-4 0.497849,2.97e-4 0.995696,0.0011 1.493544,0.0017 0.507575,5.71e-4 1.015151,0.0011 1.522727,0.0011 0.996741,5.7e-4 1.993478,0.0017 2.99022,0.0035 8.2e-5,0.09013 2.42e-4,0.180278 3.24e-4,0.273147 0.0028,2.142582 0.0072,4.285153 0.01378,6.427729 6.89e-4,0.264061 0.0013,0.528122 0.002,0.792183 1.58e-4,0.05253 3.23e-4,0.105131 4.81e-4,0.159291 0.0028,0.849705 0.0042,1.699406 0.0048,2.549118 0.0014,0.872726 0.0035,1.745433 0.0062,2.618153 0.002,0.48984 0.0035,0.97967 0.0035,1.469509 -6.2e-5,0.46153 0.0014,0.923024 0.0042,1.384541 6.2e-4,0.168935 6.9e-4,0.337863 4.07e-4,0.506791 -0.002,0.868871 0.0086,1.626729 0.365331,2.441752 0.05422,0.147561 0.107936,0.2953 0.160452,0.443388 0.0529,0 0.105896,0 0.160445,0 0.08403,0.09897 0.163469,0.201239 0.240649,0.30483 0.433427,0.528199 0.988159,0.806523 1.684612,0.951428 0.264486,0.02171 0.526769,0.02394 0.792172,0.0232 0.06792,0.0011 0.135898,0.0023 0.205886,0.0035 1.030039,5.69e-4 1.930414,-0.43579 2.707106,-1.035006 0.145419,-0.100175 0.145419,-0.100175 0.305836,-0.100175 0.02728,-0.0594 0.02728,-0.0594 0.05511,-0.120067 0.16464,-0.274426 0.394198,-0.499598 0.616061,-0.735514 0.183338,-0.197858 0.341378,-0.381795 0.451861,-0.622358 0.0529,0 0.105896,0 0.160452,0 0.02315,-0.06705 0.0463,-0.134134 0.07017,-0.203213 0.07143,-0.190059 0.14759,-0.359403 0.250702,-0.535757 0.0529,0 0.105895,0 0.160445,0 0.01123,-0.04341 0.02211,-0.08687 0.03383,-0.131641 0.0902,-0.31882 0.22289,-0.626745 0.372283,-0.925756 0.298183,-0.6081 0.483512,-1.236475 0.66988,-1.880187 0.148754,-0.509682 0.32346,-1.003401 0.528403,-1.496305 0.05291,0 0.105895,0 0.160444,0 0.01198,-0.06302 0.01198,-0.06302 0.02418,-0.127292 0.195808,-0.587505 0.825282,-1.055662 1.374703,-1.364511 0.739682,-0.346674 1.550167,-0.403366 2.346431,-0.17551 0.491014,0.184647 0.876738,0.492538 1.228368,0.854447 0.02639,0.07314 0.05291,0.146313 0.0802,0.22169 0.05305,0 0.105902,0 0.160451,0 1.635998,2.012813 1.852734,4.830276 1.508505,7.241683 -0.246947,1.505867 -0.785094,2.934696 -1.348066,4.360247 -0.03796,0.09719 -0.03796,0.09719 -0.07669,0.196327 -0.211639,0.541342 -0.440681,1.070863 -0.703927,1.592808 -0.640774,1.296798 -1.229766,2.710706 -1.465573,4.122687 -0.0086,0.04997 -0.01695,0.100001 -0.0255,0.151508 -0.133865,0.822731 -0.155216,1.608442 -0.05463,2.434907 0.0072,0.05572 0.01357,0.111429 0.02032,0.168835 0.223206,1.731919 0.9296,3.367347 1.747593,4.929565 0.08377,0.161208 0.165791,0.323129 0.247546,0.485211 0.32505,0.642131 0.661124,1.275439 1.032323,1.896183 0.169173,0.286384 0.30523,0.570873 0.424793,0.877665 0.08651,0.213504 0.194871,0.416107 0.302702,0.621114 0.618665,1.201702 1.155079,2.435766 1.612942,3.696798 0.06847,0.187837 0.138599,0.375145 0.208932,0.562418 0.531074,1.424645 0.962475,2.861427 1.221462,4.349864 0.01198,0.06763 0.02418,0.135165 0.03679,0.204816 0.323701,1.86956 0.409623,3.922479 -0.03679,5.780904 -0.01198,0.0529 -0.02397,0.10566 -0.03638,0.16005 -0.232547,1.00702 -0.657802,1.88634 -1.19319,2.78458 -0.138839,0.22568 -0.138839,0.22568 -0.214353,0.45464 -0.05298,0 -0.105896,0 -0.160444,0 -0.0072,0.0376 -0.01481,0.0751 -0.02267,0.11373 -0.08126,0.25634 -0.208987,0.48893 -0.338436,0.72686 -0.04202,0.0773 -0.04202,0.0773 -0.08496,0.15618 -0.20451,0.36824 -0.426165,0.72337 -0.667098,1.07237 -0.03052,0.0447 -0.06118,0.0894 -0.09259,0.13549 -0.07478,0.105533 -0.155994,0.207193 -0.238307,0.307903 -0.0529,0 -0.105868,0 -0.160445,0 -0.01902,0.0416 -0.03803,0.083 -0.05766,0.12576 -0.126308,0.20867 -0.280615,0.3528 -0.463773,0.52198 -0.07111,0.0657 -0.142271,0.13144 -0.215591,0.19919 -0.111676,0.10203 -0.111676,0.10203 -0.225625,0.2061 -0.07449,0.0692 -0.148911,0.13833 -0.225617,0.20958 -0.0711,0.0653 -0.142277,0.1307 -0.2156,0.19803 -0.06539,0.0601 -0.13071,0.12007 -0.198047,0.18195 -0.162945,0.13097 -0.162945,0.13097 -0.323389,0.13097 0,0.0488 0,0.0975 0,0.14778 -0.434123,0.29559 -0.434123,0.29559 -0.641759,0.29559 0,0.0488 0,0.0975 0,0.14779 -2.471753,1.76434 -5.563998,2.31385 -8.583505,2.66031 -0.07083,0.008 -0.141678,0.0162 -0.214637,0.0247 -2.108212,0.23833 -4.219346,0.29391 -6.340441,0.29061 -0.327503,-3.6e-4 -0.655013,-10e-6 -0.982523,2.2e-4 -0.549228,3.1e-4 -1.098457,-6e-5 -1.647685,-5.6e-4 -0.627379,-5.6e-4 -1.254753,-5.1e-4 -1.882133,3e-4 -0.546734,5.7e-4 -1.093468,5.7e-4 -1.640209,3.7e-4 -0.322998,-2.2e-4 -0.645988,-3e-4 -0.968986,2.2e-4 -2.131279,0.003 -4.250411,-0.0692 -6.368281,-0.30651 -0.0576,-0.006 -0.115224,-0.0126 -0.174616,-0.0193 -2.116693,-0.23178 -4.214334,-0.50424 -6.172824,-1.32033 -0.05101,-0.0213 -0.101993,-0.0422 -0.154538,-0.064 -0.868616,-0.36455 -1.643501,-0.82128 -2.412497,-1.34009 -0.07952,-0.0533 -0.159042,-0.1067 -0.240984,-0.16165 -0.358295,-0.24793 -0.358295,-0.24793 -0.481004,-0.35563 0,-0.0488 0,-0.0975 0,-0.14778 -0.05294,0 -0.105891,0 -0.16044,0 0,-0.0488 0,-0.0975 0,-0.14778 -0.05295,0 -0.105891,0 -0.160441,0 0,-0.0488 0,-0.0975 0,-0.1478 -0.04302,-0.0153 -0.08603,-0.0304 -0.130358,-0.0462 -0.264304,-0.14094 -0.478802,-0.32686 -0.671838,-0.54498 0,-0.0488 0,-0.0976 0,-0.14778 -0.05295,0 -0.10589,0 -0.160441,0 0,-0.0488 0,-0.0975 0,-0.14779 -0.05295,0 -0.105889,0 -0.16044,0 0,-0.0488 0,-0.0975 0,-0.14781 -0.05295,0 -0.105889,0 -0.160439,0 -0.120956,-0.12411 -0.120956,-0.12411 -0.250687,-0.28635 -0.04323,-0.0532 -0.08645,-0.10631 -0.130982,-0.16105 -0.09965,-0.143773 -0.09965,-0.143773 -0.09965,-0.291553 -0.05295,0 -0.105891,0 -0.16044,0 -0.144747,-0.17772 -0.27912,-0.35491 -0.411127,-0.54037 -0.03754,-0.0511 -0.07508,-0.10203 -0.113751,-0.15457 -0.05321,-0.074 -0.05321,-0.074 -0.107481,-0.14939 -0.03259,-0.0454 -0.06517,-0.0905 -0.09875,-0.1372 -0.0711,-0.12692 -0.0711,-0.12692 -0.0711,-0.3486 -0.05295,0 -0.105889,0 -0.160439,0 -1.198942,-2.15982 -1.883379,-4.35115 -1.861564,-6.782658 0.0014,-0.168544 0.0017,-0.337087 0.0017,-0.505648 0.0025,-1.027364 0.04915,-2.04648 0.230475,-3.061988 0.01383,-0.07811 0.02764,-0.15615 0.04187,-0.236591 0.272854,-1.471496 0.706616,-2.967111 1.346932,-4.340433 0.09405,-0.237443 0.182172,-0.476676 0.270743,-0.715887 0.210139,-0.559081 0.436028,-1.106014 0.691894,-1.648841 0.05057,-0.111181 0.101005,-0.222413 0.151352,-0.333693 0.553722,-1.216878 1.1774,-2.400847 1.810584,-3.584044 1.305951,-2.441113 1.305951,-2.441113 2.209492,-5.023882 0.02421,-0.0882 0.0486,-0.17641 0.07364,-0.267301 0.611796,-2.4607 0.04239,-4.950167 -1.091643,-7.204759 -0.192709,-0.391199 -0.36615,-0.789728 -0.541268,-1.187824 -0.03874,-0.08801 -0.07749,-0.176016 -0.117411,-0.266726 -0.656158,-1.496004 -1.278574,-3.007267 -1.612329,-4.596667 -0.0143,-0.06624 -0.02857,-0.13248 -0.04328,-0.200695 -0.140996,-0.731424 -0.148928,-1.455873 -0.147238,-2.196341 -1.4e-5,-0.0979 -1.4e-5,-0.0979 -2.9e-5,-0.197758 0.0021,-1.006937 0.06094,-1.971264 0.350991,-2.947511 0.02502,-0.08668 0.05005,-0.17337 0.07583,-0.262681 0.174944,-0.532228 0.443503,-1.02099 0.726366,-1.510865 0.05294,0 0.105892,0 0.16044,0 0.02318,-0.05635 0.04633,-0.112783 0.07019,-0.170884 0.09025,-0.198598 0.09025,-0.198598 0.250687,-0.420294 0.05295,0 0.105889,0 0.16044,0 0,-0.04877 0,-0.09755 0,-0.147796 0.05295,0 0.105889,0 0.160436,0 0.019,-0.0429 0.03826,-0.08573 0.05799,-0.129895 0.535518,-0.865944 1.943565,-1.302537 2.922068,-1.563114 2.803524,-0.623881 5.851159,0.180409 8.330946,1.397419 0.07726,0.03724 0.154485,0.07449 0.234085,0.112863 0.32319,0.158755 0.639519,0.324334 0.950102,0.503146 0.0529,0.03022 0.105867,0.06041 0.160416,0.09153 0.103505,0.05936 0.206486,0.119492 0.308855,0.180518 0.402823,0.231062 0.765744,0.340532 1.244481,0.243512 0.454459,-0.191119 0.690852,-0.405943 0.872391,-0.835972 0.184481,-0.609429 0.184537,-1.217821 0.184743,-1.846019 6.13e-4,-0.109928 0.0014,-0.219846 0.002,-0.329769 0.0014,-0.235196 0.002,-0.47038 0.0035,-0.705577 6.9e-4,-0.371655 0.0035,-0.743298 0.0055,-1.114947 0.0035,-0.587174 0.0062,-1.174349 0.0081,-1.761529 0.0042,-1.053595 0.0091,-2.107186 0.01481,-3.160772 0.002,-0.36979 0.0035,-0.739575 0.0048,-1.10937 6.88e-4,-0.229138 0.002,-0.458277 0.0035,-0.687417 5.03e-4,-0.106618 6.89e-4,-0.213242 0.0014,-0.319863 3.04e-4,-0.144915 0.0014,-0.289822 0.002,-0.434728 3.09e-4,-0.08126 6.14e-4,-0.162518 6.88e-4,-0.246237 0.01481,-0.250327 0.01481,-0.250327 0.232308,-0.264312 z"
     fill="#FEFEFE"
     id="path1-7"
     style="display:inline;fill:#f8f4e2;fill-opacity:1;stroke:none;stroke-width:0.881995;stroke-dasharray:none;stroke-opacity:1;enable-background:new" />
  <path
     d="m 78 8 v 22 c 0 4.433594 3.609375 7.921875 8.042969 7.921875 l 22 -0.003906 z m 0 0"
     fill="#deddda"
     id="path2"
     style="fill:#f8f4e2;fill-opacity:1" />
  <rect
     style="fill:#f8f4e2;fill-opacity:1;stroke-width:0.209972;stroke-linejoin:round"
     id="rect1"
     width="8.4377165"
     height="20.020098"
     x="60.001541"
     y="19.543415" />
</svg>
