<?xml version="1.0" encoding="UTF-8" standalone="no"?>
<svg
   width="128"
   height="128"
   viewBox="0 0 33.866667 33.866667"
   version="1.1"
   id="svg974"
   sodipodi:docname="nl.desbeers.chordprovider.svg"
   inkscape:version="1.4.3 (0d15f75042, 2025-12-25)"
   xmlns:inkscape="http://www.inkscape.org/namespaces/inkscape"
   xmlns:sodipodi="http://sodipodi.sourceforge.net/DTD/sodipodi-0.dtd"
   xmlns="http://www.w3.org/2000/svg"
   xmlns:svg="http://www.w3.org/2000/svg"
   xmlns:rdf="http://www.w3.org/1999/02/22-rdf-syntax-ns#"
   xmlns:cc="http://creativecommons.org/ns#"
   xmlns:dc="http://purl.org/dc/elements/1.1/">
  <sodipodi:namedview
     id="namedview1"
     pagecolor="#ffffff"
     bordercolor="#000000"
     borderopacity="0.25"
     inkscape:showpageshadow="2"
     inkscape:pageopacity="0.0"
     inkscape:pagecheckerboard="0"
     inkscape:deskcolor="#d1d1d1"
     inkscape:document-units="mm"
     inkscape:zoom="5.5893599"
     inkscape:cx="65.03428"
     inkscape:cy="67.181217"
     inkscape:window-width="1728"
     inkscape:window-height="1048"
     inkscape:window-x="0"
     inkscape:window-y="0"
     inkscape:window-maximized="1"
     inkscape:current-layer="svg974"
     showgrid="true">
    <inkscape:grid
       id="grid1"
       units="mm"
       originx="0"
       originy="0"
       spacingx="0.99999998"
       spacingy="0.99999998"
       empcolor="#0099e5"
       empopacity="0.30196078"
       color="#0099e5"
       opacity="0.14901961"
       empspacing="5"
       enabled="true"
       visible="true" />
  </sodipodi:namedview>
  <defs
     id="defs968">
    <clipPath
       clipPathUnits="userSpaceOnUse"
       id="clipPath18689">
      <rect
         clip-path="none"
         transform="rotate(45)"
         ry="32.000008"
         rx="32.000008"
         y="123.9986"
         x="486.03726"
         height="362.94299"
         width="362.94299"
         id="rect18691"
         style="display:inline;opacity:1;vector-effect:none;fill:#4a86cf;fill-opacity:1;stroke:none;stroke-width:26.0669;stroke-linecap:butt;stroke-linejoin:miter;stroke-miterlimit:4;stroke-dasharray:none;stroke-dashoffset:0;stroke-opacity:1;marker:none;marker-start:none;marker-mid:none;marker-end:none;paint-order:normal;enable-background:new" />
    </clipPath>
    <clipPath
       clipPathUnits="userSpaceOnUse"
       id="clipPath18689-3">
      <rect
         clip-path="none"
         transform="rotate(45)"
         ry="32.000008"
         rx="32.000008"
         y="123.9986"
         x="486.03726"
         height="362.94299"
         width="362.94299"
         id="rect18691-6"
         style="display:inline;opacity:1;vector-effect:none;fill:#4a86cf;fill-opacity:1;stroke:none;stroke-width:26.0669;stroke-linecap:butt;stroke-linejoin:miter;stroke-miterlimit:4;stroke-dasharray:none;stroke-dashoffset:0;stroke-opacity:1;marker:none;marker-start:none;marker-mid:none;marker-end:none;paint-order:normal;enable-background:new" />
    </clipPath>
  </defs>
  <metadata
     id="metadata971">
    <rdf:RDF>
      <cc:Work
         rdf:about="">
        <dc:format>image/svg+xml</dc:format>
        <dc:type
           rdf:resource="http://purl.org/dc/dcmitype/StillImage" />
      </cc:Work>
    </rdf:RDF>
  </metadata>
  <rect
     style="display:inline;fill:#525955;fill-opacity:1;stroke-width:0.245329"
     id="rect2"
     width="27.816999"
     height="27.816999"
     x="3.175"
     y="3.204"
     rx="3.0327072"
     ry="3.0327439"
     inkscape:label="Grey" />
  <rect
     style="display:inline;fill:#7a847f;fill-opacity:1;stroke-width:0.238258"
     id="rect3"
     width="27.316999"
     height="26.716999"
     x="3.375"
     y="3.4749999"
     rx="2.9781952"
     ry="2.9128168"
     inkscape:label="Green" />
  <path
     d="m 15.260389,0.9683901 c 0.02808,2.95e-5 0.05607,6.69e-5 0.08497,1.019e-4 0.03205,-3.5e-5 0.06419,-1.019e-4 0.09724,-1.394e-4 0.05322,1.742e-4 0.05322,1.742e-4 0.107482,2.68e-4 0.03716,-5.5e-6 0.07425,-8.1e-6 0.112543,-1.61e-5 0.123402,2.41e-5 0.246808,2.68e-4 0.370213,5.36e-4 0.08528,6.96e-5 0.170609,1.044e-4 0.255917,1.393e-4 0.22502,1.395e-4 0.450044,5.36e-4 0.675067,8.04e-4 0.229421,2.679e-4 0.458838,5.36e-4 0.688259,5.36e-4 0.450516,2.679e-4 0.901035,8.039e-4 1.351552,0.00163 3.6e-5,0.042354 1.08e-4,0.084708 1.45e-4,0.1283454 0.0012,1.0067519 0.0032,2.0134985 0.006,3.0202477 3.58e-4,0.1240763 6.91e-4,0.2481525 0.001,0.3722289 7.3e-5,0.024681 1.47e-4,0.049398 2.17e-4,0.074847 0.0011,0.3992581 0.0017,0.7985137 0.0021,1.1977745 4.71e-4,0.4100744 0.0014,0.8201405 0.0028,1.230212 8.03e-4,0.230165 0.0013,0.4603249 0.0013,0.6904899 -2.7e-5,0.2168622 6.65e-4,0.4337083 0.0017,0.650565 2.77e-4,0.079379 3.87e-4,0.1587541 1.81e-4,0.2381298 -9.15e-4,0.4082626 0.0037,0.7643638 0.165131,1.1473246 0.02452,0.069332 0.0488,0.1387544 0.07253,0.2083384 0.02396,0 0.04784,0 0.07251,0 0.03798,0.0465 0.07388,0.09456 0.108775,0.143231 0.195905,0.24819 0.446641,0.378968 0.761431,0.447057 0.119545,0.01017 0.238095,0.0113 0.358056,0.01085 0.03073,5.36e-4 0.06141,0.0011 0.09308,0.0016 0.46557,2.69e-4 0.87253,-0.204767 1.223588,-0.486325 0.06568,-0.04707 0.06568,-0.04707 0.138235,-0.04707 0.01235,-0.02792 0.01235,-0.02792 0.02491,-0.05642 0.07438,-0.128945 0.178176,-0.2347499 0.278453,-0.3456007 0.08285,-0.092972 0.154304,-0.179397 0.204242,-0.2924324 0.02396,0 0.04783,0 0.07248,0 0.0105,-0.03151 0.0209,-0.063021 0.0317,-0.095484 0.03228,-0.089305 0.06672,-0.1688752 0.113309,-0.2517401 0.02396,0 0.04784,0 0.07253,0 0.0048,-0.020395 0.0096,-0.04082 0.01531,-0.06185 0.04074,-0.1498065 0.100733,-0.2944938 0.168266,-0.4349925 0.134779,-0.2857326 0.218546,-0.5809923 0.302781,-0.8834582 0.06723,-0.2394883 0.146202,-0.4714758 0.238833,-0.7030801 0.02396,0 0.04782,0 0.07252,0 0.0052,-0.02961 0.0052,-0.02961 0.01092,-0.059811 0.08853,-0.2760555 0.373021,-0.4960318 0.621354,-0.6411532 0.334326,-0.1628945 0.700657,-0.1895326 1.060564,-0.082467 0.221933,0.086762 0.396277,0.2314327 0.555208,0.4014852 0.0119,0.034371 0.02393,0.068751 0.03623,0.1041673 0.02399,0 0.04784,0 0.07252,0 0.739458,0.9457762 0.837425,2.2696399 0.681835,3.4027037 -0.111625,0.707573 -0.35486,1.378949 -0.609317,2.048784 -0.01718,0.04566 -0.01718,0.04566 -0.0347,0.09224 -0.09567,0.254365 -0.199184,0.503173 -0.318169,0.748424 -0.289625,0.609337 -0.555844,1.273701 -0.662426,1.937159 -0.0037,0.02346 -0.0073,0.04699 -0.01155,0.07121 -0.06049,0.386583 -0.07015,0.755772 -0.02469,1.144109 0.0031,0.02617 0.0058,0.05237 0.0088,0.07932 0.100864,0.813791 0.420169,1.582243 0.789894,2.316294 0.03787,0.07575 0.07496,0.151832 0.111894,0.227989 0.146921,0.301724 0.298822,0.599302 0.466599,0.890976 0.07644,0.134565 0.137962,0.26824 0.192006,0.412396 0.03909,0.100328 0.08806,0.195519 0.136818,0.291846 0.279632,0.564653 0.522085,1.144512 0.729031,1.737045 0.03098,0.08826 0.06264,0.176272 0.0944,0.264266 0.240044,0.669409 0.435032,1.344525 0.552093,2.043904 0.0052,0.03176 0.01098,0.06351 0.01658,0.09625 0.146308,0.878464 0.185146,1.843087 -0.01658,2.71632 -0.0052,0.02485 -0.01087,0.04965 -0.01642,0.07521 -0.105114,0.473178 -0.297321,0.886349 -0.539311,1.308416 -0.06274,0.106035 -0.06274,0.106035 -0.09684,0.213628 -0.02399,0 -0.04787,0 -0.07252,0 -0.0031,0.01765 -0.0064,0.03526 -0.0098,0.05344 -0.03671,0.120447 -0.09443,0.229733 -0.15297,0.341532 -0.01899,0.03633 -0.01899,0.03633 -0.03838,0.07337 -0.09239,0.17303 -0.192622,0.339898 -0.30152,0.503887 -0.01378,0.02102 -0.02761,0.042 -0.04188,0.06366 -0.03379,0.0496 -0.07054,0.09736 -0.107713,0.144668 -0.02393,0 -0.04784,0 -0.07253,0 -0.0082,0.0195 -0.01723,0.039 -0.0261,0.05911 -0.05712,0.09804 -0.126835,0.165772 -0.209621,0.245269 -0.0321,0.03089 -0.06433,0.06177 -0.09747,0.0936 -0.05052,0.04793 -0.05052,0.04793 -0.101986,0.09685 -0.03366,0.03248 -0.06729,0.06501 -0.101986,0.09846 -0.0321,0.03072 -0.06433,0.06142 -0.09747,0.09307 -0.02953,0.02821 -0.05905,0.05642 -0.0895,0.08548 -0.07365,0.06154 -0.07365,0.06154 -0.146169,0.06154 0,0.0229 0,0.04584 0,0.06944 -0.19622,0.138895 -0.19622,0.138895 -0.290068,0.138895 0,0.0229 0,0.04583 0,0.06944 -1.117208,0.829026 -2.514876,1.087225 -3.879667,1.250023 -0.03198,0.0038 -0.06407,0.0076 -0.097,0.01167 -0.952893,0.111987 -1.907106,0.138104 -2.86582,0.136558 -0.14803,-1.75e-4 -0.29606,-1.1e-5 -0.444091,1.04e-4 -0.248247,1.38e-4 -0.496491,-3.1e-5 -0.744741,-2.67e-4 -0.283569,-2.7e-4 -0.567137,-2.45e-4 -0.850708,1.4e-4 -0.247118,2.67e-4 -0.494236,2.67e-4 -0.741355,1.72e-4 -0.145993,-1.04e-4 -0.291983,-1.38e-4 -0.437974,1.04e-4 -0.96332,0.0013 -1.921147,-0.03248 -2.878407,-0.144019 -0.02608,-0.0029 -0.05205,-0.0058 -0.07889,-0.0089 -0.956728,-0.108919 -1.904842,-0.23693 -2.7900616,-0.620402 -0.023048,-0.0098 -0.0461,-0.01982 -0.069848,-0.03007 C 9.1858588,31.43116 8.8356172,31.216553 8.488038,30.972774 8.452096,30.947714 8.416153,30.922644 8.3791204,30.896824 8.2173807,30.780327 8.2173807,30.780327 8.1619164,30.729721 c 0,-0.0229 0,-0.04585 0,-0.06944 -0.023927,0 -0.047859,0 -0.072517,0 0,-0.0229 0,-0.04584 0,-0.06944 -0.02393,0 -0.04786,0 -0.072517,0 0,-0.0229 0,-0.04582 0,-0.06944 -0.019444,-0.0071 -0.038884,-0.01433 -0.058919,-0.02169 -0.1194636,-0.06623 -0.2164142,-0.153591 -0.3036651,-0.256082 0,-0.0229 0,-0.04585 0,-0.06944 -0.02393,0 -0.04786,0 -0.072517,0 0,-0.0229 0,-0.04584 0,-0.06944 -0.02393,0 -0.04786,0 -0.072517,0 0,-0.0229 0,-0.04583 0,-0.06945 -0.02393,0 -0.047859,0 -0.072517,0 -0.054671,-0.05833 -0.054671,-0.05833 -0.1133081,-0.13455 -0.019541,-0.02498 -0.039073,-0.04996 -0.0592,-0.07568 -0.045042,-0.06753 -0.045042,-0.06753 -0.045042,-0.136993 -0.023927,0 -0.04786,0 -0.072517,0 -0.065422,-0.08351 -0.1261591,-0.166762 -0.1858254,-0.253909 -0.016968,-0.02397 -0.033932,-0.04793 -0.051412,-0.07263 -0.02405,-0.03474 -0.02405,-0.03474 -0.04858,-0.07018 -0.014728,-0.02129 -0.029458,-0.04256 -0.044633,-0.06445 -0.032134,-0.05964 -0.032134,-0.05964 -0.032134,-0.163803 -0.02393,0 -0.047858,0 -0.072517,0 -0.5418508,-1.014854 -0.85121,-2.044507 -0.8413501,-3.187023 6.65e-4,-0.07919 7.483e-4,-0.158387 7.483e-4,-0.237591 0.00108,-0.482734 0.022215,-0.961597 0.1041729,-1.43876 0.00627,-0.0367 0.012493,-0.07336 0.018928,-0.111171 0.1233278,-0.691427 0.3193844,-1.394183 0.6088009,-2.039475 0.042508,-0.111568 0.08234,-0.223982 0.1223733,-0.336381 0.094982,-0.262699 0.197081,-0.519691 0.3127301,-0.774752 0.022854,-0.05225 0.045653,-0.104511 0.068411,-0.156796 0.2502773,-0.571783 0.5321741,-1.128104 0.8183677,-1.684063 0.5902767,-1.147025 0.5902767,-1.147025 0.9986691,-2.36061 0.010981,-0.04144 0.021966,-0.08288 0.033281,-0.1256 0.2765258,-1.156229 0.019158,-2.325974 -0.4934125,-3.385356 -0.0871,-0.183816 -0.1654969,-0.371077 -0.2446477,-0.558131 -0.017512,-0.04135 -0.035025,-0.0827 -0.05307,-0.125329 -0.2965773,-0.70294 -0.5779035,-1.413046 -0.728757,-2.159872 -0.00647,-0.03113 -0.012915,-0.06226 -0.019566,-0.09431 -0.06373,-0.34368 -0.067314,-0.6840816 -0.066549,-1.0320113 -6.9e-6,-0.045994 -6.9e-6,-0.045994 -1.34e-5,-0.092922 0.00104,-0.4731379 0.027617,-0.9262539 0.1587152,-1.3849707 0.011312,-0.040729 0.022622,-0.081463 0.034277,-0.1234277 0.07907,-0.2500821 0.2004592,-0.4797407 0.3283104,-0.709922 0.023927,0 0.047859,0 0.072517,0 0.01047,-0.026477 0.020939,-0.052994 0.031724,-0.080294 0.040793,-0.093317 0.040793,-0.093317 0.1133078,-0.1974867 0.02393,0 0.047862,0 0.072517,0 0,-0.022913 0,-0.045837 0,-0.069447 0.02393,0 0.047859,0 0.072517,0 0.00866,-0.020153 0.017292,-0.040283 0.026203,-0.061034 0.2420498,-0.4069029 0.8784738,-0.6120485 1.3207477,-0.7344873 1.2671685,-0.293148 2.6446735,0.084771 3.7655135,0.6566161 0.03495,0.0175 0.0698,0.035001 0.105801,0.053033 0.146077,0.074594 0.289057,0.1523973 0.429437,0.2364173 0.02396,0.014203 0.04782,0.028379 0.0725,0.043005 0.04679,0.02789 0.09334,0.056148 0.1396,0.084821 0.182073,0.1085707 0.346107,0.1600085 0.562493,0.1144208 0.205412,-0.089804 0.312259,-0.1907439 0.394313,-0.3928051 0.08335,-0.2863571 0.08337,-0.5722264 0.08346,-0.8674028 2.79e-4,-0.051652 6.09e-4,-0.1033017 9.14e-4,-0.1549513 6.65e-4,-0.1105133 0.001,-0.2210214 0.0013,-0.3315347 4.16e-4,-0.1746324 0.0013,-0.3492594 0.0022,-0.5238893 0.0014,-0.2759001 0.0026,-0.5518002 0.0035,-0.8277029 0.0018,-0.4950616 0.0039,-0.9901205 0.0064,-1.4851768 8.87e-4,-0.1737561 0.0015,-0.3475095 0.0021,-0.5212682 3.6e-4,-0.1076673 8.85e-4,-0.2153345 0.0014,-0.3230021 2.25e-4,-0.050096 3.89e-4,-0.1001987 4.96e-4,-0.1502961 1.41e-4,-0.068095 4.97e-4,-0.1361813 8.87e-4,-0.2042693 1.4e-4,-0.038183 2.75e-4,-0.076364 4.17e-4,-0.1157017 0.0064,-0.1176231 0.0064,-0.1176231 0.104998,-0.1241942 z"
     fill="#FEFEFE"
     id="path1"
     style="display:none;fill:#4a3f10;fill-opacity:1;stroke-width:0.0354822;enable-background:new"
     inkscape:label="Guitar" />
  <path
     d="m 15.339589,1.2684234 c 0.02679,2.91e-5 0.05357,6.61e-5 0.08117,1.005e-4 0.03065,-3.44e-5 0.06129,-1.005e-4 0.09287,-1.376e-4 0.05082,1.72e-4 0.05082,1.72e-4 0.102668,2.646e-4 0.03547,-5.3e-6 0.07095,-7.9e-6 0.107501,-1.59e-5 0.117877,2.39e-5 0.235753,2.646e-4 0.353631,5.292e-4 0.08148,6.88e-5 0.162968,1.032e-4 0.244453,1.376e-4 0.214944,1.376e-4 0.429888,5.292e-4 0.644832,7.937e-4 0.219143,2.646e-4 0.438286,5.292e-4 0.65743,5.292e-4 0.430339,2.646e-4 0.860677,7.938e-4 1.291015,0.00159 3.5e-5,0.041815 1.04e-4,0.083632 1.39e-4,0.1267143 0.0012,0.9939575 0.0032,1.9879098 0.006,2.9818647 3.43e-4,0.1224994 6.61e-4,0.2449988 0.001,0.3674983 6.9e-5,0.024368 1.38e-4,0.048771 2.07e-4,0.073896 0.0011,0.3941841 0.0017,0.7883657 0.0021,1.1825525 4.5e-4,0.4048628 0.0014,0.8097176 0.0028,1.2145777 7.68e-4,0.2272401 0.0013,0.4544748 0.0013,0.6817148 -2.5e-5,0.2141062 6.35e-4,0.4281964 0.0017,0.6422972 2.65e-4,0.07837 3.71e-4,0.1567366 1.73e-4,0.2351035 -8.73e-4,0.4030742 0.0037,0.7546499 0.157733,1.1327446 0.02342,0.06845 0.0466,0.1369907 0.06927,0.2056897 0.02286,0 0.04572,0 0.06927,0 0.03628,0.04591 0.07058,0.09336 0.103904,0.141412 0.18713,0.245036 0.426634,0.374152 0.727325,0.441375 0.114189,0.01005 0.227429,0.01114 0.342016,0.01072 0.02933,5.29e-4 0.05867,0.0011 0.08889,0.0016 0.444716,2.65e-4 0.833449,-0.202165 1.16878,-0.480145 0.06278,-0.04647 0.06278,-0.04647 0.132044,-0.04647 0.01178,-0.02756 0.01178,-0.02756 0.02381,-0.0557 0.07108,-0.127307 0.170194,-0.2317667 0.265982,-0.3412087 0.07915,-0.091792 0.147389,-0.1771174 0.19509,-0.288716 0.02286,0 0.04572,0 0.06927,0 0.01,-0.03111 0.02,-0.062222 0.0303,-0.094274 0.03084,-0.088172 0.06372,-0.1667298 0.108233,-0.2485416 0.02286,0 0.04572,0 0.06927,0 0.0048,-0.020135 0.0096,-0.040301 0.01461,-0.061063 0.03894,-0.1479027 0.09623,-0.2907512 0.16073,-0.4294643 0.12874,-0.2821014 0.208754,-0.5736088 0.289218,-0.8722307 0.06423,-0.2364449 0.139653,-0.4654841 0.228135,-0.694145 0.02286,0 0.04572,0 0.06927,0 0.0052,-0.029234 0.0052,-0.029234 0.01042,-0.059052 0.08454,-0.2725473 0.356312,-0.4897279 0.593522,-0.6330051 0.319353,-0.1608243 0.669275,-0.1871239 1.013061,-0.08142 0.211993,0.085659 0.378527,0.2284915 0.530342,0.3963829 0.0114,0.033935 0.02283,0.067876 0.03463,0.1028435 0.02289,0 0.04572,0 0.06927,0 0.706337,0.9337569 0.799914,2.2407959 0.651293,3.359462 -0.106624,0.698582 -0.338963,1.361424 -0.582025,2.022747 -0.01638,0.04509 -0.01638,0.04509 -0.03311,0.09108 -0.09137,0.251132 -0.190262,0.496779 -0.303916,0.738913 -0.276653,0.601593 -0.530948,1.257514 -0.632756,1.91254 -0.0037,0.02318 -0.0073,0.04639 -0.01105,0.07029 -0.05779,0.381669 -0.06701,0.746167 -0.02359,1.129569 0.0031,0.02585 0.0058,0.05169 0.0088,0.07832 0.09636,0.803449 0.401349,1.562134 0.754515,2.286857 0.03617,0.07479 0.07158,0.149902 0.106881,0.225092 0.14034,0.297889 0.285438,0.591685 0.445701,0.879652 0.07304,0.132855 0.131781,0.264832 0.183404,0.407154 0.03735,0.09905 0.08414,0.193035 0.13069,0.288139 0.267105,0.557477 0.4987,1.129967 0.696378,1.714968 0.02958,0.08714 0.05984,0.174033 0.0902,0.260909 0.22929,0.660902 0.415544,1.327438 0.527362,2.017929 0.0052,0.03136 0.01048,0.06271 0.01587,0.09501 0.139755,0.867299 0.176853,1.819664 -0.01587,2.681801 -0.0052,0.02453 -0.01037,0.04901 -0.01572,0.07425 -0.100407,0.467164 -0.284004,0.875085 -0.515155,1.291788 -0.05994,0.104688 -0.05994,0.104688 -0.09254,0.210913 -0.02289,0 -0.04572,0 -0.06927,0 -0.0031,0.01741 -0.0064,0.03482 -0.0098,0.05276 -0.03509,0.118917 -0.09023,0.226814 -0.146117,0.337193 -0.01815,0.03586 -0.01815,0.03586 -0.03668,0.07245 -0.08829,0.170831 -0.183994,0.335579 -0.288017,0.497483 -0.01318,0.02074 -0.02641,0.04148 -0.03998,0.06286 -0.03229,0.04896 -0.06735,0.09612 -0.102889,0.14283 -0.02283,0 -0.04571,0 -0.06927,0 -0.0082,0.01926 -0.01643,0.03852 -0.0249,0.05835 -0.05453,0.0968 -0.121155,0.163664 -0.200231,0.24215 -0.0307,0.03049 -0.06143,0.06098 -0.09308,0.0924 -0.04822,0.04733 -0.04822,0.04733 -0.09741,0.09561 -0.03216,0.03208 -0.06429,0.06417 -0.09741,0.09722 -0.0307,0.03032 -0.06143,0.06063 -0.09308,0.09187 -0.02823,0.02785 -0.05643,0.0557 -0.0855,0.0844 -0.07035,0.06076 -0.07035,0.06076 -0.139623,0.06076 0,0.02262 0,0.04525 0,0.06856 -0.187431,0.137129 -0.187431,0.137129 -0.277075,0.137129 0,0.02262 0,0.04525 0,0.06856 -1.067168,0.818491 -2.402233,1.073409 -3.705891,1.234138 -0.03058,0.0038 -0.06117,0.0076 -0.09267,0.01151 -0.910212,0.110564 -1.821685,0.136348 -2.737456,0.134821 -0.1414,-1.72e-4 -0.2828,-1.1e-5 -0.4242,1.03e-4 -0.237128,1.38e-4 -0.474254,-3.2e-5 -0.711381,-2.64e-4 -0.270869,-2.65e-4 -0.541734,-2.41e-4 -0.812603,1.37e-4 -0.236051,2.65e-4 -0.472101,2.65e-4 -0.708152,1.72e-4 -0.139453,-1.03e-4 -0.278904,-1.37e-4 -0.418357,1.01e-4 -0.92017,0.0013 -1.835095,-0.03208 -2.749477,-0.142187 -0.02488,-0.0029 -0.04975,-0.0058 -0.07539,-0.0089 -0.913873,-0.107533 -1.81952,-0.233917 -2.66509,-0.612517 -0.02202,-0.0098 -0.04403,-0.01958 -0.06672,-0.02968 -0.3750201,-0.169114 -0.709574,-0.380995 -1.0415845,-0.621675 -0.034333,-0.02474 -0.068666,-0.04949 -0.1040392,-0.07499 -0.1546916,-0.115015 -0.1546916,-0.115015 -0.2076715,-0.164979 0,-0.02262 0,-0.04525 0,-0.06856 -0.022857,0 -0.045718,0 -0.069269,0 0,-0.02262 0,-0.04525 0,-0.06856 -0.02286,0 -0.045718,0 -0.069269,0 0,-0.02262 0,-0.04525 0,-0.06856 -0.018574,-0.0071 -0.037145,-0.01413 -0.056281,-0.02141 -0.1141126,-0.06539 -0.2067208,-0.151635 -0.2900635,-0.252825 0,-0.02262 0,-0.04526 0,-0.06856 -0.02286,0 -0.045718,0 -0.069269,0 0,-0.02262 0,-0.04525 0,-0.06856 -0.02286,0 -0.045718,0 -0.069269,0 0,-0.02262 0,-0.04525 0,-0.06857 -0.02286,0 -0.045717,0 -0.069269,0 -0.052222,-0.05758 -0.052222,-0.05758 -0.1082329,-0.132839 -0.018664,-0.02466 -0.037324,-0.04932 -0.056551,-0.07472 -0.043023,-0.06669 -0.043023,-0.06669 -0.043023,-0.135252 -0.022857,0 -0.045718,0 -0.069269,0 -0.062494,-0.08244 -0.1205084,-0.164642 -0.1775021,-0.250682 -0.016208,-0.02365 -0.032413,-0.04733 -0.049111,-0.07171 -0.022971,-0.0343 -0.022971,-0.0343 -0.046404,-0.0693 -0.014068,-0.02101 -0.028139,-0.04201 -0.042634,-0.06365 -0.030695,-0.05888 -0.030695,-0.05888 -0.030695,-0.161722 -0.02286,0 -0.045717,0 -0.069269,0 -0.5176377,-1.001955 -0.8131402,-2.018524 -0.8037218,-3.14652 6.35e-4,-0.07819 7.143e-4,-0.156374 7.143e-4,-0.234571 0.00108,-0.4766 0.021222,-0.949376 0.099507,-1.420477 0.00597,-0.03622 0.011933,-0.07244 0.018079,-0.109757 0.1178036,-0.682641 0.3050786,-1.376466 0.581532,-2.013558 0.040605,-0.110149 0.078652,-0.221134 0.1168918,-0.332105 0.090727,-0.259361 0.1882534,-0.513086 0.2987225,-0.764908 0.021833,-0.05158 0.043609,-0.103182 0.065346,-0.154803 0.2390669,-0.564517 0.5083373,-1.113768 0.7817117,-1.66266 0.5638376,-1.132448 0.5638376,-1.132448 0.9539374,-2.330611 0.010491,-0.04092 0.020984,-0.08184 0.031792,-0.124002 0.2641397,-1.141535 0.018299,-2.296414 -0.4713121,-3.342334 -0.0832,-0.18148 -0.158084,-0.36636 -0.2336895,-0.551039 -0.01673,-0.04083 -0.033456,-0.08166 -0.050692,-0.123735 -0.2832933,-0.694007 -0.5520184,-1.39509 -0.696115,-2.132423 -0.00617,-0.03073 -0.012335,-0.06146 -0.018687,-0.09311 -0.060875,-0.339312 -0.064299,-0.675388 -0.06357,-1.0188965 -6.4e-6,-0.045413 -6.4e-6,-0.045413 -1.25e-5,-0.091742 9.261e-4,-0.4671246 0.026313,-0.9144821 0.1515388,-1.3673693 0.010803,-0.040211 0.021611,-0.080428 0.032741,-0.1218592 0.075531,-0.2469039 0.1914805,-0.4736438 0.313605,-0.7008997 0.022857,0 0.045718,0 0.069269,0 0.01,-0.026141 0.02,-0.052321 0.030305,-0.079275 0.038964,-0.092131 0.038964,-0.092131 0.1082326,-0.1949768 0.02286,0 0.045718,0 0.069269,0 0,-0.022622 0,-0.045254 0,-0.068564 0.02286,0 0.045717,0 0.069269,0 0.00826,-0.019897 0.016518,-0.039772 0.02503,-0.060259 0.231208,-0.4017169 0.8391258,-0.6042554 1.2615895,-0.7251383 1.21041,-0.2894224 2.526214,0.083693 3.596849,0.6482715 0.03335,0.017277 0.0667,0.034557 0.101062,0.052358 0.139537,0.073647 0.276111,0.1504606 0.410203,0.2334128 0.02286,0.014023 0.04571,0.028019 0.06926,0.042458 0.04469,0.027535 0.08915,0.055433 0.133346,0.083743 0.173917,0.1071907 0.330606,0.1579748 0.5373,0.1129665 0.196209,-0.088662 0.298271,-0.1883198 0.37665,-0.387813 0.07965,-0.2827179 0.07967,-0.5649542 0.07976,-0.8563795 2.65e-4,-0.050996 5.82e-4,-0.1019889 8.73e-4,-0.1529821 6.35e-4,-0.1091088 0.001,-0.2182124 0.0013,-0.3273213 3.97e-4,-0.1724131 0.0013,-0.3448209 0.0022,-0.5172313 0.0014,-0.2723938 0.0026,-0.5447877 0.0035,-0.8171841 0.0018,-0.4887701 0.0039,-0.9775375 0.0064,-1.4663023 8.47e-4,-0.1715479 0.0015,-0.3430932 0.0021,-0.5146437 3.44e-4,-0.106299 8.47e-4,-0.212598 0.0014,-0.318897 2.15e-4,-0.049461 3.71e-4,-0.098925 4.76e-4,-0.1483863 1.32e-4,-0.067228 4.77e-4,-0.1344506 8.47e-4,-0.2016733 1.32e-4,-0.037698 2.65e-4,-0.075393 3.97e-4,-0.1142312 0.0064,-0.1161283 0.0064,-0.1161283 0.100295,-0.1226159 z"
     fill="#FEFEFE"
     id="path3"
     style="display:inline;fill:#f8f4e2;fill-opacity:1;stroke-width:0.10583333;enable-background:new;stroke:#4a3f10;stroke-opacity:1;stroke-dasharray:none;stroke-linejoin:round;stroke-linecap:round"
     inkscape:label="Guitar" />
</svg>
