<?xml version="1.0" encoding="UTF-8" standalone="no"?>
<svg
   height="114"
   viewBox="0 0 114 114"
   width="114"
   version="1.1"
   id="svg2"
   sodipodi:docname="nl.desbeers.chordprovider-welcome.svg"
   inkscape:version="1.4.3 (0d15f75042, 2025-12-25)"
   xmlns:inkscape="http://www.inkscape.org/namespaces/inkscape"
   xmlns:sodipodi="http://sodipodi.sourceforge.net/DTD/sodipodi-0.dtd"
   xmlns="http://www.w3.org/2000/svg"
   xmlns:svg="http://www.w3.org/2000/svg">
  <defs
     id="defs2">
    <inkscape:path-effect
       effect="powermask"
       id="path-effect11"
       is_visible="true"
       lpeversion="1"
       uri="#mask-powermask-path-effect11"
       invert="false"
       hide_mask="false"
       background="true"
       background_color="#ffffffff" />
    <inkscape:path-effect
       effect="powerclip"
       message=""
       id="path-effect9"
       is_visible="true"
       lpeversion="1"
       inverse="true"
       flatten="false"
       hide_clip="false" />
    <inkscape:path-effect
       effect="powerclip"
       message=""
       id="path-effect7"
       is_visible="true"
       lpeversion="1"
       inverse="true"
       flatten="false"
       hide_clip="false" />
    <inkscape:path-effect
       effect="powerclip"
       message=""
       id="path-effect4"
       is_visible="true"
       lpeversion="1"
       inverse="true"
       flatten="false"
       hide_clip="false" />
    <inkscape:path-effect
       effect="powerclip"
       message=""
       id="path-effect10"
       is_visible="true"
       lpeversion="1"
       inverse="true"
       flatten="false"
       hide_clip="false" />
    <inkscape:path-effect
       effect="powerclip"
       message=""
       id="path-effect5"
       is_visible="true"
       lpeversion="1"
       inverse="true"
       flatten="false"
       hide_clip="false" />
    <inkscape:path-effect
       effect="powerclip"
       message=""
       id="path-effect3"
       is_visible="true"
       lpeversion="1"
       inverse="true"
       flatten="false"
       hide_clip="false" />
    <clipPath
       clipPathUnits="userSpaceOnUse"
       id="clipPath9">
      <path
         id="path9"
         style="display:none;fill:#ffffff;fill-opacity:1;stroke:none;stroke-width:0.881995;stroke-dasharray:none;stroke-opacity:1;enable-background:new"
         inkscape:label="Mask"
         d="M 86.490234,-20 C 79.571068,-20 74,-14.269149 74,-7.1503906 V 27.150391 C 74,34.269149 79.571068,40 86.490234,40 H 121.50977 C 128.42893,40 134,34.269149 134,27.150391 V -7.1503906 C 134,-14.269149 128.42893,-20 121.50977,-20 Z M 52.001953,13.609375 v 20.021484 h 0.0332 c -7.3e-5,0.02099 4.4e-5,0.04151 0,0.0625 -7.11e-4,0.106621 5.03e-4,0.213695 0,0.320313 -0.0015,0.22914 -0.0032,0.45641 -0.0039,0.685547 -0.0013,0.369796 -0.0039,0.739584 -0.0059,1.109375 -0.0057,1.053585 -0.0095,2.108514 -0.01367,3.162109 -0.0019,0.58718 -0.0043,1.174545 -0.0078,1.761719 -0.002,0.371649 -0.0052,0.743579 -0.0059,1.115234 -0.0015,0.235197 -0.0025,0.469882 -0.0039,0.705078 -6e-4,0.109923 -0.0013,0.220151 -0.002,0.330078 -2.08e-4,0.628198 -0.0011,1.236275 -0.185547,1.845704 -0.181539,0.430029 -0.416635,0.644818 -0.871094,0.835937 -0.478737,0.09702 -0.843271,-0.01308 -1.246094,-0.244141 -0.102369,-0.06103 -0.205089,-0.120327 -0.308594,-0.179687 -0.05455,-0.03112 -0.107256,-0.06158 -0.160156,-0.0918 -0.310583,-0.178812 -0.626029,-0.345151 -0.949219,-0.503906 -0.0796,-0.03837 -0.157115,-0.07604 -0.234375,-0.113281 -2.479787,-1.21701 -5.528507,-2.020366 -8.332031,-1.396485 -0.978503,0.260577 -2.386357,0.696556 -2.921875,1.5625 -0.01973,0.04416 -0.03764,0.08796 -0.05664,0.13086 H 36.566406 V 44.875 h -0.162109 c -0.160437,0.221696 -0.15975,0.223277 -0.25,0.421875 -0.02386,0.0581 -0.04713,0.113572 -0.07031,0.169922 h -0.160156 c -0.282863,0.489875 -0.551618,0.979491 -0.726562,1.511719 -0.02578,0.08931 -0.05115,0.175038 -0.07617,0.261718 -0.290051,0.976247 -0.34751,1.940329 -0.34961,2.947266 v 0.199219 c -0.0017,0.740468 0.0055,1.463888 0.146485,2.195312 0.01471,0.06822 0.02867,0.134932 0.04297,0.201172 0.333755,1.5894 0.957123,3.099699 1.613281,4.595703 0.03992,0.09071 0.07845,0.179568 0.117187,0.267578 0.175118,0.398096 0.348307,0.796301 0.541016,1.1875 1.134033,2.254592 1.703593,4.744379 1.091797,7.205078 -0.02504,0.09089 -0.05001,0.179379 -0.07422,0.267579 -0.903541,2.582769 -0.903033,2.582324 -2.208984,5.023437 -0.633184,1.183197 -1.256825,2.367106 -1.810547,3.583984 -0.05035,0.11128 -0.101774,0.222804 -0.152344,0.333985 -0.255866,0.542827 -0.481267,1.089356 -0.691406,1.648437 -0.08857,0.239211 -0.177435,0.479354 -0.271485,0.716797 -0.640316,1.373322 -1.072849,2.868348 -1.345703,4.339844 -0.01423,0.08044 -0.02914,0.158218 -0.04297,0.236328 -0.181324,1.015508 -0.227968,2.035136 -0.230468,3.0625 0,0.168561 -5.06e-4,0.337315 -0.002,0.505859 -0.02181,2.431508 0.664339,4.62143 1.863281,6.78125 h 0.160156 c 0,0.221681 -7.84e-4,0.22269 0.07031,0.34961 0.03358,0.0467 0.06702,0.09132 0.09961,0.136719 0.05427,0.07539 0.05421,0.07639 0.107422,0.15039 0.03867,0.05254 0.07574,0.103197 0.113281,0.154297 0.132007,0.18546 0.265409,0.361343 0.410156,0.539063 h 0.16211 c 0,0.14778 -4.2e-5,0.149195 0.09961,0.292968 0.04453,0.0547 0.08763,0.106957 0.13086,0.160157 0.12973,0.16224 0.129043,0.162999 0.25,0.287109 h 0.160156 v 0.146484 h 0.160156 v 0.148438 h 0.160156 v 0.148437 c 0.193036,0.21812 0.407571,0.403982 0.671875,0.544922 0.04433,0.0158 0.08784,0.02962 0.13086,0.04492 v 0.148438 h 0.160156 v 0.148437 h 0.160156 v 0.146485 c 0.122709,0.107699 0.124127,0.109495 0.482422,0.357421 0.08194,0.055 0.160714,0.106857 0.240234,0.160157 0.768996,0.51881 1.543494,0.975293 2.41211,1.339843 0.05255,0.0218 0.103287,0.04315 0.154297,0.06445 1.95849,0.816091 4.057135,1.088533 6.173828,1.320313 0.05939,0.007 0.116228,0.01353 0.173828,0.01953 2.11787,0.237314 4.237862,0.309641 6.36914,0.306641 0.323,-5.2e-4 0.645754,-2.2e-4 0.96875,0 0.546741,2e-4 1.09389,5.7e-4 1.640626,0 0.62738,-8.1e-4 1.25348,-5.6e-4 1.880859,0 0.549228,5e-4 1.099209,3.1e-4 1.648437,0 0.32751,-2.3e-4 0.654919,-3.6e-4 0.982422,0 2.121095,0.003 4.231632,-0.0527 6.339844,-0.291016 0.07296,-0.008 0.144014,-0.01739 0.214844,-0.02539 3.019507,-0.34646 6.112231,-0.895817 8.583984,-2.660157 V 96.53125 c 0.207636,0 0.208455,-0.001 0.642578,-0.296875 v -0.146484 c 0.160444,0 0.159321,1.2e-4 0.322266,-0.13086 0.06734,-0.0619 0.133829,-0.123493 0.199219,-0.183593 0.07332,-0.0673 0.143743,-0.131966 0.214843,-0.197266 0.07671,-0.0713 0.152073,-0.139784 0.226563,-0.208984 0.113949,-0.10407 0.112933,-0.105002 0.224609,-0.207032 0.07332,-0.0678 0.143734,-0.133519 0.214844,-0.199218 0.183158,-0.16918 0.338536,-0.312815 0.464844,-0.521485 0.01963,-0.0428 0.03762,-0.0834 0.05664,-0.125 h 0.16211 c 0.08231,-0.10071 0.163501,-0.203054 0.238281,-0.308594 0.03141,-0.04609 0.06128,-0.09006 0.0918,-0.134765 0.240933,-0.349 0.463459,-0.705979 0.667969,-1.074219 0.04294,-0.07888 0.04196,-0.07895 0.08398,-0.15625 0.129449,-0.23793 0.256631,-0.470223 0.337891,-0.726563 0.0079,-0.03863 0.01624,-0.07568 0.02344,-0.113281 h 0.160156 c 0.07551,-0.22896 0.076,-0.229398 0.214844,-0.455078 0.535388,-0.89824 0.960814,-1.776183 1.193359,-2.783203 0.01241,-0.05439 0.02318,-0.107257 0.03516,-0.160156 0.446413,-1.858425 0.360809,-3.91169 0.03711,-5.78125 -0.01261,-0.06965 -0.02513,-0.137448 -0.03711,-0.205078 -0.258844,-1.488424 -0.689629,-2.924965 -1.220703,-4.34961 -0.07033,-0.187273 -0.140515,-0.374663 -0.208985,-0.5625 -0.457863,-1.261032 -0.994616,-2.495563 -1.613281,-3.697265 -0.107831,-0.205007 -0.216224,-0.40759 -0.302734,-0.621094 -0.119563,-0.306792 -0.254655,-0.59057 -0.423828,-0.876953 -0.371201,-0.620744 -0.708154,-1.254354 -1.033204,-1.896485 -0.08176,-0.162082 -0.164276,-0.32512 -0.248046,-0.486328 -0.817994,-1.562218 -1.522888,-3.195815 -1.746094,-4.927734 -0.0067,-0.05741 -0.0143,-0.114202 -0.02148,-0.169922 -0.100586,-0.826465 -0.07918,-1.612816 0.05469,-2.435547 0.0085,-0.05151 0.01679,-0.100421 0.02539,-0.15039 0.235806,-1.411981 0.826022,-2.826249 1.466796,-4.123047 0.263246,-0.521945 0.491486,-1.050455 0.703125,-1.591797 0.03873,-0.09914 0.03821,-0.100076 0.07617,-0.197266 0.562972,-1.425551 1.102663,-2.853508 1.34961,-4.359375 0.344229,-2.411407 0.126232,-5.229374 -1.509766,-7.242187 h -0.160156 c -0.02729,-0.07538 -0.05369,-0.149517 -0.08008,-0.222657 -0.35163,-0.361909 -0.737502,-0.668869 -1.228516,-0.853515 -0.796264,-0.227856 -1.606021,-0.170893 -2.345703,0.175781 -0.549421,0.308849 -1.179192,0.775776 -1.375,1.363281 -0.0122,0.06427 -0.01341,0.06589 -0.02539,0.128906 h -0.160156 c -0.204943,0.492905 -0.37859,0.986412 -0.527344,1.496094 -0.186368,0.643712 -0.371739,1.270807 -0.669922,1.878906 -0.149393,0.299012 -0.282847,0.606961 -0.373047,0.925782 -0.01172,0.04477 -0.02197,0.0894 -0.0332,0.132812 H 68.81442 c -0.103112,0.176354 -0.180523,0.345098 -0.251953,0.535156 -0.02387,0.06908 -0.04716,0.136075 -0.07031,0.203126 H 68.332 c -0.110483,0.240563 -0.267834,0.425188 -0.451172,0.623046 -0.221863,0.235916 -0.452547,0.459949 -0.617187,0.734375 -0.02783,0.06067 -0.02741,0.06169 -0.05469,0.121094 -0.160417,0 -0.159268,-5.66e-4 -0.304687,0.09961 -0.776692,0.599216 -1.676992,1.035726 -2.707031,1.035157 -0.06999,-0.0012 -0.139112,-0.0028 -0.207032,-0.0039 -0.265403,7.41e-4 -0.526529,-0.0017 -0.791015,-0.02344 -0.696453,-0.144905 -1.25212,-0.422973 -1.685547,-0.951172 -0.07718,-0.103591 -0.156205,-0.205717 -0.240234,-0.304687 h -0.160157 c -0.05252,-0.148088 -0.105936,-0.295799 -0.160156,-0.44336 -0.356731,-0.815023 -0.367234,-1.572535 -0.365234,-2.441406 2.83e-4,-0.168928 -0.0013,-0.338877 -0.002,-0.507812 -0.0028,-0.461518 -0.004,-0.921283 -0.0039,-1.382813 0,-0.489839 -0.0019,-0.980863 -0.0039,-1.470703 -0.0027,-0.87272 -0.0045,-1.744462 -0.0059,-2.617188 -6e-4,-0.849712 -0.0011,-1.701076 -0.0039,-2.550781 -1.58e-4,-0.05416 1.58e-4,-0.105673 0,-0.158203 -7e-4,-0.264061 -0.0032,-0.528908 -0.0039,-0.792969 -0.0066,-2.142576 -0.01087,-4.285152 -0.01367,-6.427734 -8.2e-5,-0.09287 8.2e-5,-0.183308 0,-0.273438 -0.03735,-6.7e-5 -0.07398,6.6e-5 -0.111328,0 V 13.609375 Z" />
      <path
         id="lpe_path-effect9"
         style="display:inline;fill:#ffffff;fill-opacity:1;stroke:none;stroke-width:0.881995;stroke-dasharray:none;stroke-opacity:1;enable-background:new"
         class="powerclip"
         d="M 0,0 H 114 V 114 H 0 Z M 86.490234,-20 C 79.571068,-20 74,-14.269149 74,-7.1503906 V 27.150391 C 74,34.269149 79.571068,40 86.490234,40 H 121.50977 C 128.42893,40 134,34.269149 134,27.150391 V -7.1503906 C 134,-14.269149 128.42893,-20 121.50977,-20 Z M 52.001953,13.609375 v 20.021484 h 0.0332 c -7.3e-5,0.02099 4.4e-5,0.04151 0,0.0625 -7.11e-4,0.106621 5.03e-4,0.213695 0,0.320313 -0.0015,0.22914 -0.0032,0.45641 -0.0039,0.685547 -0.0013,0.369796 -0.0039,0.739584 -0.0059,1.109375 -0.0057,1.053585 -0.0095,2.108514 -0.01367,3.162109 -0.0019,0.58718 -0.0043,1.174545 -0.0078,1.761719 -0.002,0.371649 -0.0052,0.743579 -0.0059,1.115234 -0.0015,0.235197 -0.0025,0.469882 -0.0039,0.705078 -6e-4,0.109923 -0.0013,0.220151 -0.002,0.330078 -2.08e-4,0.628198 -0.0011,1.236275 -0.185547,1.845704 -0.181539,0.430029 -0.416635,0.644818 -0.871094,0.835937 -0.478737,0.09702 -0.843271,-0.01308 -1.246094,-0.244141 -0.102369,-0.06103 -0.205089,-0.120327 -0.308594,-0.179687 -0.05455,-0.03112 -0.107256,-0.06158 -0.160156,-0.0918 -0.310583,-0.178812 -0.626029,-0.345151 -0.949219,-0.503906 -0.0796,-0.03837 -0.157115,-0.07604 -0.234375,-0.113281 -2.479787,-1.21701 -5.528507,-2.020366 -8.332031,-1.396485 -0.978503,0.260577 -2.386357,0.696556 -2.921875,1.5625 -0.01973,0.04416 -0.03764,0.08796 -0.05664,0.13086 H 36.566406 V 44.875 h -0.162109 c -0.160437,0.221696 -0.15975,0.223277 -0.25,0.421875 -0.02386,0.0581 -0.04713,0.113572 -0.07031,0.169922 h -0.160156 c -0.282863,0.489875 -0.551618,0.979491 -0.726562,1.511719 -0.02578,0.08931 -0.05115,0.175038 -0.07617,0.261718 -0.290051,0.976247 -0.34751,1.940329 -0.34961,2.947266 v 0.199219 c -0.0017,0.740468 0.0055,1.463888 0.146485,2.195312 0.01471,0.06822 0.02867,0.134932 0.04297,0.201172 0.333755,1.5894 0.957123,3.099699 1.613281,4.595703 0.03992,0.09071 0.07845,0.179568 0.117187,0.267578 0.175118,0.398096 0.348307,0.796301 0.541016,1.1875 1.134033,2.254592 1.703593,4.744379 1.091797,7.205078 -0.02504,0.09089 -0.05001,0.179379 -0.07422,0.267579 -0.903541,2.582769 -0.903033,2.582324 -2.208984,5.023437 -0.633184,1.183197 -1.256825,2.367106 -1.810547,3.583984 -0.05035,0.11128 -0.101774,0.222804 -0.152344,0.333985 -0.255866,0.542827 -0.481267,1.089356 -0.691406,1.648437 -0.08857,0.239211 -0.177435,0.479354 -0.271485,0.716797 -0.640316,1.373322 -1.072849,2.868348 -1.345703,4.339844 -0.01423,0.08044 -0.02914,0.158218 -0.04297,0.236328 -0.181324,1.015508 -0.227968,2.035136 -0.230468,3.0625 0,0.168561 -5.06e-4,0.337315 -0.002,0.505859 -0.02181,2.431508 0.664339,4.62143 1.863281,6.78125 h 0.160156 c 0,0.221681 -7.84e-4,0.22269 0.07031,0.34961 0.03358,0.0467 0.06702,0.09132 0.09961,0.136719 0.05427,0.07539 0.05421,0.07639 0.107422,0.15039 0.03867,0.05254 0.07574,0.103197 0.113281,0.154297 0.132007,0.18546 0.265409,0.361343 0.410156,0.539063 h 0.16211 c 0,0.14778 -4.2e-5,0.149195 0.09961,0.292968 0.04453,0.0547 0.08763,0.106957 0.13086,0.160157 0.12973,0.16224 0.129043,0.162999 0.25,0.287109 h 0.160156 v 0.146484 h 0.160156 v 0.148438 h 0.160156 v 0.148437 c 0.193036,0.21812 0.407571,0.403982 0.671875,0.544922 0.04433,0.0158 0.08784,0.02962 0.13086,0.04492 v 0.148438 h 0.160156 v 0.148437 h 0.160156 v 0.146485 c 0.122709,0.107699 0.124127,0.109495 0.482422,0.357421 0.08194,0.055 0.160714,0.106857 0.240234,0.160157 0.768996,0.51881 1.543494,0.975293 2.41211,1.339843 0.05255,0.0218 0.103287,0.04315 0.154297,0.06445 1.95849,0.816091 4.057135,1.088533 6.173828,1.320313 0.05939,0.007 0.116228,0.01353 0.173828,0.01953 2.11787,0.237314 4.237862,0.309641 6.36914,0.306641 0.323,-5.2e-4 0.645754,-2.2e-4 0.96875,0 0.546741,2e-4 1.09389,5.7e-4 1.640626,0 0.62738,-8.1e-4 1.25348,-5.6e-4 1.880859,0 0.549228,5e-4 1.099209,3.1e-4 1.648437,0 0.32751,-2.3e-4 0.654919,-3.6e-4 0.982422,0 2.121095,0.003 4.231632,-0.0527 6.339844,-0.291016 0.07296,-0.008 0.144014,-0.01739 0.214844,-0.02539 3.019507,-0.34646 6.112231,-0.895817 8.583984,-2.660157 V 96.53125 c 0.207636,0 0.208455,-0.001 0.642578,-0.296875 v -0.146484 c 0.160444,0 0.159321,1.2e-4 0.322266,-0.13086 0.06734,-0.0619 0.133829,-0.123493 0.199219,-0.183593 0.07332,-0.0673 0.143743,-0.131966 0.214843,-0.197266 0.07671,-0.0713 0.152073,-0.139784 0.226563,-0.208984 0.113949,-0.10407 0.112933,-0.105002 0.224609,-0.207032 0.07332,-0.0678 0.143734,-0.133519 0.214844,-0.199218 0.183158,-0.16918 0.338536,-0.312815 0.464844,-0.521485 0.01963,-0.0428 0.03762,-0.0834 0.05664,-0.125 h 0.16211 c 0.08231,-0.10071 0.163501,-0.203054 0.238281,-0.308594 0.03141,-0.04609 0.06128,-0.09006 0.0918,-0.134765 0.240933,-0.349 0.463459,-0.705979 0.667969,-1.074219 0.04294,-0.07888 0.04196,-0.07895 0.08398,-0.15625 0.129449,-0.23793 0.256631,-0.470223 0.337891,-0.726563 0.0079,-0.03863 0.01624,-0.07568 0.02344,-0.113281 h 0.160156 c 0.07551,-0.22896 0.076,-0.229398 0.214844,-0.455078 0.535388,-0.89824 0.960814,-1.776183 1.193359,-2.783203 0.01241,-0.05439 0.02318,-0.107257 0.03516,-0.160156 0.446413,-1.858425 0.360809,-3.91169 0.03711,-5.78125 -0.01261,-0.06965 -0.02513,-0.137448 -0.03711,-0.205078 -0.258844,-1.488424 -0.689629,-2.924965 -1.220703,-4.34961 -0.07033,-0.187273 -0.140515,-0.374663 -0.208985,-0.5625 -0.457863,-1.261032 -0.994616,-2.495563 -1.613281,-3.697265 -0.107831,-0.205007 -0.216224,-0.40759 -0.302734,-0.621094 -0.119563,-0.306792 -0.254655,-0.59057 -0.423828,-0.876953 -0.371201,-0.620744 -0.708154,-1.254354 -1.033204,-1.896485 -0.08176,-0.162082 -0.164276,-0.32512 -0.248046,-0.486328 -0.817994,-1.562218 -1.522888,-3.195815 -1.746094,-4.927734 -0.0067,-0.05741 -0.0143,-0.114202 -0.02148,-0.169922 -0.100586,-0.826465 -0.07918,-1.612816 0.05469,-2.435547 0.0085,-0.05151 0.01679,-0.100421 0.02539,-0.15039 0.235806,-1.411981 0.826022,-2.826249 1.466796,-4.123047 0.263246,-0.521945 0.491486,-1.050455 0.703125,-1.591797 0.03873,-0.09914 0.03821,-0.100076 0.07617,-0.197266 0.562972,-1.425551 1.102663,-2.853508 1.34961,-4.359375 0.344229,-2.411407 0.126232,-5.229374 -1.509766,-7.242187 h -0.160156 c -0.02729,-0.07538 -0.05369,-0.149517 -0.08008,-0.222657 -0.35163,-0.361909 -0.737502,-0.668869 -1.228516,-0.853515 -0.796264,-0.227856 -1.606021,-0.170893 -2.345703,0.175781 -0.549421,0.308849 -1.179192,0.775776 -1.375,1.363281 -0.0122,0.06427 -0.01341,0.06589 -0.02539,0.128906 h -0.160156 c -0.204943,0.492905 -0.37859,0.986412 -0.527344,1.496094 -0.186368,0.643712 -0.371739,1.270807 -0.669922,1.878906 -0.149393,0.299012 -0.282847,0.606961 -0.373047,0.925782 -0.01172,0.04477 -0.02197,0.0894 -0.0332,0.132812 H 68.81442 c -0.103112,0.176354 -0.180523,0.345098 -0.251953,0.535156 -0.02387,0.06908 -0.04716,0.136075 -0.07031,0.203126 H 68.332 c -0.110483,0.240563 -0.267834,0.425188 -0.451172,0.623046 -0.221863,0.235916 -0.452547,0.459949 -0.617187,0.734375 -0.02783,0.06067 -0.02741,0.06169 -0.05469,0.121094 -0.160417,0 -0.159268,-5.66e-4 -0.304687,0.09961 -0.776692,0.599216 -1.676992,1.035726 -2.707031,1.035157 -0.06999,-0.0012 -0.139112,-0.0028 -0.207032,-0.0039 -0.265403,7.41e-4 -0.526529,-0.0017 -0.791015,-0.02344 -0.696453,-0.144905 -1.25212,-0.422973 -1.685547,-0.951172 -0.07718,-0.103591 -0.156205,-0.205717 -0.240234,-0.304687 h -0.160157 c -0.05252,-0.148088 -0.105936,-0.295799 -0.160156,-0.44336 -0.356731,-0.815023 -0.367234,-1.572535 -0.365234,-2.441406 2.83e-4,-0.168928 -0.0013,-0.338877 -0.002,-0.507812 -0.0028,-0.461518 -0.004,-0.921283 -0.0039,-1.382813 0,-0.489839 -0.0019,-0.980863 -0.0039,-1.470703 -0.0027,-0.87272 -0.0045,-1.744462 -0.0059,-2.617188 -6e-4,-0.849712 -0.0011,-1.701076 -0.0039,-2.550781 -1.58e-4,-0.05416 1.58e-4,-0.105673 0,-0.158203 -7e-4,-0.264061 -0.0032,-0.528908 -0.0039,-0.792969 -0.0066,-2.142576 -0.01087,-4.285152 -0.01367,-6.427734 -8.2e-5,-0.09287 8.2e-5,-0.183308 0,-0.273438 -0.03735,-6.7e-5 -0.07398,6.6e-5 -0.111328,0 V 13.609375 Z" />
    </clipPath>
    <filter
       id="mask-powermask-path-effect11_inverse"
       inkscape:label="filtermask-powermask-path-effect11"
       style="color-interpolation-filters:sRGB"
       height="100"
       width="100"
       x="-50"
       y="-50">
      <feColorMatrix
         id="mask-powermask-path-effect11_primitive1"
         values="1"
         type="saturate"
         result="fbSourceGraphic" />
      <feColorMatrix
         id="mask-powermask-path-effect11_primitive2"
         values="-1 0 0 0 1 0 -1 0 0 1 0 0 -1 0 1 0 0 0 1 0 "
         in="fbSourceGraphic" />
    </filter>
    <mask
       maskUnits="userSpaceOnUse"
       id="mask-powermask-path-effect11">
      <path
         id="mask-powermask-path-effect11_box"
         style="fill:#ffffff;fill-opacity:1"
         d="m 72.2885,-21.7115 h 63.423 v 63.423 h -63.423 z" />
      <rect
         style="display:inline;fill:#000000;fill-opacity:1"
         id="rect11"
         width="100"
         height="100"
         x="-148.80215"
         y="-133.51747"
         transform="rotate(135)"
         inkscape:label="90 graden"
         d="m -148.80215,-133.51747 h 99.999995 v 99.999999 h -99.999995 z" />
    </mask>
  </defs>
  <sodipodi:namedview
     id="namedview2"
     pagecolor="#ffffff"
     bordercolor="#000000"
     borderopacity="0.25"
     inkscape:showpageshadow="2"
     inkscape:pageopacity="0.0"
     inkscape:pagecheckerboard="0"
     inkscape:deskcolor="#d1d1d1"
     inkscape:zoom="5.1188591"
     inkscape:cx="58.899844"
     inkscape:cy="48.545974"
     inkscape:window-width="1728"
     inkscape:window-height="1048"
     inkscape:window-x="0"
     inkscape:window-y="0"
     inkscape:window-maximized="1"
     inkscape:current-layer="svg2"
     showgrid="true">
    <inkscape:grid
       id="grid2"
       units="px"
       originx="0"
       originy="0"
       spacingx="1"
       spacingy="1"
       empcolor="#0099e5"
       empopacity="0.30196078"
       color="#0099e5"
       opacity="0.14901961"
       empspacing="5"
       enabled="true"
       visible="true" />
  </sodipodi:namedview>
  <path
     style="display:inline;fill:#000000;fill-opacity:0.299416;stroke:#4a3f10;stroke-opacity:1;stroke-width:0.4;stroke-dasharray:none"
     id="rect1"
     width="104"
     height="104"
     x="5"
     y="5"
     ry="10"
     rx="10"
     inkscape:label="Black Background"
     clip-path="url(#clipPath9)"
     sodipodi:type="rect"
     inkscape:path-effect="#path-effect9"
     d="m 15,5 h 84 c 5.54,0 10,4.46 10,10 v 84 c 0,5.54 -4.46,10 -10,10 H 15 C 9.46,109 5,104.54 5,99 V 15 C 5,9.46 9.46,5 15,5 Z" />
  <rect
     style="display:none;fill:#c8ab37;fill-opacity:1"
     id="rect8"
     width="100"
     height="100"
     x="-148.80215"
     y="-133.51747"
     transform="rotate(135)"
     inkscape:label="90 graden" />
  <path
     id="path1"
     style="display:inline;fill:#f8f4e2;fill-opacity:1;stroke:#4a3f10;stroke-width:0.4;stroke-dasharray:none;stroke-opacity:1;enable-background:new"
     inkscape:label="Gitaar"
     d="M 52.001953 13.609375 L 52.001953 33.630859 L 52.035156 33.630859 C 52.035083 33.651849 52.0352 33.672369 52.035156 33.693359 C 52.034445 33.79998 52.035659 33.907054 52.035156 34.013672 C 52.033656 34.242812 52.03195 34.470082 52.03125 34.699219 C 52.02995 35.069015 52.027391 35.438803 52.025391 35.808594 C 52.019691 36.862179 52.015889 37.917108 52.011719 38.970703 C 52.009819 39.557883 52.007406 40.145248 52.003906 40.732422 C 52.001906 41.104071 51.998747 41.476001 51.998047 41.847656 C 51.996547 42.082853 51.995541 42.317538 51.994141 42.552734 C 51.993541 42.662657 51.992888 42.772885 51.992188 42.882812 C 51.99198 43.51101 51.991088 44.119087 51.806641 44.728516 C 51.625102 45.158545 51.390006 45.373334 50.935547 45.564453 C 50.45681 45.661473 50.092276 45.551373 49.689453 45.320312 C 49.587084 45.259282 49.484364 45.199985 49.380859 45.140625 C 49.326309 45.109505 49.273603 45.079048 49.220703 45.048828 C 48.91012 44.870016 48.594674 44.703677 48.271484 44.544922 C 48.191884 44.506552 48.114369 44.468883 48.037109 44.431641 C 45.557322 43.214631 42.508602 42.411275 39.705078 43.035156 C 38.726575 43.295733 37.318721 43.731712 36.783203 44.597656 C 36.763473 44.641816 36.745563 44.685617 36.726562 44.728516 L 36.566406 44.728516 L 36.566406 44.875 L 36.404297 44.875 C 36.24386 45.096696 36.244547 45.098277 36.154297 45.296875 C 36.130437 45.354975 36.107164 45.410447 36.083984 45.466797 L 35.923828 45.466797 C 35.640965 45.956672 35.37221 46.446288 35.197266 46.978516 C 35.171486 47.067826 35.146114 47.153554 35.121094 47.240234 C 34.831043 48.216481 34.773584 49.180563 34.771484 50.1875 L 34.771484 50.386719 C 34.769784 51.127187 34.776984 51.850607 34.917969 52.582031 C 34.932679 52.650251 34.946638 52.716963 34.960938 52.783203 C 35.294693 54.372603 35.918061 55.882902 36.574219 57.378906 C 36.614139 57.469616 36.652669 57.558474 36.691406 57.646484 C 36.866524 58.04458 37.039713 58.442785 37.232422 58.833984 C 38.366455 61.088576 38.936015 63.578363 38.324219 66.039062 C 38.299179 66.129953 38.27421 66.218441 38.25 66.306641 C 37.346459 68.88941 37.346967 68.888965 36.041016 71.330078 C 35.407832 72.513275 34.784191 73.697184 34.230469 74.914062 C 34.180119 75.025342 34.128695 75.136866 34.078125 75.248047 C 33.822259 75.790874 33.596858 76.337403 33.386719 76.896484 C 33.298149 77.135695 33.209284 77.375838 33.115234 77.613281 C 32.474918 78.986603 32.042385 80.481629 31.769531 81.953125 C 31.755301 82.033565 31.740392 82.111343 31.726562 82.189453 C 31.545238 83.204961 31.498594 84.224589 31.496094 85.251953 C 31.496094 85.420514 31.495588 85.589268 31.494141 85.757812 C 31.472331 88.18932 32.15848 90.379242 33.357422 92.539062 L 33.517578 92.539062 C 33.517578 92.760743 33.516794 92.761752 33.587891 92.888672 C 33.621471 92.935372 33.65491 92.979993 33.6875 93.025391 C 33.74177 93.100781 33.74171 93.10178 33.794922 93.175781 C 33.833592 93.228321 33.870662 93.278978 33.908203 93.330078 C 34.04021 93.515538 34.173612 93.691421 34.318359 93.869141 L 34.480469 93.869141 C 34.480469 94.016921 34.480427 94.018336 34.580078 94.162109 C 34.624608 94.216809 34.667708 94.269066 34.710938 94.322266 C 34.840668 94.484506 34.839981 94.485265 34.960938 94.609375 L 35.121094 94.609375 L 35.121094 94.755859 L 35.28125 94.755859 L 35.28125 94.904297 L 35.441406 94.904297 L 35.441406 95.052734 C 35.634442 95.270854 35.848977 95.456716 36.113281 95.597656 C 36.157611 95.613456 36.201121 95.627278 36.244141 95.642578 L 36.244141 95.791016 L 36.404297 95.791016 L 36.404297 95.939453 L 36.564453 95.939453 L 36.564453 96.085938 C 36.687162 96.193637 36.68858 96.195433 37.046875 96.443359 C 37.128815 96.498359 37.207589 96.550216 37.287109 96.603516 C 38.056105 97.122326 38.830603 97.578809 39.699219 97.943359 C 39.751769 97.965159 39.802506 97.986512 39.853516 98.007812 C 41.812006 98.823903 43.910651 99.096345 46.027344 99.328125 C 46.086734 99.335125 46.143572 99.341656 46.201172 99.347656 C 48.319042 99.58497 50.439034 99.657297 52.570312 99.654297 C 52.893312 99.653777 53.216066 99.654077 53.539062 99.654297 C 54.085803 99.654497 54.632952 99.654867 55.179688 99.654297 C 55.807068 99.653487 56.433168 99.653737 57.060547 99.654297 C 57.609775 99.654797 58.159756 99.654607 58.708984 99.654297 C 59.036494 99.654067 59.363903 99.653937 59.691406 99.654297 C 61.812501 99.657297 63.923038 99.601595 66.03125 99.363281 C 66.10421 99.355281 66.175264 99.345891 66.246094 99.337891 C 69.265601 98.991431 72.358325 98.442074 74.830078 96.677734 L 74.830078 96.53125 C 75.037714 96.53125 75.038533 96.530241 75.472656 96.234375 L 75.472656 96.087891 C 75.6331 96.087891 75.631977 96.088011 75.794922 95.957031 C 75.862262 95.895131 75.928751 95.833538 75.994141 95.773438 C 76.067461 95.706137 76.137884 95.641472 76.208984 95.576172 C 76.285694 95.504872 76.361057 95.436388 76.435547 95.367188 C 76.549496 95.263118 76.54848 95.262186 76.660156 95.160156 C 76.733476 95.092356 76.80389 95.026637 76.875 94.960938 C 77.058158 94.791758 77.213536 94.648123 77.339844 94.439453 C 77.359474 94.396653 77.377464 94.356053 77.396484 94.314453 L 77.558594 94.314453 C 77.640904 94.213743 77.722095 94.111399 77.796875 94.005859 C 77.828285 93.959769 77.858152 93.915799 77.888672 93.871094 C 78.129605 93.522094 78.352131 93.165115 78.556641 92.796875 C 78.599581 92.717995 78.598605 92.717925 78.640625 92.640625 C 78.770074 92.402695 78.897256 92.170402 78.978516 91.914062 C 78.986416 91.875433 78.994753 91.838382 79.001953 91.800781 L 79.162109 91.800781 C 79.237619 91.571821 79.238109 91.571383 79.376953 91.345703 C 79.912341 90.447463 80.337767 89.56952 80.570312 88.5625 C 80.582723 88.50811 80.593489 88.455243 80.605469 88.402344 C 81.051882 86.543919 80.966278 84.490654 80.642578 82.621094 C 80.629968 82.551444 80.617449 82.483646 80.605469 82.416016 C 80.346625 80.927592 79.91584 79.491051 79.384766 78.066406 C 79.314436 77.879133 79.244251 77.691743 79.175781 77.503906 C 78.717918 76.242874 78.181165 75.008343 77.5625 73.806641 C 77.454669 73.601634 77.346276 73.399051 77.259766 73.185547 C 77.140203 72.878755 77.005111 72.594977 76.835938 72.308594 C 76.464737 71.68785 76.127784 71.05424 75.802734 70.412109 C 75.720974 70.250027 75.638458 70.086989 75.554688 69.925781 C 74.736694 68.363563 74.0318 66.729966 73.808594 64.998047 C 73.801894 64.940637 73.794299 64.883845 73.787109 64.828125 C 73.686523 64.00166 73.707927 63.215309 73.841797 62.392578 C 73.850297 62.341068 73.858587 62.292157 73.867188 62.242188 C 74.102994 60.830207 74.69321 59.415939 75.333984 58.119141 C 75.59723 57.597196 75.82547 57.068686 76.037109 56.527344 C 76.075839 56.428204 76.075321 56.427268 76.113281 56.330078 C 76.676253 54.904527 77.215944 53.47657 77.462891 51.970703 C 77.80712 49.559296 77.589123 46.741329 75.953125 44.728516 L 75.792969 44.728516 C 75.765679 44.653136 75.739281 44.578999 75.712891 44.505859 C 75.361261 44.14395 74.975389 43.83699 74.484375 43.652344 C 73.688111 43.424488 72.878354 43.481451 72.138672 43.828125 C 71.589251 44.136974 70.95948 44.603901 70.763672 45.191406 C 70.751472 45.255676 70.750261 45.257296 70.738281 45.320312 L 70.578125 45.320312 C 70.373182 45.813217 70.199535 46.306724 70.050781 46.816406 C 69.864413 47.460118 69.679042 48.087213 69.380859 48.695312 C 69.231466 48.994324 69.098012 49.302273 69.007812 49.621094 C 68.996093 49.665864 68.985839 49.710494 68.974609 49.753906 L 68.814453 49.753906 C 68.711341 49.93026 68.63393 50.099004 68.5625 50.289062 C 68.53863 50.358142 68.515338 50.425137 68.492188 50.492188 L 68.332031 50.492188 C 68.221548 50.732751 68.064197 50.917376 67.880859 51.115234 C 67.658996 51.35115 67.428312 51.575183 67.263672 51.849609 C 67.235842 51.910279 67.236264 51.911299 67.208984 51.970703 C 67.048567 51.970703 67.049716 51.970137 66.904297 52.070312 C 66.127605 52.669528 65.227305 53.106038 64.197266 53.105469 C 64.127276 53.104269 64.058154 53.102662 63.990234 53.101562 C 63.724831 53.102303 63.463705 53.099865 63.199219 53.078125 C 62.502766 52.93322 61.947099 52.655152 61.513672 52.126953 C 61.436492 52.023362 61.357467 51.921236 61.273438 51.822266 L 61.113281 51.822266 C 61.060761 51.674178 61.007345 51.526467 60.953125 51.378906 C 60.596394 50.563883 60.585891 49.806371 60.587891 48.9375 C 60.588174 48.768572 60.586637 48.598623 60.585938 48.429688 C 60.583137 47.96817 60.581931 47.508405 60.582031 47.046875 C 60.582031 46.557036 60.580125 46.066012 60.578125 45.576172 C 60.575425 44.703452 60.573666 43.83171 60.572266 42.958984 C 60.571666 42.109272 60.571159 41.257908 60.568359 40.408203 C 60.568201 40.354043 60.568517 40.30253 60.568359 40.25 C 60.567659 39.985939 60.565153 39.721092 60.564453 39.457031 C 60.558574 37.548342 60.553571 35.641115 60.550781 33.732422 L 60.558594 33.732422 L 60.558594 13.609375 L 60.439453 13.609375 L 56.580078 13.609375 L 52.001953 13.609375 z " />
  <path
     style="display:inline;fill:#f8f4e2;fill-opacity:1;stroke:#4a3f10;stroke-width:0.38738628;stroke-dasharray:none;stroke-opacity:1"
     id="rect9"
     width="60"
     height="60"
     x="74"
     y="-20"
     rx="12.48947"
     ry="12.849744"
     inkscape:label="Flap"
     clip-path="none"
     mask="url(#mask-powermask-path-effect11)"
     inkscape:path-effect="#path-effect11"
     sodipodi:type="rect"
     d="m 86.48947,-20 h 35.02106 C 128.4297,-20 134,-14.269014 134,-7.1502562 V 27.150256 C 134,34.269014 128.4297,40 121.51053,40 H 86.48947 C 79.570303,40 74,34.269014 74,27.150256 V -7.1502562 C 74,-14.269014 79.570303,-20 86.48947,-20 Z"
     transform="matrix(1.0325611,0,0,1.0325611,-3.3863536,-0.32561093)" />
</svg>
