<?xml version="1.0" encoding="UTF-8" standalone="no"?>
<svg
   height="114"
   viewBox="0 0 114 114"
   width="114"
   version="1.1"
   id="svg2"
   sodipodi:docname="nl.desbeers.chordprovider-welcome.svg"
   inkscape:version="1.4.3 (0d15f75042, 2025-12-25)"
   xmlns:inkscape="http://www.inkscape.org/namespaces/inkscape"
   xmlns:sodipodi="http://sodipodi.sourceforge.net/DTD/sodipodi-0.dtd"
   xmlns="http://www.w3.org/2000/svg"
   xmlns:svg="http://www.w3.org/2000/svg">
  <defs
     id="defs2">
    <inkscape:path-effect
       effect="powermask"
       id="path-effect11"
       is_visible="true"
       lpeversion="1"
       uri="#mask-powermask-path-effect11"
       invert="false"
       hide_mask="false"
       background="true"
       background_color="#ffffffff" />
    <inkscape:path-effect
       effect="powerclip"
       message=""
       id="path-effect9"
       is_visible="true"
       lpeversion="1"
       inverse="true"
       flatten="false"
       hide_clip="false" />
    <inkscape:path-effect
       effect="powerclip"
       message=""
       id="path-effect7"
       is_visible="true"
       lpeversion="1"
       inverse="true"
       flatten="false"
       hide_clip="false" />
    <inkscape:path-effect
       effect="powerclip"
       message=""
       id="path-effect4"
       is_visible="true"
       lpeversion="1"
       inverse="true"
       flatten="false"
       hide_clip="false" />
    <inkscape:path-effect
       effect="powerclip"
       message=""
       id="path-effect10"
       is_visible="true"
       lpeversion="1"
       inverse="true"
       flatten="false"
       hide_clip="false" />
    <inkscape:path-effect
       effect="powerclip"
       message=""
       id="path-effect5"
       is_visible="true"
       lpeversion="1"
       inverse="true"
       flatten="false"
       hide_clip="false" />
    <inkscape:path-effect
       effect="powerclip"
       message=""
       id="path-effect3"
       is_visible="true"
       lpeversion="1"
       inverse="true"
       flatten="false"
       hide_clip="false" />
    <clipPath
       clipPathUnits="userSpaceOnUse"
       id="clipPath9">
      <path
         id="path9"
         style="display:none;fill:#ffffff;fill-opacity:1;stroke:none;stroke-width:0.881995;stroke-dasharray:none;stroke-opacity:1;enable-background:new"
         inkscape:label="Mask"
         d="M 86.490234,-20 C 79.571068,-20 74,-14.269149 74,-7.1503906 V 27.150391 C 74,34.269149 79.571068,40 86.490234,40 H 121.50977 C 128.42893,40 134,34.269149 134,27.150391 V -7.1503906 C 134,-14.269149 128.42893,-20 121.50977,-20 Z M 52.001953,13.609375 v 20.021484 h 0.0332 c -7.3e-5,0.02099 4.4e-5,0.04151 0,0.0625 -7.11e-4,0.106621 5.03e-4,0.213695 0,0.320313 -0.0015,0.22914 -0.0032,0.45641 -0.0039,0.685547 -0.0013,0.369796 -0.0039,0.739584 -0.0059,1.109375 -0.0057,1.053585 -0.0095,2.108514 -0.01367,3.162109 -0.0019,0.58718 -0.0043,1.174545 -0.0078,1.761719 -0.002,0.371649 -0.0052,0.743579 -0.0059,1.115234 -0.0015,0.235197 -0.0025,0.469882 -0.0039,0.705078 -6e-4,0.109923 -0.0013,0.220151 -0.002,0.330078 -2.08e-4,0.628198 -0.0011,1.236275 -0.185547,1.845704 -0.181539,0.430029 -0.416635,0.644818 -0.871094,0.835937 -0.478737,0.09702 -0.843271,-0.01308 -1.246094,-0.244141 -0.102369,-0.06103 -0.205089,-0.120327 -0.308594,-0.179687 -0.05455,-0.03112 -0.107256,-0.06158 -0.160156,-0.0918 -0.310583,-0.178812 -0.626029,-0.345151 -0.949219,-0.503906 -0.0796,-0.03837 -0.157115,-0.07604 -0.234375,-0.113281 -2.479787,-1.21701 -5.528507,-2.020366 -8.332031,-1.396485 -0.978503,0.260577 -2.386357,0.696556 -2.921875,1.5625 -0.01973,0.04416 -0.03764,0.08796 -0.05664,0.13086 H 36.566406 V 44.875 h -0.162109 c -0.160437,0.221696 -0.15975,0.223277 -0.25,0.421875 -0.02386,0.0581 -0.04713,0.113572 -0.07031,0.169922 h -0.160156 c -0.282863,0.489875 -0.551618,0.979491 -0.726562,1.511719 -0.02578,0.08931 -0.05115,0.175038 -0.07617,0.261718 -0.290051,0.976247 -0.34751,1.940329 -0.34961,2.947266 v 0.199219 c -0.0017,0.740468 0.0055,1.463888 0.146485,2.195312 0.01471,0.06822 0.02867,0.134932 0.04297,0.201172 0.333755,1.5894 0.957123,3.099699 1.613281,4.595703 0.03992,0.09071 0.07845,0.179568 0.117187,0.267578 0.175118,0.398096 0.348307,0.796301 0.541016,1.1875 1.134033,2.254592 1.703593,4.744379 1.091797,7.205078 -0.02504,0.09089 -0.05001,0.179379 -0.07422,0.267579 -0.903541,2.582769 -0.903033,2.582324 -2.208984,5.023437 -0.633184,1.183197 -1.256825,2.367106 -1.810547,3.583984 -0.05035,0.11128 -0.101774,0.222804 -0.152344,0.333985 -0.255866,0.542827 -0.481267,1.089356 -0.691406,1.648437 -0.08857,0.239211 -0.177435,0.479354 -0.271485,0.716797 -0.640316,1.373322 -1.072849,2.868348 -1.345703,4.339844 -0.01423,0.08044 -0.02914,0.158218 -0.04297,0.236328 -0.181324,1.015508 -0.227968,2.035136 -0.230468,3.0625 0,0.168561 -5.06e-4,0.337315 -0.002,0.505859 -0.02181,2.431508 0.664339,4.62143 1.863281,6.78125 h 0.160156 c 0,0.221681 -7.84e-4,0.22269 0.07031,0.34961 0.03358,0.0467 0.06702,0.09132 0.09961,0.136719 0.05427,0.07539 0.05421,0.07639 0.107422,0.15039 0.03867,0.05254 0.07574,0.103197 0.113281,0.154297 0.132007,0.18546 0.265409,0.361343 0.410156,0.539063 h 0.16211 c 0,0.14778 -4.2e-5,0.149195 0.09961,0.292968 0.04453,0.0547 0.08763,0.106957 0.13086,0.160157 0.12973,0.16224 0.129043,0.162999 0.25,0.287109 h 0.160156 v 0.146484 h 0.160156 v 0.148438 h 0.160156 v 0.148437 c 0.193036,0.21812 0.407571,0.403982 0.671875,0.544922 0.04433,0.0158 0.08784,0.02962 0.13086,0.04492 v 0.148438 h 0.160156 v 0.148437 h 0.160156 v 0.146485 c 0.122709,0.107699 0.124127,0.109495 0.482422,0.357421 0.08194,0.055 0.160714,0.106857 0.240234,0.160157 0.768996,0.51881 1.543494,0.975293 2.41211,1.339843 0.05255,0.0218 0.103287,0.04315 0.154297,0.06445 1.95849,0.816091 4.057135,1.088533 6.173828,1.320313 0.05939,0.007 0.116228,0.01353 0.173828,0.01953 2.11787,0.237314 4.237862,0.309641 6.36914,0.306641 0.323,-5.2e-4 0.645754,-2.2e-4 0.96875,0 0.546741,2e-4 1.09389,5.7e-4 1.640626,0 0.62738,-8.1e-4 1.25348,-5.6e-4 1.880859,0 0.549228,5e-4 1.099209,3.1e-4 1.648437,0 0.32751,-2.3e-4 0.654919,-3.6e-4 0.982422,0 2.121095,0.003 4.231632,-0.0527 6.339844,-0.291016 0.07296,-0.008 0.144014,-0.01739 0.214844,-0.02539 3.019507,-0.34646 6.112231,-0.895817 8.583984,-2.660157 V 96.53125 c 0.207636,0 0.208455,-0.001 0.642578,-0.296875 v -0.146484 c 0.160444,0 0.159321,1.2e-4 0.322266,-0.13086 0.06734,-0.0619 0.133829,-0.123493 0.199219,-0.183593 0.07332,-0.0673 0.143743,-0.131966 0.214843,-0.197266 0.07671,-0.0713 0.152073,-0.139784 0.226563,-0.208984 0.113949,-0.10407 0.112933,-0.105002 0.224609,-0.207032 0.07332,-0.0678 0.143734,-0.133519 0.214844,-0.199218 0.183158,-0.16918 0.338536,-0.312815 0.464844,-0.521485 0.01963,-0.0428 0.03762,-0.0834 0.05664,-0.125 h 0.16211 c 0.08231,-0.10071 0.163501,-0.203054 0.238281,-0.308594 0.03141,-0.04609 0.06128,-0.09006 0.0918,-0.134765 0.240933,-0.349 0.463459,-0.705979 0.667969,-1.074219 0.04294,-0.07888 0.04196,-0.07895 0.08398,-0.15625 0.129449,-0.23793 0.256631,-0.470223 0.337891,-0.726563 0.0079,-0.03863 0.01624,-0.07568 0.02344,-0.113281 h 0.160156 c 0.07551,-0.22896 0.076,-0.229398 0.214844,-0.455078 0.535388,-0.89824 0.960814,-1.776183 1.193359,-2.783203 0.01241,-0.05439 0.02318,-0.107257 0.03516,-0.160156 0.446413,-1.858425 0.360809,-3.91169 0.03711,-5.78125 -0.01261,-0.06965 -0.02513,-0.137448 -0.03711,-0.205078 -0.258844,-1.488424 -0.689629,-2.924965 -1.220703,-4.34961 -0.07033,-0.187273 -0.140515,-0.374663 -0.208985,-0.5625 -0.457863,-1.261032 -0.994616,-2.495563 -1.613281,-3.697265 -0.107831,-0.205007 -0.216224,-0.40759 -0.302734,-0.621094 -0.119563,-0.306792 -0.254655,-0.59057 -0.423828,-0.876953 -0.371201,-0.620744 -0.708154,-1.254354 -1.033204,-1.896485 -0.08176,-0.162082 -0.164276,-0.32512 -0.248046,-0.486328 -0.817994,-1.562218 -1.522888,-3.195815 -1.746094,-4.927734 -0.0067,-0.05741 -0.0143,-0.114202 -0.02148,-0.169922 -0.100586,-0.826465 -0.07918,-1.612816 0.05469,-2.435547 0.0085,-0.05151 0.01679,-0.100421 0.02539,-0.15039 0.235806,-1.411981 0.826022,-2.826249 1.466796,-4.123047 0.263246,-0.521945 0.491486,-1.050455 0.703125,-1.591797 0.03873,-0.09914 0.03821,-0.100076 0.07617,-0.197266 0.562972,-1.425551 1.102663,-2.853508 1.34961,-4.359375 0.344229,-2.411407 0.126232,-5.229374 -1.509766,-7.242187 h -0.160156 c -0.02729,-0.07538 -0.05369,-0.149517 -0.08008,-0.222657 -0.35163,-0.361909 -0.737502,-0.668869 -1.228516,-0.853515 -0.796264,-0.227856 -1.606021,-0.170893 -2.345703,0.175781 -0.549421,0.308849 -1.179192,0.775776 -1.375,1.363281 -0.0122,0.06427 -0.01341,0.06589 -0.02539,0.128906 h -0.160156 c -0.204943,0.492905 -0.37859,0.986412 -0.527344,1.496094 -0.186368,0.643712 -0.371739,1.270807 -0.669922,1.878906 -0.149393,0.299012 -0.282847,0.606961 -0.373047,0.925782 -0.01172,0.04477 -0.02197,0.0894 -0.0332,0.132812 H 68.81442 c -0.103112,0.176354 -0.180523,0.345098 -0.251953,0.535156 -0.02387,0.06908 -0.04716,0.136075 -0.07031,0.203126 H 68.332 c -0.110483,0.240563 -0.267834,0.425188 -0.451172,0.623046 -0.221863,0.235916 -0.452547,0.459949 -0.617187,0.734375 -0.02783,0.06067 -0.02741,0.06169 -0.05469,0.121094 -0.160417,0 -0.159268,-5.66e-4 -0.304687,0.09961 -0.776692,0.599216 -1.676992,1.035726 -2.707031,1.035157 -0.06999,-0.0012 -0.139112,-0.0028 -0.207032,-0.0039 -0.265403,7.41e-4 -0.526529,-0.0017 -0.791015,-0.02344 -0.696453,-0.144905 -1.25212,-0.422973 -1.685547,-0.951172 -0.07718,-0.103591 -0.156205,-0.205717 -0.240234,-0.304687 h -0.160157 c -0.05252,-0.148088 -0.105936,-0.295799 -0.160156,-0.44336 -0.356731,-0.815023 -0.367234,-1.572535 -0.365234,-2.441406 2.83e-4,-0.168928 -0.0013,-0.338877 -0.002,-0.507812 -0.0028,-0.461518 -0.004,-0.921283 -0.0039,-1.382813 0,-0.489839 -0.0019,-0.980863 -0.0039,-1.470703 -0.0027,-0.87272 -0.0045,-1.744462 -0.0059,-2.617188 -6e-4,-0.849712 -0.0011,-1.701076 -0.0039,-2.550781 -1.58e-4,-0.05416 1.58e-4,-0.105673 0,-0.158203 -7e-4,-0.264061 -0.0032,-0.528908 -0.0039,-0.792969 -0.0066,-2.142576 -0.01087,-4.285152 -0.01367,-6.427734 -8.2e-5,-0.09287 8.2e-5,-0.183308 0,-0.273438 -0.03735,-6.7e-5 -0.07398,6.6e-5 -0.111328,0 V 13.609375 Z" />
      <path
         id="lpe_path-effect9"
         style="display:inline;fill:#ffffff;fill-opacity:1;stroke:none;stroke-width:0.881995;stroke-dasharray:none;stroke-opacity:1;enable-background:new"
         class="powerclip"
         d="M 0,0 H 114 V 114 H 0 Z M 86.490234,-20 C 79.571068,-20 74,-14.269149 74,-7.1503906 V 27.150391 C 74,34.269149 79.571068,40 86.490234,40 H 121.50977 C 128.42893,40 134,34.269149 134,27.150391 V -7.1503906 C 134,-14.269149 128.42893,-20 121.50977,-20 Z M 52.001953,13.609375 v 20.021484 h 0.0332 c -7.3e-5,0.02099 4.4e-5,0.04151 0,0.0625 -7.11e-4,0.106621 5.03e-4,0.213695 0,0.320313 -0.0015,0.22914 -0.0032,0.45641 -0.0039,0.685547 -0.0013,0.369796 -0.0039,0.739584 -0.0059,1.109375 -0.0057,1.053585 -0.0095,2.108514 -0.01367,3.162109 -0.0019,0.58718 -0.0043,1.174545 -0.0078,1.761719 -0.002,0.371649 -0.0052,0.743579 -0.0059,1.115234 -0.0015,0.235197 -0.0025,0.469882 -0.0039,0.705078 -6e-4,0.109923 -0.0013,0.220151 -0.002,0.330078 -2.08e-4,0.628198 -0.0011,1.236275 -0.185547,1.845704 -0.181539,0.430029 -0.416635,0.644818 -0.871094,0.835937 -0.478737,0.09702 -0.843271,-0.01308 -1.246094,-0.244141 -0.102369,-0.06103 -0.205089,-0.120327 -0.308594,-0.179687 -0.05455,-0.03112 -0.107256,-0.06158 -0.160156,-0.0918 -0.310583,-0.178812 -0.626029,-0.345151 -0.949219,-0.503906 -0.0796,-0.03837 -0.157115,-0.07604 -0.234375,-0.113281 -2.479787,-1.21701 -5.528507,-2.020366 -8.332031,-1.396485 -0.978503,0.260577 -2.386357,0.696556 -2.921875,1.5625 -0.01973,0.04416 -0.03764,0.08796 -0.05664,0.13086 H 36.566406 V 44.875 h -0.162109 c -0.160437,0.221696 -0.15975,0.223277 -0.25,0.421875 -0.02386,0.0581 -0.04713,0.113572 -0.07031,0.169922 h -0.160156 c -0.282863,0.489875 -0.551618,0.979491 -0.726562,1.511719 -0.02578,0.08931 -0.05115,0.175038 -0.07617,0.261718 -0.290051,0.976247 -0.34751,1.940329 -0.34961,2.947266 v 0.199219 c -0.0017,0.740468 0.0055,1.463888 0.146485,2.195312 0.01471,0.06822 0.02867,0.134932 0.04297,0.201172 0.333755,1.5894 0.957123,3.099699 1.613281,4.595703 0.03992,0.09071 0.07845,0.179568 0.117187,0.267578 0.175118,0.398096 0.348307,0.796301 0.541016,1.1875 1.134033,2.254592 1.703593,4.744379 1.091797,7.205078 -0.02504,0.09089 -0.05001,0.179379 -0.07422,0.267579 -0.903541,2.582769 -0.903033,2.582324 -2.208984,5.023437 -0.633184,1.183197 -1.256825,2.367106 -1.810547,3.583984 -0.05035,0.11128 -0.101774,0.222804 -0.152344,0.333985 -0.255866,0.542827 -0.481267,1.089356 -0.691406,1.648437 -0.08857,0.239211 -0.177435,0.479354 -0.271485,0.716797 -0.640316,1.373322 -1.072849,2.868348 -1.345703,4.339844 -0.01423,0.08044 -0.02914,0.158218 -0.04297,0.236328 -0.181324,1.015508 -0.227968,2.035136 -0.230468,3.0625 0,0.168561 -5.06e-4,0.337315 -0.002,0.505859 -0.02181,2.431508 0.664339,4.62143 1.863281,6.78125 h 0.160156 c 0,0.221681 -7.84e-4,0.22269 0.07031,0.34961 0.03358,0.0467 0.06702,0.09132 0.09961,0.136719 0.05427,0.07539 0.05421,0.07639 0.107422,0.15039 0.03867,0.05254 0.07574,0.103197 0.113281,0.154297 0.132007,0.18546 0.265409,0.361343 0.410156,0.539063 h 0.16211 c 0,0.14778 -4.2e-5,0.149195 0.09961,0.292968 0.04453,0.0547 0.08763,0.106957 0.13086,0.160157 0.12973,0.16224 0.129043,0.162999 0.25,0.287109 h 0.160156 v 0.146484 h 0.160156 v 0.148438 h 0.160156 v 0.148437 c 0.193036,0.21812 0.407571,0.403982 0.671875,0.544922 0.04433,0.0158 0.08784,0.02962 0.13086,0.04492 v 0.148438 h 0.160156 v 0.148437 h 0.160156 v 0.146485 c 0.122709,0.107699 0.124127,0.109495 0.482422,0.357421 0.08194,0.055 0.160714,0.106857 0.240234,0.160157 0.768996,0.51881 1.543494,0.975293 2.41211,1.339843 0.05255,0.0218 0.103287,0.04315 0.154297,0.06445 1.95849,0.816091 4.057135,1.088533 6.173828,1.320313 0.05939,0.007 0.116228,0.01353 0.173828,0.01953 2.11787,0.237314 4.237862,0.309641 6.36914,0.306641 0.323,-5.2e-4 0.645754,-2.2e-4 0.96875,0 0.546741,2e-4 1.09389,5.7e-4 1.640626,0 0.62738,-8.1e-4 1.25348,-5.6e-4 1.880859,0 0.549228,5e-4 1.099209,3.1e-4 1.648437,0 0.32751,-2.3e-4 0.654919,-3.6e-4 0.982422,0 2.121095,0.003 4.231632,-0.0527 6.339844,-0.291016 0.07296,-0.008 0.144014,-0.01739 0.214844,-0.02539 3.019507,-0.34646 6.112231,-0.895817 8.583984,-2.660157 V 96.53125 c 0.207636,0 0.208455,-0.001 0.642578,-0.296875 v -0.146484 c 0.160444,0 0.159321,1.2e-4 0.322266,-0.13086 0.06734,-0.0619 0.133829,-0.123493 0.199219,-0.183593 0.07332,-0.0673 0.143743,-0.131966 0.214843,-0.197266 0.07671,-0.0713 0.152073,-0.139784 0.226563,-0.208984 0.113949,-0.10407 0.112933,-0.105002 0.224609,-0.207032 0.07332,-0.0678 0.143734,-0.133519 0.214844,-0.199218 0.183158,-0.16918 0.338536,-0.312815 0.464844,-0.521485 0.01963,-0.0428 0.03762,-0.0834 0.05664,-0.125 h 0.16211 c 0.08231,-0.10071 0.163501,-0.203054 0.238281,-0.308594 0.03141,-0.04609 0.06128,-0.09006 0.0918,-0.134765 0.240933,-0.349 0.463459,-0.705979 0.667969,-1.074219 0.04294,-0.07888 0.04196,-0.07895 0.08398,-0.15625 0.129449,-0.23793 0.256631,-0.470223 0.337891,-0.726563 0.0079,-0.03863 0.01624,-0.07568 0.02344,-0.113281 h 0.160156 c 0.07551,-0.22896 0.076,-0.229398 0.214844,-0.455078 0.535388,-0.89824 0.960814,-1.776183 1.193359,-2.783203 0.01241,-0.05439 0.02318,-0.107257 0.03516,-0.160156 0.446413,-1.858425 0.360809,-3.91169 0.03711,-5.78125 -0.01261,-0.06965 -0.02513,-0.137448 -0.03711,-0.205078 -0.258844,-1.488424 -0.689629,-2.924965 -1.220703,-4.34961 -0.07033,-0.187273 -0.140515,-0.374663 -0.208985,-0.5625 -0.457863,-1.261032 -0.994616,-2.495563 -1.613281,-3.697265 -0.107831,-0.205007 -0.216224,-0.40759 -0.302734,-0.621094 -0.119563,-0.306792 -0.254655,-0.59057 -0.423828,-0.876953 -0.371201,-0.620744 -0.708154,-1.254354 -1.033204,-1.896485 -0.08176,-0.162082 -0.164276,-0.32512 -0.248046,-0.486328 -0.817994,-1.562218 -1.522888,-3.195815 -1.746094,-4.927734 -0.0067,-0.05741 -0.0143,-0.114202 -0.02148,-0.169922 -0.100586,-0.826465 -0.07918,-1.612816 0.05469,-2.435547 0.0085,-0.05151 0.01679,-0.100421 0.02539,-0.15039 0.235806,-1.411981 0.826022,-2.826249 1.466796,-4.123047 0.263246,-0.521945 0.491486,-1.050455 0.703125,-1.591797 0.03873,-0.09914 0.03821,-0.100076 0.07617,-0.197266 0.562972,-1.425551 1.102663,-2.853508 1.34961,-4.359375 0.344229,-2.411407 0.126232,-5.229374 -1.509766,-7.242187 h -0.160156 c -0.02729,-0.07538 -0.05369,-0.149517 -0.08008,-0.222657 -0.35163,-0.361909 -0.737502,-0.668869 -1.228516,-0.853515 -0.796264,-0.227856 -1.606021,-0.170893 -2.345703,0.175781 -0.549421,0.308849 -1.179192,0.775776 -1.375,1.363281 -0.0122,0.06427 -0.01341,0.06589 -0.02539,0.128906 h -0.160156 c -0.204943,0.492905 -0.37859,0.986412 -0.527344,1.496094 -0.186368,0.643712 -0.371739,1.270807 -0.669922,1.878906 -0.149393,0.299012 -0.282847,0.606961 -0.373047,0.925782 -0.01172,0.04477 -0.02197,0.0894 -0.0332,0.132812 H 68.81442 c -0.103112,0.176354 -0.180523,0.345098 -0.251953,0.535156 -0.02387,0.06908 -0.04716,0.136075 -0.07031,0.203126 H 68.332 c -0.110483,0.240563 -0.267834,0.425188 -0.451172,0.623046 -0.221863,0.235916 -0.452547,0.459949 -0.617187,0.734375 -0.02783,0.06067 -0.02741,0.06169 -0.05469,0.121094 -0.160417,0 -0.159268,-5.66e-4 -0.304687,0.09961 -0.776692,0.599216 -1.676992,1.035726 -2.707031,1.035157 -0.06999,-0.0012 -0.139112,-0.0028 -0.207032,-0.0039 -0.265403,7.41e-4 -0.526529,-0.0017 -0.791015,-0.02344 -0.696453,-0.144905 -1.25212,-0.422973 -1.685547,-0.951172 -0.07718,-0.103591 -0.156205,-0.205717 -0.240234,-0.304687 h -0.160157 c -0.05252,-0.148088 -0.105936,-0.295799 -0.160156,-0.44336 -0.356731,-0.815023 -0.367234,-1.572535 -0.365234,-2.441406 2.83e-4,-0.168928 -0.0013,-0.338877 -0.002,-0.507812 -0.0028,-0.461518 -0.004,-0.921283 -0.0039,-1.382813 0,-0.489839 -0.0019,-0.980863 -0.0039,-1.470703 -0.0027,-0.87272 -0.0045,-1.744462 -0.0059,-2.617188 -6e-4,-0.849712 -0.0011,-1.701076 -0.0039,-2.550781 -1.58e-4,-0.05416 1.58e-4,-0.105673 0,-0.158203 -7e-4,-0.264061 -0.0032,-0.528908 -0.0039,-0.792969 -0.0066,-2.142576 -0.01087,-4.285152 -0.01367,-6.427734 -8.2e-5,-0.09287 8.2e-5,-0.183308 0,-0.273438 -0.03735,-6.7e-5 -0.07398,6.6e-5 -0.111328,0 V 13.609375 Z" />
    </clipPath>
    <filter
       id="mask-powermask-path-effect11_inverse"
       inkscape:label="filtermask-powermask-path-effect11"
       style="color-interpolation-filters:sRGB"
       height="100"
       width="100"
       x="-50"
       y="-50">
      <feColorMatrix
         id="mask-powermask-path-effect11_primitive1"
         values="1"
         type="saturate"
         result="fbSourceGraphic" />
      <feColorMatrix
         id="mask-powermask-path-effect11_primitive2"
         values="-1 0 0 0 1 0 -1 0 0 1 0 0 -1 0 1 0 0 0 1 0 "
         in="fbSourceGraphic" />
    </filter>
    <mask
       maskUnits="userSpaceOnUse"
       id="mask-powermask-path-effect11">
      <path
         id="mask-powermask-path-effect11_box"
         style="fill:#ffffff;fill-opacity:1"
         d="m 73,-21 h 62 V 41 H 73 Z" />
      <rect
         style="display:inline;fill:#000000;fill-opacity:1"
         id="rect11"
         width="100"
         height="100"
         x="-148.80215"
         y="-133.51747"
         transform="rotate(135)"
         inkscape:label="90 graden"
         d="m -148.80215,-133.51747 h 99.999995 v 99.999999 h -99.999995 z" />
    </mask>
  </defs>
  <sodipodi:namedview
     id="namedview2"
     pagecolor="#ffffff"
     bordercolor="#000000"
     borderopacity="0.25"
     inkscape:showpageshadow="2"
     inkscape:pageopacity="0.0"
     inkscape:pagecheckerboard="0"
     inkscape:deskcolor="#d1d1d1"
     inkscape:zoom="4.7771752"
     inkscape:cx="25.328776"
     inkscape:cy="55.367448"
     inkscape:window-width="1728"
     inkscape:window-height="1048"
     inkscape:window-x="0"
     inkscape:window-y="0"
     inkscape:window-maximized="1"
     inkscape:current-layer="svg2"
     showgrid="true">
    <inkscape:grid
       id="grid2"
       units="px"
       originx="0"
       originy="0"
       spacingx="1"
       spacingy="1"
       empcolor="#0099e5"
       empopacity="0.30196078"
       color="#0099e5"
       opacity="0.14901961"
       empspacing="5"
       enabled="true"
       visible="true" />
  </sodipodi:namedview>
  <path
     style="display:inline;fill:#000000;fill-opacity:0.29941574"
     id="rect1"
     width="104"
     height="104"
     x="5"
     y="5"
     ry="10"
     rx="10"
     inkscape:label="Black Background"
     clip-path="url(#clipPath9)"
     sodipodi:type="rect"
     inkscape:path-effect="#path-effect9"
     d="m 15,5 h 84 c 5.54,0 10,4.46 10,10 v 84 c 0,5.54 -4.46,10 -10,10 H 15 C 9.46,109 5,104.54 5,99 V 15 C 5,9.46 9.46,5 15,5 Z" />
  <rect
     style="display:none;fill:#c8ab37;fill-opacity:1"
     id="rect8"
     width="100"
     height="100"
     x="-148.80215"
     y="-133.51747"
     transform="rotate(135)"
     inkscape:label="90 graden" />
  <path
     id="path8"
     style="display:inline;fill:#ffffff;fill-opacity:0.89604229;stroke:none;stroke-width:0.881995;stroke-dasharray:none;stroke-opacity:1;enable-background:new"
     d="m 52.00121,13.610285 v 20.021484 h 0.0332 c -7.3e-5,0.02099 4.4e-5,0.04151 0,0.0625 -7.11e-4,0.106621 5.03e-4,0.213695 0,0.320313 -0.0015,0.22914 -0.0032,0.456409 -0.0039,0.685546 -0.0013,0.369796 -0.0039,0.739585 -0.0059,1.109376 -0.0057,1.053585 -0.0095,2.108514 -0.01367,3.162109 -0.0019,0.58718 -0.0043,1.174545 -0.0078,1.761719 -0.002,0.371649 -0.0052,0.743579 -0.0059,1.115234 -0.0015,0.235197 -0.0025,0.469882 -0.0039,0.705078 -6e-4,0.109923 -0.0013,0.22015 -0.002,0.330078 -2.07e-4,0.628198 -0.0011,1.236274 -0.185547,1.845703 -0.181539,0.430029 -0.416635,0.644819 -0.871094,0.835938 -0.478737,0.09702 -0.843271,-0.01308 -1.246094,-0.244141 -0.102369,-0.06103 -0.205089,-0.120327 -0.308594,-0.179687 -0.05455,-0.03112 -0.107256,-0.06158 -0.160156,-0.0918 -0.310583,-0.178812 -0.626029,-0.345151 -0.949219,-0.503906 -0.0796,-0.03837 -0.157115,-0.07604 -0.234375,-0.113282 -2.479787,-1.21701 -5.528507,-2.020365 -8.332031,-1.396484 -0.978503,0.260577 -2.386357,0.696556 -2.921875,1.5625 -0.01973,0.04416 -0.03764,0.08796 -0.05664,0.130859 h -0.160156 v 0.146485 H 36.40345 c -0.160437,0.221696 -0.15975,0.223277 -0.25,0.421875 -0.02386,0.0581 -0.04713,0.113572 -0.07031,0.169922 h -0.160156 c -0.282863,0.489875 -0.551618,0.97949 -0.726562,1.511718 -0.02578,0.08931 -0.05115,0.175039 -0.07617,0.261719 -0.290051,0.976247 -0.34751,1.940329 -0.34961,2.947266 v 0.199218 c -0.0017,0.740468 0.0055,1.463889 0.146485,2.195313 0.01471,0.06822 0.02867,0.134932 0.04297,0.201172 0.333755,1.5894 0.957123,3.099699 1.613281,4.595703 0.03992,0.09071 0.07845,0.179568 0.117187,0.267578 0.175118,0.398096 0.348307,0.796301 0.541016,1.1875 1.134033,2.254592 1.703593,4.744378 1.091797,7.205078 -0.02504,0.09089 -0.05001,0.179378 -0.07422,0.267578 -0.903541,2.582769 -0.903033,2.582325 -2.208984,5.023438 -0.633184,1.183197 -1.256825,2.367106 -1.810547,3.583984 -0.05035,0.11128 -0.101774,0.222804 -0.152344,0.333985 -0.255866,0.542827 -0.481267,1.089356 -0.691406,1.648437 -0.08857,0.239211 -0.177435,0.479354 -0.271485,0.716797 -0.640316,1.373322 -1.072849,2.868348 -1.345703,4.339844 -0.01423,0.08044 -0.02914,0.158218 -0.04297,0.236328 -0.181324,1.015508 -0.227968,2.035136 -0.230468,3.0625 0,0.168561 -5.53e-4,0.337315 -0.002,0.505859 -0.02181,2.431508 0.664339,4.62143 1.863281,6.78125 h 0.160156 c 0,0.22168 -7.87e-4,0.22269 0.07031,0.34961 0.03358,0.0467 0.06702,0.09132 0.09961,0.136718 0.05427,0.07539 0.05421,0.07639 0.107422,0.150391 0.03867,0.05254 0.07574,0.103197 0.113281,0.154297 0.132007,0.18546 0.265409,0.361342 0.410156,0.539062 h 0.16211 c 0,0.14778 -4.1e-5,0.149196 0.09961,0.292969 0.04453,0.0547 0.08763,0.10696 0.13086,0.16016 0.129731,0.16224 0.129044,0.163 0.25,0.28711 h 0.160156 v 0.14648 h 0.160156 v 0.14844 h 0.160156 v 0.14844 c 0.193036,0.21812 0.407571,0.40398 0.671875,0.54492 0.04433,0.0158 0.08784,0.0296 0.13086,0.0449 v 0.14844 h 0.160156 v 0.14844 h 0.160156 v 0.14648 c 0.122709,0.1077 0.124127,0.10949 0.482422,0.357416 0.08194,0.055 0.160714,0.10686 0.240234,0.16016 0.768996,0.51881 1.543494,0.97529 2.41211,1.33984 0.05255,0.0218 0.103287,0.0432 0.154297,0.0645 1.95849,0.81609 4.057135,1.08853 6.173828,1.32031 0.05939,0.007 0.116228,0.0135 0.173828,0.0195 2.11787,0.237314 4.237862,0.309644 6.36914,0.306644 0.322999,-5.2e-4 0.645753,-2.2e-4 0.96875,0 0.546741,2e-4 1.093891,5.7e-4 1.640626,0 0.62738,-8.1e-4 1.25348,-5.6e-4 1.880859,0 0.549228,5e-4 1.099209,3.1e-4 1.648437,0 0.32751,-2.3e-4 0.654919,-3.6e-4 0.982422,0 2.121095,0.003 4.231632,-0.0527 6.339844,-0.291014 0.07296,-0.008 0.144014,-0.0174 0.214844,-0.0254 3.019507,-0.34646 6.112231,-0.89581 8.583984,-2.66015 v -0.14649 c 0.207636,0 0.208455,-10e-4 0.642578,-0.296866 v -0.14649 c 0.160444,0 0.159321,1.2e-4 0.322266,-0.13086 0.06734,-0.0619 0.133829,-0.12349 0.199219,-0.18359 0.07332,-0.0673 0.143743,-0.13196 0.214843,-0.19726 0.07671,-0.0713 0.152073,-0.13979 0.226563,-0.20899 0.113949,-0.10407 0.112933,-0.105 0.224609,-0.20703 0.07332,-0.0678 0.143734,-0.13352 0.214844,-0.19922 0.183158,-0.16918 0.338536,-0.31281 0.464844,-0.52148 0.01963,-0.0428 0.03762,-0.0834 0.05664,-0.125 h 0.16211 c 0.08231,-0.10071 0.163501,-0.20306 0.238281,-0.3086 0.03141,-0.04609 0.06128,-0.09006 0.0918,-0.134765 0.240933,-0.349 0.463459,-0.705979 0.667969,-1.074219 0.04294,-0.07888 0.04196,-0.07895 0.08398,-0.15625 0.129449,-0.23793 0.256631,-0.470223 0.337891,-0.726563 0.0079,-0.03863 0.01624,-0.07568 0.02344,-0.113281 h 0.160156 c 0.07551,-0.22896 0.076,-0.229398 0.214844,-0.455078 0.535388,-0.89824 0.960813,-1.776183 1.193359,-2.783203 0.01241,-0.05439 0.02318,-0.107257 0.03516,-0.160156 0.446413,-1.858425 0.36081,-3.91169 0.03711,-5.78125 -0.01261,-0.06965 -0.02513,-0.137449 -0.03711,-0.205079 -0.258844,-1.488424 -0.689486,-2.924951 -1.22056,-4.349596 -0.07033,-0.187273 -0.140515,-0.374663 -0.208985,-0.5625 -0.457863,-1.261032 -0.994616,-2.495564 -1.613281,-3.697266 -0.107831,-0.205007 -0.216224,-0.407589 -0.302734,-0.621093 -0.119563,-0.306792 -0.254655,-0.59057 -0.423828,-0.876953 -0.3712,-0.620744 -0.708154,-1.254354 -1.033204,-1.896485 -0.08176,-0.162082 -0.164276,-0.32512 -0.248046,-0.486328 -0.817993,-1.562218 -1.522888,-3.195815 -1.746094,-4.927734 -0.0067,-0.05741 -0.01429,-0.114202 -0.02148,-0.169922 -0.100586,-0.826465 -0.07918,-1.612816 0.05469,-2.435547 0.0085,-0.05151 0.01679,-0.100421 0.02539,-0.150391 0.235807,-1.411981 0.826022,-2.826249 1.466796,-4.123047 0.263246,-0.521945 0.491486,-1.050454 0.703125,-1.591796 0.03873,-0.09914 0.03821,-0.100076 0.07617,-0.197266 0.562972,-1.425551 1.102663,-2.853508 1.34961,-4.359375 0.344229,-2.411407 0.126232,-5.229375 -1.509766,-7.242188 H 75.79223 c -0.02729,-0.07538 -0.05369,-0.149516 -0.08008,-0.222656 -0.35163,-0.361909 -0.737502,-0.668869 -1.228516,-0.853515 -0.796264,-0.227856 -1.606021,-0.170893 -2.345703,0.175781 -0.549421,0.308849 -1.179192,0.775776 -1.375,1.363281 -0.0122,0.06427 -0.01341,0.06589 -0.02539,0.128906 h -0.160156 c -0.204943,0.492904 -0.37859,0.986412 -0.527344,1.496094 -0.186368,0.643712 -0.371739,1.270806 -0.669922,1.878906 -0.149393,0.299011 -0.282847,0.606961 -0.373047,0.925782 -0.01172,0.04477 -0.02197,0.0894 -0.0332,0.132812 h -0.160156 c -0.103112,0.176354 -0.180523,0.345097 -0.251953,0.535156 -0.02387,0.06908 -0.04716,0.136075 -0.07031,0.203125 h -0.160157 c -0.110483,0.240563 -0.267834,0.425189 -0.451172,0.623047 -0.221863,0.235916 -0.452547,0.459949 -0.617187,0.734375 -0.02783,0.06067 -0.02741,0.06169 -0.05469,0.121094 -0.160417,0 -0.159268,-5.66e-4 -0.304687,0.09961 -0.776692,0.599216 -1.676992,1.035725 -2.707031,1.035156 -0.06999,-0.0012 -0.139112,-0.0028 -0.207032,-0.0039 -0.265403,7.4e-4 -0.526529,-0.0017 -0.791015,-0.02344 -0.696453,-0.144905 -1.25212,-0.422973 -1.685547,-0.951172 -0.07718,-0.103591 -0.156205,-0.205718 -0.240234,-0.304688 h -0.160157 c -0.05252,-0.148088 -0.105936,-0.295798 -0.160156,-0.443359 -0.356731,-0.815023 -0.367234,-1.572535 -0.365234,-2.441406 2.83e-4,-0.168928 -0.0013,-0.338878 -0.002,-0.507813 -0.0028,-0.461517 -0.004,-0.921282 -0.0039,-1.382812 0,-0.489839 -0.0019,-0.980863 -0.0039,-1.470703 -0.0027,-0.87272 -0.0045,-1.744462 -0.0059,-2.617188 -6e-4,-0.849712 -0.0011,-1.701076 -0.0039,-2.550781 -1.58e-4,-0.05416 1.58e-4,-0.105673 0,-0.158203 -7e-4,-0.264061 -0.0032,-0.528908 -0.0039,-0.792969 -0.0066,-2.142576 -0.01087,-4.285152 -0.01367,-6.427734 -8.2e-5,-0.09287 8.2e-5,-0.183308 0,-0.273438 -0.03735,-6.7e-5 -0.07398,6.6e-5 -0.111328,0 V 13.610285 Z"
     inkscape:label="Gitaar" />
  <path
     style="display:inline;fill:#ffffff;fill-opacity:0.89531475;stroke-width:1.42275"
     id="rect9"
     width="60"
     height="60"
     x="74"
     y="-20"
     rx="12.48947"
     ry="12.849744"
     inkscape:label="Flap"
     clip-path="none"
     mask="url(#mask-powermask-path-effect11)"
     inkscape:path-effect="#path-effect11"
     sodipodi:type="rect"
     d="m 86.48947,-20 h 35.02106 C 128.4297,-20 134,-14.269014 134,-7.1502562 V 27.150256 C 134,34.269014 128.4297,40 121.51053,40 H 86.48947 C 79.570303,40 74,34.269014 74,27.150256 V -7.1502562 C 74,-14.269014 79.570303,-20 86.48947,-20 Z" />
</svg>
