<?xml version="1.0" encoding="UTF-8" standalone="no"?>
<svg
   width="33.750061mm"
   height="33.750061mm"
   viewBox="0 0 33.750061 33.750061"
   version="1.1"
   id="svg974"
   sodipodi:docname="nl.desbeers.chordprovider.svg"
   inkscape:version="1.4 (e7c3feb1, 2024-10-09)"
   xmlns:inkscape="http://www.inkscape.org/namespaces/inkscape"
   xmlns:sodipodi="http://sodipodi.sourceforge.net/DTD/sodipodi-0.dtd"
   xmlns:xlink="http://www.w3.org/1999/xlink"
   xmlns="http://www.w3.org/2000/svg"
   xmlns:svg="http://www.w3.org/2000/svg"
   xmlns:rdf="http://www.w3.org/1999/02/22-rdf-syntax-ns#"
   xmlns:cc="http://creativecommons.org/ns#"
   xmlns:dc="http://purl.org/dc/elements/1.1/">
  <sodipodi:namedview
     id="namedview1"
     pagecolor="#ffffff"
     bordercolor="#000000"
     borderopacity="0.25"
     inkscape:showpageshadow="2"
     inkscape:pageopacity="0.0"
     inkscape:pagecheckerboard="0"
     inkscape:deskcolor="#d1d1d1"
     inkscape:document-units="mm"
     inkscape:zoom="5.3880596"
     inkscape:cx="49.182826"
     inkscape:cy="57.441829"
     inkscape:window-width="1728"
     inkscape:window-height="1080"
     inkscape:window-x="0"
     inkscape:window-y="37"
     inkscape:window-maximized="0"
     inkscape:current-layer="svg974"
     showgrid="true">
    <inkscape:grid
       id="grid1"
       units="mm"
       originx="0"
       originy="0"
       spacingx="0.99999998"
       spacingy="0.99999998"
       empcolor="#0099e5"
       empopacity="0.30196078"
       color="#0099e5"
       opacity="0.14901961"
       empspacing="5"
       enabled="true"
       visible="true" />
  </sodipodi:namedview>
  <defs
     id="defs968">
    <clipPath
       clipPathUnits="userSpaceOnUse"
       id="clipPath18689">
      <rect
         clip-path="none"
         transform="rotate(45)"
         ry="32.000008"
         rx="32.000008"
         y="123.9986"
         x="486.03726"
         height="362.94299"
         width="362.94299"
         id="rect18691"
         style="display:inline;opacity:1;vector-effect:none;fill:#4a86cf;fill-opacity:1;stroke:none;stroke-width:26.0669;stroke-linecap:butt;stroke-linejoin:miter;stroke-miterlimit:4;stroke-dasharray:none;stroke-dashoffset:0;stroke-opacity:1;marker:none;marker-start:none;marker-mid:none;marker-end:none;paint-order:normal;enable-background:new" />
    </clipPath>
    <clipPath
       clipPathUnits="userSpaceOnUse"
       id="clipPath18689-3">
      <rect
         clip-path="none"
         transform="rotate(45)"
         ry="32.000008"
         rx="32.000008"
         y="123.9986"
         x="486.03726"
         height="362.94299"
         width="362.94299"
         id="rect18691-6"
         style="display:inline;opacity:1;vector-effect:none;fill:#4a86cf;fill-opacity:1;stroke:none;stroke-width:26.0669;stroke-linecap:butt;stroke-linejoin:miter;stroke-miterlimit:4;stroke-dasharray:none;stroke-dashoffset:0;stroke-opacity:1;marker:none;marker-start:none;marker-mid:none;marker-end:none;paint-order:normal;enable-background:new" />
    </clipPath>
    <linearGradient
       inkscape:collect="always"
       xlink:href="#linearGradient3"
       id="linearGradient2"
       x1="66.172516"
       y1="176.29971"
       x2="66.172516"
       y2="283.89816"
       gradientUnits="userSpaceOnUse"
       gradientTransform="matrix(0.26458333,0,0,0.28354607,-0.0945519,-48.328206)" />
    <linearGradient
       inkscape:collect="always"
       id="linearGradient3">
      <stop
         style="stop-color:#b0bcb6;stop-opacity:1;"
         offset="0.00000066"
         id="stop2" />
      <stop
         style="stop-color:#465249;stop-opacity:1;"
         offset="1"
         id="stop3" />
    </linearGradient>
  </defs>
  <metadata
     id="metadata971">
    <rdf:RDF>
      <cc:Work
         rdf:about="">
        <dc:format>image/svg+xml</dc:format>
        <dc:type
           rdf:resource="http://purl.org/dc/dcmitype/StillImage" />
        <dc:title />
      </cc:Work>
    </rdf:RDF>
  </metadata>
  <g
     id="layer1"
     transform="translate(-61.819823,-103.94395)"
     style="display:none">
    <g
       transform="matrix(0.26367235,0,0,0.26367235,61.819823,-529.39703)"
       style="display:inline;stroke-width:0.25;enable-background:new"
       id="g1836">
      <title
         id="title1838">application-x-executable</title>
      <g
         transform="matrix(0.25,0,0,0.25,0,2295)"
         id="g18818"
         style="stroke-width:0.25">
        <g
           style="stroke-width:0.269963"
           transform="matrix(0.92605186,0,0,0.92605186,18.930729,50.876335)"
           id="g18590">
          <g
             style="stroke-width:0.269963"
             id="g18681"
             clip-path="url(#clipPath18689-3)">
            <rect
               style="opacity:1;vector-effect:none;fill:#3584e4;fill-opacity:1;stroke:none;stroke-width:8.22095;stroke-linecap:butt;stroke-linejoin:miter;stroke-miterlimit:4;stroke-dasharray:none;stroke-dashoffset:0;stroke-opacity:1;marker:none;marker-start:none;marker-mid:none;marker-end:none;paint-order:normal"
               id="rect18571"
               width="424"
               height="424"
               x="458.33722"
               y="90.641701"
               rx="10.092117"
               ry="10.092117"
               transform="matrix(0.60528171,0.60528171,-0.60528171,0.60528171,33.440632,99.073632)"
               clip-path="none" />
            <circle
               style="opacity:1;vector-effect:none;fill:#f66151;fill-opacity:1;stroke:none;stroke-width:7.03712;stroke-linecap:butt;stroke-linejoin:miter;stroke-miterlimit:4;stroke-dasharray:none;stroke-dashoffset:0;stroke-opacity:1;marker:none;marker-start:none;marker-mid:none;marker-end:none;paint-order:normal"
               id="path18706"
               cx="0"
               cy="0"
               r="0"
               transform="translate(0,-212)" />
            <circle
               style="opacity:1;vector-effect:none;fill:#f66151;fill-opacity:1;stroke:none;stroke-width:7.03712;stroke-linecap:butt;stroke-linejoin:miter;stroke-miterlimit:4;stroke-dasharray:none;stroke-dashoffset:0;stroke-opacity:1;marker:none;marker-start:none;marker-mid:none;marker-end:none;paint-order:normal"
               id="path18708"
               cx="0"
               cy="0"
               r="0"
               transform="translate(0,-212)" />
            <path
               style="display:inline;opacity:1;vector-effect:none;fill:#98c1f1;fill-opacity:1;stroke:none;stroke-width:7.03712;stroke-linecap:butt;stroke-linejoin:miter;stroke-miterlimit:4;stroke-dasharray:none;stroke-dashoffset:0;stroke-opacity:1;marker:none;marker-start:none;marker-mid:none;marker-end:none;paint-order:normal;enable-background:new"
               d="m 408.91993,561.9183 -9.8861,29.82892 a 172.97099,172.97099 0 0 0 -1.42693,-0.0713 172.97099,172.97099 0 0 0 -23.92891,1.85189 l -13.80082,-28.50125 a 203.29325,203.29325 0 0 0 -29.40085,7.97217 l 2.28619,31.40474 a 172.97099,172.97099 0 0 0 -22.73152,11.31923 l -23.71796,-21.103 a 203.29325,203.29325 0 0 0 -24.05918,18.6741 l 14.09863,28.07319 a 172.97099,172.97099 0 0 0 -16.63608,19.21074 l -30.05845,-10.44758 a 203.29325,203.29325 0 0 0 -15.01683,26.48807 l 23.73035,20.50738 a 172.97099,172.97099 0 0 0 -7.98456,24.14293 l -31.73044,1.84879 a 203.29325,203.29325 0 0 0 -3.77825,30.21664 l 29.82892,9.8861 a 172.97099,172.97099 0 0 0 -0.0713,1.42693 172.97099,172.97099 0 0 0 1.85188,23.92889 l -28.50125,13.80084 a 203.29325,203.29325 0 0 0 7.97215,29.40084 l 31.40475,-2.28619 a 172.97099,172.97099 0 0 0 11.31922,22.73152 l -21.10296,23.71797 a 203.29325,203.29325 0 0 0 18.67409,24.05918 l 28.07319,-14.09863 a 172.97099,172.97099 0 0 0 19.21074,16.63606 l -10.44758,30.05847 a 203.29325,203.29325 0 0 0 26.48806,15.01683 l 20.50739,-23.73036 a 172.97099,172.97099 0 0 0 24.14293,7.98457 l 1.8488,31.73043 a 203.29325,203.29325 0 0 0 30.21666,3.77826 l 9.8861,-29.82892 a 172.97099,172.97099 0 0 0 1.42693,0.0713 172.97099,172.97099 0 0 0 23.9289,-1.85188 l 13.80084,28.50125 a 203.29325,203.29325 0 0 0 29.40084,-7.97217 l -2.2862,-31.40474 a 172.97099,172.97099 0 0 0 22.73153,-11.31922 l 23.71796,21.10297 A 203.29325,203.29325 0 0 0 532.96,916.00016 l -14.09864,-28.07319 a 172.97099,172.97099 0 0 0 16.63607,-19.21073 l 30.05846,10.44757 a 203.29325,203.29325 0 0 0 15.01683,-26.48807 l -23.73036,-20.50738 a 172.97099,172.97099 0 0 0 7.98457,-24.14293 l 31.73044,-1.84879 a 203.29325,203.29325 0 0 0 3.77825,-30.21667 l -29.82892,-9.8861 a 172.97099,172.97099 0 0 0 0.0713,-1.42692 172.97099,172.97099 0 0 0 -1.85189,-23.9289 l 28.50124,-13.80084 a 203.29325,203.29325 0 0 0 -7.97215,-29.40084 l -31.40474,2.2862 a 172.97099,172.97099 0 0 0 -11.31923,-22.73153 l 21.10297,-23.71797 a 203.29325,203.29325 0 0 0 -18.67409,-24.05918 l -28.07319,14.09863 a 172.97099,172.97099 0 0 0 -19.21074,-16.63606 l 10.44757,-30.05847 A 203.29325,203.29325 0 0 0 485.6357,581.68117 l -20.50738,23.73035 a 172.97099,172.97099 0 0 0 -24.14293,-7.98455 l -1.84879,-31.73044 a 203.29325,203.29325 0 0 0 -30.21667,-3.77826 z M 397.6069,637.72208 A 126.92605,126.92605 0 0 1 524.5318,764.64699 126.92605,126.92605 0 0 1 397.6069,891.57189 126.92605,126.92605 0 0 1 270.682,764.64699 126.92605,126.92605 0 0 1 397.6069,637.72208 Z"
               id="path18717-4" />
            <path
               id="path18758"
               d="m 51.748325,401.28402 -9.8861,29.82892 c -0.475543,-0.0257 -0.951191,-0.0495 -1.42693,-0.0713 -8.00956,0.0625 -16.005106,0.6813 -23.92891,1.85189 L 2.7055639,404.39228 c -9.9858697,1.91835 -19.8137359,4.58322 -29.4008489,7.97217 l 2.28619,31.40474 c -7.844275,3.21103 -15.441918,6.9943 -22.73152,11.31923 l -23.71796,-21.103 c -8.475372,5.61437 -16.517661,11.85658 -24.05918,18.6741 l 14.09863,28.07319 c -6.008901,5.98701 -11.569263,12.40791 -16.636077,19.21074 l -30.058438,-10.44758 c -5.66072,8.44155 -10.68041,17.29574 -15.01683,26.48807 l 23.73035,20.50738 c -3.25027,7.84084 -5.919,15.91028 -7.98456,24.14293 l -31.73044,1.84879 c -2.01308,9.96359 -3.27604,20.06413 -3.77825,30.21664 l 29.82892,9.8861 c -0.0257,0.47554 -0.0495,0.95119 -0.0713,1.42693 0.0625,8.00955 0.68129,16.00509 1.85188,23.92889 l -28.50125,13.80084 c 1.91835,9.98587 4.58321,19.81373 7.97215,29.40084 l 31.40475,-2.28619 c 3.21102,7.84427 6.99429,15.44192 11.31922,22.73152 l -21.10296,23.71797 c 5.61437,8.47537 11.85658,16.51766 18.67409,24.05918 l 28.073175,-14.09863 c 5.987006,6.00889 12.407911,11.56925 19.21074,16.63606 l -10.44758,30.05847 c 8.441549,5.66072 17.295731,10.68041 26.48806,15.01683 l 20.50739,-23.73036 c 7.840839,3.25027 15.910282,5.91901 24.142929,7.98457 l 1.8488,31.73043 c 9.9635962,2.01309 20.064147,3.27605 30.216661,3.77826 l 9.8861,-29.82892 c 0.475543,0.0257 0.951191,0.0495 1.42693,0.0713 8.009557,-0.0625 16.005099,-0.68129 23.9289,-1.85188 l 13.80084,28.50125 c 9.985867,-1.91835 19.813731,-4.58322 29.400855,-7.97217 l -2.2862,-31.40474 c 7.84428,-3.21102 15.44192,-6.99429 22.73153,-11.31922 l 23.71796,21.10297 c 8.47538,-5.61437 16.51767,-11.85658 24.05919,-18.6741 l -14.09864,-28.07319 c 6.0089,-5.987 11.56926,-12.4079 16.63607,-19.21073 l 30.05846,10.44757 c 5.66072,-8.44155 10.68041,-17.29574 15.01683,-26.48807 l -23.73036,-20.50738 c 3.25027,-7.84084 5.91901,-15.91028 7.98457,-24.14293 l 31.73044,-1.84879 c 2.01308,-9.9636 3.27604,-20.06415 3.77825,-30.21667 l -29.82892,-9.8861 c 0.0257,-0.47554 0.0495,-0.95118 0.0713,-1.42692 -0.0625,-8.00956 -0.6813,-16.0051 -1.85189,-23.9289 l 28.50124,-13.80084 c -1.91835,-9.98587 -4.58321,-19.81373 -7.97215,-29.40084 l -31.40474,2.2862 c -3.21103,-7.84428 -6.9943,-15.44192 -11.31923,-22.73153 l 21.10297,-23.71797 c -5.61437,-8.47537 -11.85658,-16.51766 -18.67409,-24.05918 l -28.07319,14.09863 c -5.98701,-6.00889 -12.40791,-11.56925 -19.21074,-16.63606 l 10.44757,-30.05847 c -8.44155,-5.66072 -17.29572,-10.6804 -26.48805,-15.01682 l -20.50738,23.73035 c -7.84085,-3.25027 -15.910298,-5.91899 -24.142945,-7.98455 l -1.84879,-31.73044 c -9.9636,-2.01309 -20.064152,-3.27605 -30.21667,-3.77826 z"
               style="display:inline;opacity:1;vector-effect:none;fill:#1a5fb4;fill-opacity:1;stroke:none;stroke-width:7.03712;stroke-linecap:butt;stroke-linejoin:miter;stroke-miterlimit:4;stroke-dasharray:none;stroke-dashoffset:0;stroke-opacity:1;marker:none;marker-start:none;marker-mid:none;marker-end:none;paint-order:normal;enable-background:new" />
          </g>
        </g>
        <path
           style="display:inline;opacity:0.534;vector-effect:none;fill:#1a5fb4;fill-opacity:1;stroke:none;stroke-width:1.62918;stroke-linecap:butt;stroke-linejoin:miter;stroke-miterlimit:4;stroke-dasharray:none;stroke-dashoffset:0;stroke-opacity:1;marker:none;marker-start:none;marker-mid:none;marker-end:none;paint-order:normal;enable-background:new"
           clip-path="none"
           d="m 8.4765625,2676 c -1.1711695,2.8866 -0.5827763,6.3078 1.7656255,8.6562 l 48.101562,48.1016 c 3.133898,3.1339 8.178602,3.1339 11.3125,0 l 48.10156,-48.1016 c 2.3484,-2.3484 2.9368,-5.7696 1.76563,-8.6562 -0.39174,0.9655 -0.98013,1.8708 -1.76563,2.6562 l -48.10156,48.1016 c -3.133898,3.1339 -8.178602,3.1339 -11.3125,0 L 10.242188,2678.6562 C 9.4566904,2677.8708 8.8682972,2676.9655 8.4765625,2676 Z"
           transform="matrix(4,0,0,4,0,-10028)"
           id="rect18571-6" />
      </g>
      <rect
         y="2402"
         x="-1.5000001e-06"
         height="128"
         width="128"
         id="rect9125-7-2"
         style="display:inline;opacity:1;vector-effect:none;fill:none;fill-opacity:1;stroke:none;stroke-width:1.25;stroke-linecap:butt;stroke-linejoin:miter;stroke-miterlimit:4;stroke-dasharray:none;stroke-dashoffset:0;stroke-opacity:1;marker:none;marker-start:none;marker-mid:none;marker-end:none;paint-order:normal;enable-background:new" />
    </g>
  </g>
  <rect
     style="display:none;fill:#69736d;fill-opacity:1;stroke-width:0.488648;enable-background:new"
     id="rect1"
     width="28.468754"
     height="21.156345"
     x="2.6100297"
     y="10.837809"
     ry="3.3840001" />
  <rect
     style="display:inline;fill:url(#linearGradient2);stroke-width:0.561537;enable-background:new"
     id="rect1-6"
     width="28.469"
     height="29.081348"
     x="3.1792152"
     y="2.3747625"
     ry="6.4809999" />
  <path
     d="m 15.839578,1.2683343 c 0.02679,2.91e-5 0.05357,6.61e-5 0.08117,1.005e-4 0.03065,-3.44e-5 0.06129,-1.005e-4 0.09287,-1.376e-4 0.05082,1.72e-4 0.05082,1.72e-4 0.102668,2.646e-4 0.03547,-5.3e-6 0.07095,-7.9e-6 0.107501,-1.59e-5 0.117877,2.39e-5 0.235753,2.646e-4 0.353631,5.292e-4 0.08148,6.88e-5 0.162968,1.032e-4 0.244453,1.376e-4 0.214944,1.376e-4 0.429888,5.292e-4 0.644832,7.937e-4 0.219143,2.646e-4 0.438286,5.292e-4 0.65743,5.292e-4 0.430339,2.646e-4 0.860677,7.938e-4 1.291015,0.00159 3.5e-5,0.041815 1.04e-4,0.083632 1.39e-4,0.1267143 0.0012,0.9939575 0.0032,1.9879098 0.006,2.9818647 3.43e-4,0.1224994 6.61e-4,0.2449988 0.001,0.3674983 6.9e-5,0.024368 1.38e-4,0.048771 2.07e-4,0.073896 0.0011,0.3941841 0.0017,0.7883657 0.0021,1.1825525 4.5e-4,0.4048628 0.0014,0.8097176 0.0028,1.2145777 7.68e-4,0.2272401 0.0013,0.4544748 0.0013,0.6817148 -2.5e-5,0.2141062 6.35e-4,0.4281964 0.0017,0.6422972 2.65e-4,0.07837 3.71e-4,0.1567366 1.73e-4,0.2351035 -8.73e-4,0.4030742 0.0037,0.7546499 0.157733,1.1327446 0.02342,0.06845 0.0466,0.1369908 0.06927,0.2056898 0.02286,0 0.04572,0 0.06927,0 0.03628,0.04591 0.07058,0.09336 0.103904,0.141412 0.18713,0.245036 0.426634,0.374152 0.727325,0.441375 0.114189,0.01005 0.227429,0.01114 0.342016,0.01072 0.02933,5.29e-4 0.05867,0.0011 0.08889,0.0016 0.444716,2.65e-4 0.833449,-0.202165 1.16878,-0.480145 0.06278,-0.04647 0.06278,-0.04647 0.132044,-0.04647 0.01178,-0.02756 0.01178,-0.02756 0.02381,-0.0557 0.07108,-0.127307 0.170194,-0.2317668 0.265982,-0.3412088 0.07915,-0.091792 0.147389,-0.1771174 0.19509,-0.288716 0.02286,0 0.04572,0 0.06927,0 0.01,-0.03111 0.02,-0.062222 0.0303,-0.094274 0.03084,-0.088172 0.06372,-0.1667298 0.108233,-0.2485416 0.02286,0 0.04572,0 0.06927,0 0.0048,-0.020135 0.0096,-0.040301 0.01461,-0.061063 0.03894,-0.1479027 0.09623,-0.2907512 0.16073,-0.4294643 0.12874,-0.2821014 0.208754,-0.5736088 0.289218,-0.8722307 0.06423,-0.2364449 0.139653,-0.4654841 0.228135,-0.694145 0.02286,0 0.04572,0 0.06927,0 0.0052,-0.029234 0.0052,-0.029234 0.01042,-0.059052 0.08454,-0.2725473 0.356312,-0.4897279 0.593522,-0.6330051 0.319353,-0.1608243 0.669275,-0.1871239 1.013061,-0.08142 0.211993,0.085659 0.378527,0.2284915 0.530342,0.3963829 0.0114,0.033935 0.02283,0.067876 0.03463,0.1028435 0.02289,0 0.04572,0 0.06927,0 0.706337,0.9337569 0.799914,2.2407959 0.651293,3.3594621 -0.106624,0.698582 -0.338963,1.361424 -0.582025,2.022747 -0.01638,0.04509 -0.01638,0.04509 -0.03311,0.09108 -0.09137,0.251132 -0.190262,0.496779 -0.303916,0.738913 -0.276653,0.601593 -0.530948,1.257514 -0.632756,1.91254 -0.0037,0.02318 -0.0073,0.04639 -0.01105,0.07029 -0.05779,0.381669 -0.06701,0.746167 -0.02359,1.129569 0.0031,0.02585 0.0058,0.05169 0.0088,0.07832 0.09636,0.803449 0.401349,1.562134 0.754515,2.286857 0.03617,0.07479 0.07158,0.149902 0.106881,0.225092 0.14034,0.297889 0.285438,0.591685 0.445701,0.879652 0.07304,0.132855 0.131781,0.264832 0.183404,0.407154 0.03735,0.09905 0.08414,0.193035 0.13069,0.288139 0.267105,0.557477 0.4987,1.129967 0.696378,1.714968 0.02958,0.08714 0.05984,0.174033 0.0902,0.260909 0.22929,0.660902 0.415544,1.327438 0.527362,2.017929 0.0052,0.03136 0.01048,0.06271 0.01587,0.09501 0.139755,0.867299 0.176853,1.819664 -0.01587,2.681801 -0.0052,0.02453 -0.01037,0.04901 -0.01572,0.07425 -0.100407,0.467164 -0.284004,0.875085 -0.515155,1.291788 -0.05994,0.104688 -0.05994,0.104688 -0.09254,0.210913 -0.02289,0 -0.04572,0 -0.06927,0 -0.0031,0.01741 -0.0064,0.03482 -0.0098,0.05276 -0.03509,0.118917 -0.09023,0.226814 -0.146117,0.337193 -0.01815,0.03586 -0.01815,0.03586 -0.03668,0.07245 -0.08829,0.170831 -0.183994,0.335579 -0.288017,0.497483 -0.01318,0.02074 -0.02641,0.04148 -0.03998,0.06286 -0.03229,0.04896 -0.06735,0.09612 -0.102889,0.14283 -0.02283,0 -0.04571,0 -0.06927,0 -0.0082,0.01926 -0.01643,0.03852 -0.0249,0.05835 -0.05453,0.0968 -0.121155,0.163664 -0.200231,0.24215 -0.0307,0.03049 -0.06143,0.06098 -0.09308,0.0924 -0.04822,0.04733 -0.04822,0.04733 -0.09741,0.09561 -0.03216,0.03208 -0.06429,0.06417 -0.09741,0.09722 -0.0307,0.03032 -0.06143,0.06063 -0.09308,0.09187 -0.02823,0.02785 -0.05643,0.0557 -0.0855,0.0844 -0.07035,0.06076 -0.07035,0.06076 -0.139623,0.06076 0,0.02262 0,0.04525 0,0.06856 -0.187431,0.137129 -0.187431,0.137129 -0.277075,0.137129 0,0.02262 0,0.04525 0,0.06856 -1.067168,0.818491 -2.402233,1.073409 -3.705891,1.234138 -0.03058,0.0038 -0.06117,0.0076 -0.09267,0.01151 -0.910212,0.110564 -1.821685,0.136348 -2.737456,0.134821 -0.1414,-1.72e-4 -0.2828,-1.1e-5 -0.4242,1.03e-4 -0.237128,1.38e-4 -0.474254,-3.2e-5 -0.711381,-2.64e-4 -0.270869,-2.65e-4 -0.541734,-2.41e-4 -0.812603,1.37e-4 -0.236051,2.65e-4 -0.472101,2.65e-4 -0.708152,1.72e-4 -0.139453,-1.03e-4 -0.278904,-1.37e-4 -0.418357,1.01e-4 -0.92017,0.0013 -1.835095,-0.03208 -2.749477,-0.142187 -0.02488,-0.0029 -0.04975,-0.0058 -0.07539,-0.0089 -0.913873,-0.107533 -1.81952,-0.233917 -2.66509,-0.612517 -0.02202,-0.0098 -0.04403,-0.01958 -0.06672,-0.02968 -0.37502,-0.169114 -0.7095739,-0.380995 -1.0415844,-0.621675 -0.034333,-0.02474 -0.068666,-0.04949 -0.1040392,-0.07499 -0.1546916,-0.115015 -0.1546916,-0.115015 -0.2076715,-0.164979 0,-0.02262 0,-0.04525 0,-0.06856 -0.022857,0 -0.045718,0 -0.069269,0 0,-0.02262 0,-0.04525 0,-0.06856 -0.02286,0 -0.045718,0 -0.069269,0 0,-0.02262 0,-0.04525 0,-0.06856 -0.018574,-0.0071 -0.037145,-0.01413 -0.056281,-0.02141 -0.1141126,-0.06539 -0.2067208,-0.151635 -0.2900635,-0.252825 0,-0.02262 0,-0.04526 0,-0.06856 -0.02286,0 -0.045718,0 -0.069269,0 0,-0.02262 0,-0.04525 0,-0.06856 -0.02286,0 -0.045718,0 -0.069269,0 0,-0.02262 0,-0.04525 0,-0.06857 -0.02286,0 -0.045717,0 -0.069269,0 -0.052222,-0.05758 -0.052222,-0.05758 -0.1082329,-0.132839 -0.018664,-0.02466 -0.037324,-0.04932 -0.056551,-0.07472 -0.043023,-0.06669 -0.043023,-0.06669 -0.043023,-0.135252 -0.022857,0 -0.045718,0 -0.069269,0 -0.062494,-0.08244 -0.1205084,-0.164642 -0.1775021,-0.250682 -0.016208,-0.02365 -0.032413,-0.04733 -0.049111,-0.07171 -0.022971,-0.0343 -0.022971,-0.0343 -0.046404,-0.0693 -0.014068,-0.02101 -0.028139,-0.04201 -0.042634,-0.06365 -0.030695,-0.05888 -0.030695,-0.05888 -0.030695,-0.161722 -0.02286,0 -0.045717,0 -0.069269,0 C 7.1562917,28.004 6.8607892,26.987431 6.8702076,25.859435 c 6.35e-4,-0.07819 7.143e-4,-0.156374 7.143e-4,-0.234571 0.00108,-0.4766 0.021222,-0.949376 0.099507,-1.420477 0.00597,-0.03622 0.011933,-0.07244 0.018079,-0.109757 0.1178036,-0.682641 0.3050786,-1.376466 0.581532,-2.013558 0.040605,-0.110149 0.078652,-0.221134 0.1168918,-0.332105 0.090727,-0.259361 0.1882534,-0.513086 0.2987225,-0.764908 0.021833,-0.05158 0.043609,-0.103182 0.065346,-0.154803 0.2390669,-0.564517 0.5083373,-1.113768 0.7817117,-1.66266 0.5638376,-1.132448 0.5638376,-1.132448 0.9539374,-2.330611 0.010491,-0.04092 0.020984,-0.08184 0.031792,-0.124002 0.2641397,-1.141535 0.018299,-2.296414 -0.4713121,-3.342334 -0.0832,-0.18148 -0.158084,-0.36636 -0.2336895,-0.551039 -0.01673,-0.04083 -0.033456,-0.08166 -0.050692,-0.123735 -0.2832933,-0.694007 -0.5520184,-1.39509 -0.696115,-2.132423 -0.00617,-0.03073 -0.012335,-0.06146 -0.018687,-0.09311 -0.060875,-0.339312 -0.064299,-0.6753881 -0.06357,-1.0188966 -6.4e-6,-0.045413 -6.4e-6,-0.045413 -1.25e-5,-0.091742 C 8.2852893,8.8915788 8.3106762,8.4442213 8.435902,7.9913341 8.446705,7.9511231 8.457513,7.9109061 8.468643,7.8694749 8.544174,7.622571 8.6601235,7.3958311 8.782248,7.1685752 c 0.022857,0 0.045718,0 0.069269,0 0.01,-0.026141 0.02,-0.052321 0.030305,-0.079275 0.038964,-0.092131 0.038964,-0.092131 0.1082326,-0.1949768 0.02286,0 0.045718,0 0.069269,0 0,-0.022622 0,-0.045254 0,-0.068564 0.02286,0 0.045717,0 0.069269,0 0.00826,-0.019897 0.016518,-0.039772 0.02503,-0.060259 0.231208,-0.4017169 0.8391258,-0.6042554 1.2615894,-0.7251383 1.21041,-0.2894224 2.526214,0.083693 3.596849,0.6482715 0.03335,0.017277 0.0667,0.034557 0.101062,0.052358 0.139537,0.073647 0.276111,0.1504606 0.410203,0.2334128 0.02286,0.014023 0.04571,0.028019 0.06926,0.042458 0.04469,0.027535 0.08915,0.055433 0.133346,0.083743 0.173917,0.1071907 0.330606,0.1579748 0.5373,0.1129665 0.196209,-0.088662 0.298271,-0.1883198 0.37665,-0.387813 0.07965,-0.2827179 0.07967,-0.5649542 0.07976,-0.8563795 2.65e-4,-0.050996 5.82e-4,-0.1019889 8.73e-4,-0.1529821 6.35e-4,-0.1091088 10e-4,-0.2182124 0.0013,-0.3273213 3.97e-4,-0.1724131 0.0013,-0.3448209 0.0022,-0.5172313 0.0014,-0.2723938 0.0026,-0.5447877 0.0035,-0.8171841 0.0018,-0.4887701 0.0039,-0.9775375 0.0064,-1.4663023 8.47e-4,-0.1715479 0.0015,-0.3430932 0.0021,-0.5146437 3.44e-4,-0.106299 8.47e-4,-0.212598 0.0014,-0.318897 2.15e-4,-0.049461 3.71e-4,-0.098925 4.76e-4,-0.1483863 1.32e-4,-0.067228 4.77e-4,-0.1344506 8.47e-4,-0.2016733 1.32e-4,-0.037698 2.65e-4,-0.075393 3.97e-4,-0.1142312 0.0064,-0.1161283 0.0064,-0.1161283 0.100295,-0.1226159 z"
     fill="#FEFEFE"
     id="path1"
     style="display:inline;fill:#f8f4e2;fill-opacity:1;stroke-width:0.0344575;enable-background:new" />
</svg>
