<?xml version="1.0" encoding="UTF-8" standalone="no"?>
<svg
   width="16"
   height="16"
   version="1.1"
   id="svg2"
   sodipodi:docname="nl.desbeers.chordprovider-symbolic.svg"
   inkscape:version="1.4 (e7c3feb1, 2024-10-09)"
   xmlns:inkscape="http://www.inkscape.org/namespaces/inkscape"
   xmlns:sodipodi="http://sodipodi.sourceforge.net/DTD/sodipodi-0.dtd"
   xmlns="http://www.w3.org/2000/svg"
   xmlns:svg="http://www.w3.org/2000/svg">
  <defs
     id="defs2" />
  <sodipodi:namedview
     id="namedview2"
     pagecolor="#ffffff"
     bordercolor="#000000"
     borderopacity="0.25"
     inkscape:showpageshadow="2"
     inkscape:pageopacity="0.0"
     inkscape:pagecheckerboard="0"
     inkscape:deskcolor="#d1d1d1"
     inkscape:zoom="30.458569"
     inkscape:cx="5.8111726"
     inkscape:cy="7.370668"
     inkscape:window-width="1624"
     inkscape:window-height="754"
     inkscape:window-x="0"
     inkscape:window-y="38"
     inkscape:window-maximized="0"
     inkscape:current-layer="svg2" />
  <path
     d="m 7.4231081,0.02140742 c 0.013795,1.449e-5 0.027578,3.388e-5 0.041789,5.17e-5 0.015784,-1.782e-5 0.031553,-5.17e-5 0.047812,-7.12e-5 0.026164,8.903e-5 0.026164,8.903e-5 0.052853,1.3584e-4 0.018261,-1.56e-6 0.03653,-3.23e-6 0.055343,-8.03e-6 0.060686,1.293e-5 0.1213721,1.3741e-4 0.1820584,2.7325e-4 0.04195,3.565e-5 0.083901,5.181e-5 0.1258502,7.12e-5 0.1106584,6.954e-5 0.2213169,2.7168e-4 0.3319755,4.0752e-4 0.1128206,1.3751e-4 0.2256404,2.7335e-4 0.3384627,2.7335e-4 0.2215489,1.3584e-4 0.4430977,4.0752e-4 0.6646466,8.312e-4 1.77e-5,0.02152489 5.31e-5,0.04304874 7.09e-5,0.06523667 6.13e-4,0.51171451 0.00167,1.02342568 0.00302,1.53513848 1.772e-4,0.06307 3.398e-4,0.1261234 5.171e-4,0.1891981 3.54e-5,0.012614 7.08e-5,0.025114 1.073e-4,0.038036 5.713e-4,0.202936 8.956e-4,0.4058704 0.00104,0.608808 2.315e-4,0.2084344 7.038e-4,0.4168639 0.00146,0.6252951 3.94e-4,0.1169862 6.39e-4,0.2339743 6.39e-4,0.3509639 -1.25e-5,0.1102267 3.274e-4,0.2204451 8.966e-4,0.3306701 1.366e-4,0.040349 1.908e-4,0.080697 8.86e-5,0.1210294 -4.493e-4,0.2075126 0.00188,0.3885133 0.081202,0.583166 0.012052,0.035238 0.023988,0.070525 0.035665,0.1058927 0.01177,0 0.02353,0 0.035665,0 0.018682,0.023643 0.036342,0.048062 0.053492,0.072805 0.096339,0.1261559 0.2196421,0.1926217 0.3744447,0.2272308 0.058788,0.00517 0.1170874,0.00582 0.1760783,0.00549 0.01511,2.732e-4 0.03021,5.724e-4 0.04577,8.328e-4 0.228951,1.359e-4 0.429081,-0.1040809 0.601718,-0.2471915 0.03232,-0.023919 0.03232,-0.023919 0.06798,-0.023919 0.006,-0.014231 0.006,-0.014231 0.01226,-0.028672 0.03659,-0.065544 0.08762,-0.119315 0.136934,-0.1756622 0.04075,-0.047254 0.07587,-0.091177 0.100436,-0.1486346 0.01177,0 0.02353,0 0.03566,0 0.0051,-0.01601 0.01032,-0.032037 0.01561,-0.048531 0.01588,-0.045394 0.03281,-0.08584 0.05572,-0.1279509 0.01177,0 0.02354,0 0.03566,0 0.0025,-0.010352 0.0049,-0.020748 0.0075,-0.031438 0.02005,-0.076153 0.04955,-0.1496857 0.08274,-0.2210984 0.06628,-0.1452386 0.107472,-0.2953091 0.148897,-0.4490474 0.03307,-0.1217247 0.07189,-0.2396426 0.11745,-0.3573631 0.01177,0 0.02354,0 0.03567,0 0.0027,-0.015039 0.0027,-0.015039 0.0054,-0.030403 0.04353,-0.140306 0.183437,-0.252124 0.30556,-0.3258865 0.164409,-0.082799 0.34456,-0.096335 0.521548,-0.041918 0.109144,0.044101 0.194876,0.1176333 0.273034,0.204068 0.0058,0.017465 0.0118,0.034947 0.01782,0.052946 0.0118,0 0.02353,0 0.03565,0 0.36364,0.4807212 0.411814,1.1536178 0.335302,1.7295357 -0.0549,0.3596466 -0.174506,0.7008947 -0.299642,1.0413601 -0.0084,0.023206 -0.0084,0.023206 -0.01704,0.046882 -0.04705,0.1292931 -0.09795,0.2557545 -0.156461,0.3804111 -0.142425,0.3097149 -0.273347,0.6473987 -0.325759,0.9846232 -0.002,0.011967 -0.0038,0.023886 -0.0056,0.036176 -0.02975,0.1964931 -0.0345,0.3841452 -0.01212,0.5815311 0.0016,0.013261 0.003,0.026619 0.0045,0.040316 0.04961,0.4136361 0.206625,0.8042258 0.388444,1.1773322 0.01861,0.038505 0.03685,0.077171 0.05501,0.1158867 0.07226,0.1533566 0.146952,0.3046143 0.229457,0.4528671 0.0376,0.06839 0.06784,0.136344 0.09442,0.2096133 0.01922,0.05099 0.04333,0.099375 0.06729,0.1483434 0.137508,0.2870014 0.256742,0.5817344 0.358512,0.8829074 0.0152,0.04486 0.03081,0.08959 0.04642,0.134322 0.118038,0.340249 0.213933,0.683399 0.2715,1.038881 0.0027,0.01617 0.0053,0.03228 0.0082,0.04892 0.07194,0.446507 0.09104,0.936808 -0.0082,1.380659 -0.0027,0.01261 -0.0053,0.02523 -0.0081,0.03823 -0.05169,0.240508 -0.146208,0.450516 -0.265214,0.665046 -0.03086,0.0539 -0.03086,0.0539 -0.04764,0.108577 -0.0118,0 -0.02355,0 -0.03565,0 -0.0016,0.0089 -0.0032,0.01793 -0.005,0.02717 -0.01807,0.06123 -0.04646,0.116776 -0.07523,0.173596 -0.0094,0.01846 -0.0094,0.01846 -0.01889,0.03729 -0.04545,0.08795 -0.09472,0.172764 -0.148279,0.256115 -0.0068,0.01067 -0.01358,0.02135 -0.02059,0.03236 -0.01663,0.02521 -0.03467,0.04949 -0.05296,0.07353 -0.0118,0 -0.02353,0 -0.03566,0 -0.0042,0.0099 -0.0084,0.01983 -0.01277,0.03005 -0.02807,0.04984 -0.06237,0.08426 -0.103074,0.124667 -0.01585,0.01569 -0.03162,0.03139 -0.04791,0.04756 -0.02482,0.02437 -0.02482,0.02437 -0.05015,0.04923 -0.01656,0.01651 -0.0331,0.03304 -0.05014,0.05005 -0.01585,0.01552 -0.03163,0.03121 -0.04792,0.0473 -0.01455,0.0144 -0.02904,0.02867 -0.04401,0.04345 -0.03621,0.03128 -0.03621,0.03128 -0.07188,0.03128 0,0.01164 0,0.0233 0,0.03529 -0.0965,0.07061 -0.0965,0.07061 -0.14265,0.07061 0,0.01164 0,0.0233 0,0.03529 -0.549405,0.421381 -1.23673,0.552618 -1.907886,0.635366 -0.01573,0.002 -0.0315,0.0039 -0.04771,0.0059 -0.4686,0.05692 -0.9378495,0.0702 -1.409311,0.06941 -0.072799,-9e-5 -0.145593,-7e-6 -0.218389,5.3e-5 -0.122079,7.1e-5 -0.2441579,-1.7e-5 -0.3662373,-1.36e-4 -0.1394506,-1.36e-4 -0.2788982,-1.25e-4 -0.4183484,7.1e-5 -0.1215241,1.36e-4 -0.2430495,1.36e-4 -0.3645742,8.8e-5 -0.071794,-5.4e-5 -0.1435873,-7e-5 -0.2153809,5.1e-5 -0.4737266,6.4e-4 -0.9447527,-0.01651 -1.4154994,-0.07319 -0.012808,-0.0015 -0.025615,-0.003 -0.038814,-0.0045 -0.4704842,-0.05536 -0.9367345,-0.120432 -1.3720541,-0.315341 -0.011336,-0.005 -0.022671,-0.01001 -0.034349,-0.0152 -0.1930725,-0.08707 -0.3653089,-0.196141 -0.5362362,-0.32005 -0.017673,-0.01277 -0.035353,-0.02547 -0.053564,-0.0386 -0.079639,-0.05922 -0.079639,-0.05922 -0.1069147,-0.08493 0,-0.01164 0,-0.0233 0,-0.03529 -0.011773,0 -0.023535,0 -0.03566,0 0,-0.01164 0,-0.0233 0,-0.03529 -0.011773,0 -0.023535,0 -0.03566,0 0,-0.01165 0,-0.0233 0,-0.03529 -0.00956,-0.0038 -0.019126,-0.0073 -0.028974,-0.011 -0.058747,-0.03367 -0.1064246,-0.07806 -0.1493316,-0.130166 0,-0.01164 0,-0.0233 0,-0.03529 -0.011773,0 -0.023535,0 -0.03566,0 0,-0.01165 0,-0.0233 0,-0.03529 -0.011773,0 -0.023535,0 -0.03566,0 0,-0.01164 0,-0.0233 0,-0.0353 -0.011773,0 -0.023535,0 -0.03566,0 -0.026888,-0.02964 -0.026888,-0.02964 -0.055719,-0.06839 -0.0096,-0.01277 -0.019216,-0.02539 -0.029114,-0.03847 -0.022152,-0.03433 -0.022152,-0.03433 -0.022152,-0.06964 -0.011773,0 -0.023535,0 -0.03566,0 -0.032172,-0.04243 -0.062041,-0.08476 -0.091382,-0.12905 -0.00834,-0.01212 -0.016688,-0.02437 -0.025281,-0.03692 -0.011821,-0.01766 -0.011821,-0.01766 -0.023886,-0.03567 -0.00725,-0.01083 -0.01449,-0.02162 -0.021947,-0.03277 -0.015799,-0.03031 -0.015799,-0.03031 -0.015799,-0.08325 -0.011773,0 -0.023535,0 -0.03566,0 -0.2664924,-0.515833 -0.4186247,-1.039187 -0.4137758,-1.619908 3.27e-4,-0.04025 3.679e-4,-0.0805 3.679e-4,-0.120771 5.586e-4,-0.245366 0.010916,-0.488764 0.051227,-0.731298 0.00308,-0.01865 0.00614,-0.03729 0.00932,-0.0565 0.060647,-0.35144 0.1570616,-0.708638 0.2993869,-1.03663 0.020906,-0.0567 0.04049,-0.113849 0.06018,-0.170975 0.04671,-0.13353 0.096917,-0.26415 0.15379,-0.393794 0.011239,-0.02655 0.022453,-0.05312 0.033644,-0.07969 C 3.5365854,9.8014915 3.6752119,9.5187238 3.8159521,9.2361402 4.1062297,8.6531279 4.1062297,8.6531279 4.3070626,8.0362842 4.3124315,8.0152128 4.3178652,7.994157 4.3234301,7.9724382 4.4594165,7.3847472 4.3328419,6.7901865 4.0807866,6.2517208 4.0379542,6.1582966 3.9994007,6.0631097 3.960477,5.9680311 3.9518575,5.9470079 3.9432524,5.9260008 3.9343775,5.9043307 3.7885309,5.5470386 3.6501849,5.1861031 3.5760002,4.8065054 c -0.0032,-0.015848 -0.00634,-0.031648 -0.00962,-0.047933 -0.031341,-0.1746872 -0.0331,-0.3477071 -0.03273,-0.5245532 -3.3e-6,-0.023385 -3.3e-6,-0.023385 -6.4e-6,-0.047222 4.766e-4,-0.2404868 0.013552,-0.4707983 0.078016,-0.7039561 0.00557,-0.0207 0.011126,-0.0414 0.016854,-0.06273 0.038885,-0.12711 0.098578,-0.2438441 0.1614506,-0.3608418 0.011773,0 0.023535,0 0.03566,0 0.00513,-0.013422 0.0103,-0.026942 0.015605,-0.040818 0.020059,-0.047432 0.020059,-0.047432 0.055719,-0.1003779 0.011773,0 0.023535,0 0.03566,0 0,-0.011644 0,-0.023303 0,-0.035303 0.011773,0 0.023535,0 0.03566,0 0.00422,-0.010185 0.00851,-0.020473 0.012889,-0.031017 0.1190321,-0.2068143 0.4320031,-0.3110864 0.6494982,-0.3733202 0.6231489,-0.1490064 1.3005575,0.043081 1.8517473,0.3337461 0.017168,0.00889 0.034343,0.017788 0.052028,0.026958 0.071837,0.037907 0.142148,0.077462 0.2111826,0.1201722 0.011773,0.00728 0.023535,0.014393 0.03566,0.021865 0.023009,0.014231 0.045899,0.028543 0.068649,0.043113 0.089537,0.055178 0.1702042,0.081328 0.2766159,0.058154 0.1010139,-0.045636 0.1535571,-0.096949 0.1939088,-0.1996548 0.041003,-0.1455457 0.041015,-0.2908536 0.04106,-0.4408854 1.363e-4,-0.026263 2.995e-4,-0.05251 4.491e-4,-0.078756 3.27e-4,-0.05618 5.152e-4,-0.1123452 6.399e-4,-0.1685129 2.047e-4,-0.088766 6.399e-4,-0.1775221 0.00115,-0.2662839 7.039e-4,-0.1402414 0.00134,-0.2804699 0.00179,-0.4207064 8.959e-4,-0.2516307 0.00199,-0.5032614 0.00326,-0.75489049 4.359e-4,-0.0883139 7.678e-4,-0.17663264 0.00108,-0.26494984 1.772e-4,-0.054725 4.357e-4,-0.10945032 7.038e-4,-0.16417715 1.108e-4,-0.0254541 1.907e-4,-0.050925 2.452e-4,-0.0763947 6.84e-5,-0.0346075 2.456e-4,-0.0692149 4.363e-4,-0.10382238 6.78e-5,-0.0194065 1.356e-4,-0.0388119 2.04e-4,-0.05881683 0.00326,-0.05978743 0.00326,-0.05978743 0.051638,-0.06311827 z"
     fill="#FEFEFE"
     id="path1-6"
     style="display:inline;fill:#2e3436;fill-opacity:1;stroke-width:0.0177396;enable-background:new" />
</svg>
