<?xml version="1.0" encoding="UTF-8" standalone="no"?>
<svg
   height="16px"
   viewBox="0 0 16 16"
   width="16px"
   version="1.1"
   id="svg1"
   sodipodi:docname="composor.svg"
   inkscape:version="1.4.3 (0d15f75042, 2025-12-25)"
   xmlns:inkscape="http://www.inkscape.org/namespaces/inkscape"
   xmlns:sodipodi="http://sodipodi.sourceforge.net/DTD/sodipodi-0.dtd"
   xmlns="http://www.w3.org/2000/svg"
   xmlns:svg="http://www.w3.org/2000/svg">
  <defs
     id="defs1" />
  <sodipodi:namedview
     id="namedview1"
     pagecolor="#ffffff"
     bordercolor="#000000"
     borderopacity="0.25"
     inkscape:showpageshadow="2"
     inkscape:pageopacity="0.0"
     inkscape:pagecheckerboard="0"
     inkscape:deskcolor="#d1d1d1"
     inkscape:zoom="32.20741"
     inkscape:cx="13.552782"
     inkscape:cy="10.385809"
     inkscape:window-width="1728"
     inkscape:window-height="1048"
     inkscape:window-x="0"
     inkscape:window-y="0"
     inkscape:window-maximized="1"
     inkscape:current-layer="layer1"
     showgrid="true">
    <inkscape:grid
       id="grid1"
       units="px"
       originx="0"
       originy="0"
       spacingx="1"
       spacingy="1"
       empcolor="#0099e5"
       empopacity="0.30196078"
       color="#0099e5"
       opacity="0.14901961"
       empspacing="5"
       enabled="true"
       visible="true" />
  </sodipodi:namedview>
  <g
     inkscape:groupmode="layer"
     id="layer1"
     inkscape:label="Group"
     transform="translate(-0.09796738,-0.32655794)"
     style="display:inline;fill:none;stroke:#000000;stroke-opacity:1">
    <path
       d="m 8.1543455,14.376907 c 3.3122135,0 5.9972475,-2.678781 5.9972475,-5.9832794 0,-3.3044723 -2.685034,-5.9832797 -5.9972475,-5.9832797 -3.3121863,0 -5.9972473,2.6788074 -5.9972473,5.9832797 0,3.3044984 2.685061,5.9832794 5.9972473,5.9832794 z"
       stroke="#808080"
       stroke-width="0.4"
       stroke-linecap="round"
       stroke-linejoin="round"
       id="path1-0"
       style="display:none;fill:none;stroke:#000000;stroke-width:1.02656;stroke-dasharray:none;stroke-opacity:1" />
    <path
       d="M 8.0563782,4.1190249 V 8.3772997"
       stroke="#808080"
       stroke-width="0.4"
       stroke-linecap="round"
       stroke-linejoin="round"
       id="path2"
       style="display:none;fill:none;stroke:#000000;stroke-width:0.8;stroke-dasharray:none;stroke-opacity:1" />
    <path
       d="M 11.095215,11.38648 8.0563782,8.3772997"
       stroke="#808080"
       stroke-width="0.4"
       stroke-linecap="round"
       stroke-linejoin="round"
       id="path3"
       style="display:none;fill:none;stroke:#000000;stroke-width:0.8;stroke-dasharray:none;stroke-opacity:1" />
    <g
       id="g2-5"
       transform="matrix(0.57364624,0,0,0.57364624,1.2229142,1.0960232)">
      <path
         d="m 1,22 c 0,-0.5523 0.44772,-1 1,-1 h 20 c 0.5523,0 1,0.4477 1,1 0,0.5523 -0.4477,1 -1,1 H 2 C 1.44772,23 1,22.5523 1,22 Z"
         fill="#0f0f0f"
         id="path1-3"
         style="stroke-width:0;stroke-dasharray:none" />
      <path
         fill-rule="evenodd"
         clip-rule="evenodd"
         d="m 18.3056,1.87868 c -1.1715,-1.171573 -3.071,-1.171573 -4.2426,0 L 3.38904,12.5526 C 2.9856,12.9561 2.70557,13.4662 2.5818,14.0232 l -0.53277,2.3974 c -0.31756,1.429 0.95724,2.7038 2.38623,2.3863 L 6.83272,18.2741 C 7.38969,18.1503 7.89981,17.8703 8.30325,17.4669 L 18.9772,6.79289 c 1.1716,-1.17157 1.1716,-3.07106 0,-4.24264 z m -2.8284,1.41421 c 0.3905,-0.39052 1.0237,-0.39052 1.4142,0 l 0.6716,0.67158 c 0.3905,0.39052 0.3905,1.02369 0,1.41421 L 15.6414,7.30026 13.5556,5.21448 Z M 12.1414,6.62869 4.80325,13.9669 C 4.66877,14.1013 4.57543,14.2714 4.53417,14.457 L 4.0014,16.8545 6.39886,16.3217 c 0.18566,-0.0412 0.3557,-0.1346 0.49018,-0.2691 L 14.2272,8.71448 Z"
         fill="#0f0f0f"
         id="path2-5"
         style="stroke-width:0;stroke-dasharray:none" />
    </g>
  </g>
</svg>
